{
.appVersion = "3218";
.formatVersion = 3;
axes = (
{
name = Weight;
tag = wght;
}
);
classes = (
{
automatic = 1;
code = "A Aacute Abreve Acircumflex Adieresis Adotbelow Agrave Amacron Aogonek Aring Aringacute Atilde AE AEacute B C Cacute Ccaron Ccedilla Ccedillaacute Ccircumflex Cdotaccent D Eth Dcaron Dcroat Ddotbelow Dmacronbelow E Eacute Ebreve Ecaron Ecedillabreve Ecircumflex Edieresis Edotaccent Edotbelow Egrave Emacron Emacronacute Emacrongrave Eogonek Etilde F G Gbreve Gcaron Gcircumflex Gcommaaccent Gdotaccent Gmacron H Hbar Hbrevebelow Hcircumflex Hdotbelow I IJ Iacute Ibreve Icircumflex Idieresis Idieresisacute Idotaccent Idotbelow Igrave Imacron Iogonek Itilde J Jacute Jcircumflex K Kcommaaccent L Lacute Lcaron Lcommaaccent Ldot Ldotbelow Lmacronbelow Lslash M Mdotbelow N Nacute Ncaron Ncommaaccent Ndotaccent Ndotbelow Nhookleft Nmacronbelow Ntilde Eng O Oacute Obreve Ocircumflex Odieresis Odotbelow Ograve Ohungarumlaut Omacron Omacronacute Omacrongrave Oogonek Oslash Oslashacute Otilde Otildeacute Otildedieresis OE P Thorn Q R Racute Rcaron Rcommaaccent Rdotbelow Rmacronbelow S Sacute Sacutedotaccent Scaron Scarondotaccent Scedilla Scircumflex Scommaaccent Sdotaccent Sdotbelow Sdotbelowdotaccent Germandbls T Tbar Tcaron Tcedilla Tcommaaccent Tdotbelow Tmacronbelow U Uacute Ubreve Ucircumflex Udieresis Udotbelow Ugrave Uhungarumlaut Umacron Umacrondieresis Uogonek Uring Utilde Utildeacute V W Wacute Wcircumflex Wdieresis Wgrave X Y Yacute Ycircumflex Ydieresis Ydotaccent Ygrave Ymacron Ytilde Z Zacute Zcaron Zdotaccent Zdotbelow Delta Omega";
name = Uppercase;
}
);
customParameters = (
{
name = panose;
value = (
0,
0,
5,
0,
0,
0,
0,
0,
0,
0
);
},
{
name = blueScale;
value = 0.037;
},
{
name = "gasp Table";
value = {
"21" = 7;
"65535" = 15;
"9" = 10;
};
},
{
name = unicodeRanges;
value = (
0,
1
);
},
{
name = codePageRanges;
value = (
"1252"
);
},
{
name = "Use Extension Kerning";
value = 1;
},
{
name = fsType;
value = (
);
},
{

glyphs = (
{
glyphname = A;
kernLeft = A;
kernRight = A;
lastChange = "2023-09-15 13:26:36 +0000";
layers = (
{
anchors = (
{
name = bottom;
pos = (416,0);
},
{
name = ogonek;
pos = (781,7);
},
{
name = top;
pos = (416,751);
}
);
background = {
shapes = (
{
closed = 1;
nodes = (
(16,7,ls),
(14,4,o),
(13,1,o),
(13,-1,cs),
(13,-6,o),
(16,-10,o),
(21,-13,cs),
(30,-18,o),
(37,-16,o),
(42,-7,cs),
(201,294,l),
(404,-8,ls),
(407,-13,o),
(412,-15,o),
(417,-15,cs),
(421,-15,o),
(426,-13,o),
(430,-8,cs),
(631,295,l),
(791,-7,ls),
(793,-13,o),
(797,-16,o),
(802,-16,cs),
(805,-16,o),
(808,-15,o),
(811,-13,cs),
(816,-10,o),
(819,-6,o),
(819,-1,cs),
(819,1,o),
(818,4,o),
(816,7,cs),
(429,743,ls),
(426,749,o),
(420,751,o),
(415,751,cs),
(410,751,o),
(405,749,o),
(401,743,c),
(188,335,l),
(186,333,o),
(184,330,o),
(184,327,c)
);
},
{
closed = 1;
nodes = (
(417,27,l),
(215,324,l),
(416,704,l),
(616,325,l)
);
}
);
};
layerId = "12AF635E-66FE-4C90-B49C-8787585F2B73";
shapes = (
{
closed = 1;
nodes = (
(40,0,o),
(45,3,o),
(47,8,cs),
(415,724,l),
(783,8,ls),
(785,3,o),
(790,0,o),
(796,0,cs),
(804,0,o),
(811,6,o),
(811,15,cs),
(811,17,o),
(810,20,o),
(807,25,cs),
(432,754,ls),
(424,770,o),
(405,770,o),
(397,754,cs),
(21,21,ls),
(21,20,o),
(20,17,o),
(20,15,cs),
(20,6,o),
(26,0,o),
(34,0,cs)
);
},
{
closed = 1;
nodes = (
(407,-3,o),
(422,-3,o),
(429,8,cs),
(642,323,ls),
(643,325,o),
(644,328,o),
(644,331,cs),
(644,339,o),
(637,346,o),
(629,346,cs),
(625,346,o),
(620,343,o),
(617,339,cs),
(415,39,l),
(214,337,ls),
(211,341,o),
(207,344,o),
(202,344,cs),
(194,344,o),
(187,337,o),
(187,329,cs),
(187,326,o),
(188,323,o),
(189,321,cs),
(400,8,ls)
);
}
);
width = 830;
},
{
anchors = (
{
name = _bottom;
pos = (416,0);
},
{
name = _top;
pos = (416,751);
},
{
name = top;
pos = (416,751);
}
);
associatedMasterId = "12AF635E-66FE-4C90-B49C-8787585F2B73";
background = {
shapes = (
{
closed = 1;
nodes = (
(15,7,ls),
(14,4,o),
(13,1,o),
(13,-1,cs),
(13,-6,o),
(16,-10,o),
(21,-13,cs),
(30,-18,o),
(36,-16,o),
(41,-7,cs),
(200,294,l),
(404,-8,ls),
(407,-13,o),
(412,-15,o),
(416,-15,cs),
(421,-15,o),
(426,-13,o),
(429,-8,cs),
(631,295,l),
(790,-7,ls),
(793,-13,o),
(797,-16,o),
(802,-16,cs),
(804,-16,o),
(807,-15,o),
(810,-13,cs),
(815,-10,o),
(818,-6,o),
(818,-1,cs),
(818,1,o),
(817,4,o),
(816,7,cs),
(428,743,ls),
(425,749,o),
(420,751,o),
(415,751,cs),
(410,751,o),
(404,749,o),
(401,743,c),
(187,335,l),
(185,333,o),
(184,330,o),
(183,327,c)
);
},
{
closed = 1;
nodes = (
(416,27,l),
(215,324,l),
(415,704,l),
(615,325,l)
);
}
);
};
layerId = "E8607AC4-E5C6-46CD-A64C-EE98AF0D5250";
name = "17 août 23 à 14:23";
shapes = (
{
closed = 0;
nodes = (
(28,0,l),
(414,751,l),
(800,0,l)
);
},
{
closed = 0;
nodes = (
(633,325,l),
(414,0,l),
(195,325,l)
);
}
);
width = 831;
},
{
anchors = (
{
name = _bottom;
pos = (146,0);
},
{
name = _top;
pos = (146,751);
},
{
name = top;
pos = (146,751);
}
);
associatedMasterId = "12AF635E-66FE-4C90-B49C-8787585F2B73";
layerId = "FF8F5861-4D4E-4A19-9FC8-D757777B75C1";
width = 293;
},
{
anchors = (
{
name = bottom;
pos = (415,0);
},
{
name = ogonek;
pos = (723,62);
},
{
name = top;
pos = (415,751);
}
);
background = {
shapes = (
{
closed = 1;
nodes = (
(15,7,ls),
(13,4,o),
(12,1,o),
(12,-1,cs),
(12,-6,o),
(15,-10,o),
(21,-13,cs),
(29,-18,o),
(36,-16,o),
(41,-7,cs),
(200,294,l),
(403,-8,ls),
(406,-13,o),
(411,-15,o),
(416,-15,cs),
(420,-15,o),
(425,-13,o),
(429,-8,cs),
(630,295,l),
(790,-7,ls),
(792,-13,o),
(796,-16,o),
(801,-16,cs),
(804,-16,o),
(807,-15,o),
(810,-13,cs),
(815,-10,o),
(818,-6,o),
(818,-1,cs),
(818,1,o),
(817,4,o),
(815,7,cs),
(428,743,ls),
(425,749,o),
(419,751,o),
(414,751,cs),
(409,751,o),
(404,749,o),
(400,743,c),
(187,335,l),
(185,333,o),
(183,330,o),
(183,327,c)
);
},
{
closed = 1;
nodes = (
(416,27,l),
(214,324,l),
(415,704,l),
(615,325,l)
);
}
);
};
layerId = m004;
shapes = (
{
closed = 1;
nodes = (
(114,0,o),
(137,15,o),
(148,37,cs),
(414,554,l),
(679,36,ls),
(690,14,o),
(713,0,o),
(739,0,cs),
(777,0,o),
(808,31,o),
(808,68,cs),
(808,80,o),
(805,91,o),
(800,101,cs),
(482,720,ls),
(451,781,o),
(376,781,o),
(345,720,cs),
(27,102,ls),
(22,92,o),
(20,81,o),
(20,69,cs),
(20,31,o),
(50,0,o),
(88,0,cs)
);
},
{
closed = 1;
nodes = (
(386,-11,o),
(441,-11,o),
(471,33,cs),
(647,296,ls),
(655,307,o),
(660,320,o),
(660,335,cs),
(660,373,o),
(629,403,o),
(591,403,cs),
(568,403,o),
(547,392,o),
(535,374,cs),
(414,193,l),
(297,365,ls),
(285,383,o),
(265,395,o),
(241,395,cs),
(204,395,o),
(173,364,o),
(173,327,cs),
(173,312,o),
(178,298,o),
(185,288,cs),
(356,33,ls)
);
}
);
width = 827;
},
{
anchors = (
{
name = _bottom;
pos = (416,0);
},
{
name = _top;
pos = (416,751);
},
{
name = top;
pos = (416,751);
}
);
associatedMasterId = m004;
background = {
shapes = (
{
closed = 1;
nodes = (
(15,7,ls),
(14,4,o),
(13,1,o),
(13,-1,cs),
(13,-6,o),
(16,-10,o),
(21,-13,cs),
(30,-18,o),
(36,-16,o),
(41,-7,cs),
(200,294,l),
(404,-8,ls),
(407,-13,o),
(412,-15,o),
(416,-15,cs),
(421,-15,o),
(426,-13,o),
(429,-8,cs),
(631,295,l),
(790,-7,ls),
(793,-13,o),
(797,-16,o),
(802,-16,cs),
(804,-16,o),
(807,-15,o),
(810,-13,cs),
(815,-10,o),
(818,-6,o),
(818,-1,cs),
(818,1,o),
(817,4,o),
(816,7,cs),
(428,743,ls),
(425,749,o),
(420,751,o),
(415,751,cs),
(410,751,o),
(404,749,o),
(401,743,c),
(187,335,l),
(185,333,o),
(184,330,o),
(183,327,c)
);
},
{
closed = 1;
nodes = (
(416,27,l),
(215,324,l),
(415,704,l),
(615,325,l)
);
}
);
};
layerId = "B25C972D-7510-49A5-8386-48E3DF46A208";
name = "17 août 23 à 14:23";
shapes = (
{
closed = 0;
nodes = (
(28,0,l),
(414,751,l),
(800,0,l)
);
},
{
closed = 0;
nodes = (
(633,325,l),
(414,0,l),
(195,325,l)
);
}
);
width = 831;
}
);
note = A;
unicode = 65;
},
{
glyphname = B;
kernLeft = H;
kernRight = B;
lastChange = "2023-09-15 13:26:36 +0000";
layers = (
{
anchors = (
{
name = _bottom;
pos = (351,0);
},
{
name = _top;
pos = (351,751);
},
{
name = top;
pos = (351,751);
}
);
associatedMasterId = m004;
background = {
hints = (
{
horizontal = 1;
place = (-15,30);
type = Stem;
},
{
horizontal = 1;
place = (257,30);
type = Stem;
},
{
horizontal = 1;
place = (564,30);
type = Stem;
},
{
horizontal = 1;
place = (721,30);
type = Stem;
},
{
place = (85,30);
type = Stem;
},
{
place = (608,30);
type = Stem;
}
);
shapes = (
{
closed = 1;
nodes = (
(85,0,ls),
(85,-10,o),
(90,-15,o),
(100,-15,cs),
(334,-15,ls),
(418,-15,o),
(490,15,o),
(549,74,cs),
(608,133,o),
(638,205,o),
(638,289,cs),
(638,378,o),
(600,459,o),
(537,516,c),
(534,581,o),
(508,637,o),
(460,682,cs),
(413,728,o),
(356,751,o),
(290,751,cs),
(100,751,ls),
(90,751,o),
(85,746,o),
(85,736,cs)
);
},
{
closed = 1;
nodes = (
(115,594,l),
(115,721,l),
(290,721,ls),
(343,721,o),
(390,704,o),
(430,670,cs),
(470,636,o),
(495,593,o),
(504,542,c),
(453,577,o),
(396,594,o),
(334,594,cs)
);
},
{
closed = 1;
nodes = (
(115,287,l),
(115,564,l),
(334,564,ls),
(398,564,o),
(456,543,o),
(507,502,c),
(506,443,o),
(485,392,o),
(442,350,cs),
(400,308,o),
(349,287,o),
(290,287,cs)
);
},
{
closed = 1;
nodes = (
(115,15,l),
(115,257,l),
(290,257,ls),
(353,257,o),
(407,278,o),
(455,320,cs),
(502,362,o),
(529,414,o),
(535,475,c),
(583,423,o),
(608,361,o),
(608,289,cs),
(608,213,o),
(581,149,o),
(527,95,cs),
(474,42,o),
(409,15,o),
(334,15,cs)
);
}
);
};
layerId = "E32FE344-3A96-44CA-B9C3-14A61411E5CC";
name = "18 août 23 à 00:15";
shapes = (
{
closed = 0;
nodes = (
(100,560,l),
(345,560,ls),
(500,560,o),
(625,435,o),
(625,280,cs),
(625,125,o),
(500,0,o),
(345,0,cs),
(100,0,l),
(100,751,l),
(291,751,ls),
(427,751,o),
(537,641,o),
(537,504,cs),
(537,368,o),
(427,257,o),
(291,257,cs),
(100,257,l)
);
}
);
width = 703;
},
{
anchors = (
{
name = bottom;
pos = (322,0);
},
{
name = center;
pos = (322,375);
},
{
name = top;
pos = (322,751);
}
);
associatedMasterId = "12AF635E-66FE-4C90-B49C-8787585F2B73";
background = {
hints = (
{
horizontal = 1;
place = (-15,30);
type = Stem;
},
{
horizontal = 1;
place = (257,30);
type = Stem;
},
{
horizontal = 1;
place = (564,30);
type = Stem;
},
{
horizontal = 1;
place = (721,30);
type = Stem;
},
{
place = (85,30);
type = Stem;
},
{
place = (608,30);
type = Stem;
}
);
shapes = (
{
closed = 1;
nodes = (
(55,0,ls),
(55,-10,o),
(60,-15,o),
(70,-15,cs),
(304,-15,ls),
(388,-15,o),
(460,15,o),
(519,74,cs),
(579,133,o),
(608,205,o),
(608,289,cs),
(608,378,o),
(570,459,o),
(507,516,c),
(504,581,o),
(479,637,o),
(431,682,cs),
(383,728,o),
(326,751,o),
(260,751,cs),
(70,751,ls),
(60,751,o),
(55,746,o),
(55,736,cs)
);
},
{
closed = 1;
nodes = (
(85,594,l),
(85,721,l),
(260,721,ls),
(313,721,o),
(360,704,o),
(400,670,cs),
(440,636,o),
(465,593,o),
(474,542,c),
(423,577,o),
(366,594,o),
(304,594,cs)
);
},
{
closed = 1;
nodes = (
(85,287,l),
(85,564,l),
(304,564,ls),
(369,564,o),
(426,543,o),
(477,502,c),
(477,443,o),
(455,392,o),
(413,350,cs),
(370,308,o),
(319,287,o),
(260,287,cs)
);
},
{
closed = 1;
nodes = (
(85,15,l),
(85,257,l),
(260,257,ls),
(323,257,o),
(377,278,o),
(425,320,cs),
(472,362,o),
(499,414,o),
(505,475,c),
(554,423,o),
(578,361,o),
(578,289,cs),
(578,213,o),
(551,149,o),
(498,95,cs),
(444,42,o),
(379,15,o),
(304,15,cs)
);
}
);
};
layerId = "FBACD670-023F-4DA2-BCEE-AEAD051D879F";
name = "21 août 23 à 06:08";
shapes = (
{
closed = 1;
nodes = (
(310,0,ls),
(474,0,o),
(607,133,o),
(607,297,cs),
(607,391,o),
(563,475,o),
(496,530,c),
(496,493,l),
(547,445,o),
(578,376,o),
(578,297,cs),
(578,145,o),
(462,29,o),
(310,29,cs),
(99,29,l),
(99,722,l),
(261,722,ls),
(385,722,o),
(478,628,o),
(478,504,cs),
(478,380,o),
(385,287,o),
(261,287,cs),
(93,287,ls),
(84,287,o),
(78,280,o),
(78,272,cs),
(78,264,o),
(84,257,o),
(93,257,cs),
(261,257,ls),
(397,257,o),
(507,368,o),
(507,504,cs),
(507,641,o),
(397,751,o),
(261,751,cs),
(85,751,ls),
(77,751,o),
(70,744,o),
(70,735,cs),
(70,16,ls),
(70,7,o),
(77,0,o),
(85,0,cs)
);
}
);
width = 656;
},
{
anchors = (
{
name = bottom;
pos = (322,0);
},
{
name = center;
pos = (322,375);
},
{
name = top;
pos = (322,751);
}
);
background = {
hints = (
{
horizontal = 1;
place = (-15,30);
type = Stem;
},
{
horizontal = 1;
place = (257,30);
type = Stem;
},
{
horizontal = 1;
place = (564,30);
type = Stem;
},
{
horizontal = 1;
place = (721,30);
type = Stem;
},
{
place = (85,30);
type = Stem;
},
{
place = (608,30);
type = Stem;
}
);
shapes = (
{
closed = 1;
nodes = (
(55,0,ls),
(55,-10,o),
(60,-15,o),
(70,-15,cs),
(304,-15,ls),
(388,-15,o),
(460,15,o),
(519,74,cs),
(579,133,o),
(608,205,o),
(608,289,cs),
(608,378,o),
(570,459,o),
(507,516,c),
(504,581,o),
(479,637,o),
(431,682,cs),
(383,728,o),
(326,751,o),
(260,751,cs),
(70,751,ls),
(60,751,o),
(55,746,o),
(55,736,cs)
);
},
{
closed = 1;
nodes = (
(85,594,l),
(85,721,l),
(260,721,ls),
(313,721,o),
(360,704,o),
(400,670,cs),
(440,636,o),
(465,593,o),
(474,542,c),
(423,577,o),
(366,594,o),
(304,594,cs)
);
},
{
closed = 1;
nodes = (
(85,287,l),
(85,564,l),
(304,564,ls),
(369,564,o),
(426,543,o),
(477,502,c),
(477,443,o),
(455,392,o),
(413,350,cs),
(370,308,o),
(319,287,o),
(260,287,cs)
);
},
{
closed = 1;
nodes = (
(85,15,l),
(85,257,l),
(260,257,ls),
(323,257,o),
(377,278,o),
(425,320,cs),
(472,362,o),
(499,414,o),
(505,475,c),
(554,423,o),
(578,361,o),
(578,289,cs),
(578,213,o),
(551,149,o),
(498,95,cs),
(444,42,o),
(379,15,o),
(304,15,cs)
);
}
);
};
layerId = "12AF635E-66FE-4C90-B49C-8787585F2B73";
name = Light;
shapes = (
{
closed = 1;
nodes = (
(310,0,ls),
(474,0,o),
(607,133,o),
(607,297,cs),
(607,461,o),
(474,595,o),
(310,595,cs),
(93,595,ls),
(84,595,o),
(78,588,o),
(78,580,cs),
(78,572,o),
(84,565,o),
(93,565,cs),
(310,565,ls),
(462,565,o),
(578,449,o),
(578,297,cs),
(578,145,o),
(462,29,o),
(310,29,cs),
(99,29,l),
(99,722,l),
(261,722,ls),
(385,722,o),
(478,628,o),
(478,504,cs),
(478,380,o),
(385,287,o),
(261,287,cs),
(93,287,ls),
(84,287,o),
(78,280,o),
(78,272,cs),
(78,264,o),
(84,257,o),
(93,257,cs),
(261,257,ls),
(397,257,o),
(507,368,o),
(507,504,cs),
(507,641,o),
(397,751,o),
(261,751,cs),
(85,751,ls),
(77,751,o),
(70,744,o),
(70,735,cs),
(70,16,ls),
(70,7,o),
(77,0,o),
(85,0,cs)
);
}
);
width = 656;
},
{
anchors = (
{
name = bottom;
pos = (354,0);
},
{
name = center;
pos = (354,375);
},
{
name = top;
pos = (354,751);
}
);
associatedMasterId = m004;
background = {
hints = (
{
horizontal = 1;
place = (-15,30);
type = Stem;
},
{
horizontal = 1;
place = (257,30);
type = Stem;
},
{
horizontal = 1;
place = (564,30);
type = Stem;
},
{
horizontal = 1;
place = (721,30);
type = Stem;
},
{
place = (85,30);
type = Stem;
},
{
place = (608,30);
type = Stem;
}
);
shapes = (
{
closed = 1;
nodes = (
(88,0,ls),
(88,-10,o),
(93,-15,o),
(103,-15,cs),
(337,-15,ls),
(421,-15,o),
(493,15,o),
(552,74,cs),
(611,133,o),
(641,205,o),
(641,289,cs),
(641,378,o),
(603,459,o),
(540,516,c),
(537,581,o),
(511,637,o),
(463,682,cs),
(416,728,o),
(359,751,o),
(293,751,cs),
(103,751,ls),
(93,751,o),
(88,746,o),
(88,736,cs)
);
},
{
closed = 1;
nodes = (
(118,594,l),
(118,721,l),
(293,721,ls),
(346,721,o),
(393,704,o),
(433,670,cs),
(473,636,o),
(498,593,o),
(507,542,c),
(456,577,o),
(399,594,o),
(337,594,cs)
);
},
{
closed = 1;
nodes = (
(118,287,l),
(118,564,l),
(337,564,ls),
(401,564,o),
(459,543,o),
(510,502,c),
(509,443,o),
(488,392,o),
(445,350,cs),
(403,308,o),
(352,287,o),
(293,287,cs)
);
},
{
closed = 1;
nodes = (
(118,15,l),
(118,257,l),
(293,257,ls),
(355,257,o),
(410,278,o),
(458,320,cs),
(505,362,o),
(532,414,o),
(538,475,c),
(586,423,o),
(611,361,o),
(611,289,cs),
(611,213,o),
(584,149,o),
(530,95,cs),
(477,42,o),
(412,15,o),
(337,15,cs)
);
}
);
};
layerId = "A11A8383-2124-4268-9705-1A0B847FD868";
name = "21 août 23 à 06:08";
shapes = (
{
closed = 1;
nodes = (
(368,0,ls),
(522,0,o),
(648,125,o),
(648,280,cs),
(648,402,o),
(570,506,o),
(460,544,c),
(458,393,l),
(489,369,o),
(511,332,o),
(511,280,cs),
(511,182,o),
(432,137,o),
(368,137,cs),
(205,137,l),
(205,614,l),
(293,614,ls),
(357,614,o),
(403,584,o),
(403,504,cs),
(403,424,o),
(357,394,o),
(293,394,cs),
(164,394,ls),
(126,394,o),
(96,363,o),
(96,326,cs),
(96,288,o),
(126,257,o),
(164,257,cs),
(293,257,ls),
(430,257,o),
(540,368,o),
(540,504,cs),
(540,641,o),
(430,751,o),
(293,751,cs),
(128,751,ls),
(93,751,o),
(68,726,o),
(68,691,cs),
(68,60,ls),
(68,25,o),
(93,0,o),
(128,0,cs)
);
}
);
width = 697;
},
{
anchors = (
{
name = bottom;
pos = (354,0);
},
{
name = center;
pos = (354,375);
},
{
name = top;
pos = (354,751);
}
);
background = {
hints = (
{
horizontal = 1;
place = (-15,30);
type = Stem;
},
{
horizontal = 1;
place = (257,30);
type = Stem;
},
{
horizontal = 1;
place = (564,30);
type = Stem;
},
{
horizontal = 1;
place = (721,30);
type = Stem;
},
{
place = (85,30);
type = Stem;
},
{
place = (608,30);
type = Stem;
}
);
shapes = (
{
closed = 1;
nodes = (
(88,0,ls),
(88,-10,o),
(93,-15,o),
(103,-15,cs),
(337,-15,ls),
(421,-15,o),
(493,15,o),
(552,74,cs),
(611,133,o),
(641,205,o),
(641,289,cs),
(641,378,o),
(603,459,o),
(540,516,c),
(537,581,o),
(511,637,o),
(463,682,cs),
(416,728,o),
(359,751,o),
(293,751,cs),
(103,751,ls),
(93,751,o),
(88,746,o),
(88,736,cs)
);
},
{
closed = 1;
nodes = (
(118,594,l),
(118,721,l),
(293,721,ls),
(346,721,o),
(393,704,o),
(433,670,cs),
(473,636,o),
(498,593,o),
(507,542,c),
(456,577,o),
(399,594,o),
(337,594,cs)
);
},
{
closed = 1;
nodes = (
(118,287,l),
(118,564,l),
(337,564,ls),
(401,564,o),
(459,543,o),
(510,502,c),
(509,443,o),
(488,392,o),
(445,350,cs),
(403,308,o),
(352,287,o),
(293,287,cs)
);
},
{
closed = 1;
nodes = (
(118,15,l),
(118,257,l),
(293,257,ls),
(355,257,o),
(410,278,o),
(458,320,cs),
(505,362,o),
(532,414,o),
(538,475,c),
(586,423,o),
(611,361,o),
(611,289,cs),
(611,213,o),
(584,149,o),
(530,95,cs),
(477,42,o),
(412,15,o),
(337,15,cs)
);
}
);
};
layerId = m004;
name = Bold;
shapes = (
{
closed = 1;
nodes = (
(368,0,ls),
(522,0,o),
(648,125,o),
(648,280,cs),
(648,435,o),
(522,560,o),
(368,560,cs),
(164,560,ls),
(126,560,o),
(96,529,o),
(96,492,cs),
(96,454,o),
(126,423,o),
(164,423,cs),
(368,423,ls),
(432,423,o),
(511,378,o),
(511,280,cs),
(511,182,o),
(432,137,o),
(368,137,cs),
(205,137,l),
(205,614,l),
(293,614,ls),
(357,614,o),
(403,584,o),
(403,504,cs),
(403,424,o),
(357,394,o),
(293,394,cs),
(164,394,ls),
(126,394,o),
(96,363,o),
(96,326,cs),
(96,288,o),
(126,257,o),
(164,257,cs),
(293,257,ls),
(430,257,o),
(540,368,o),
(540,504,cs),
(540,641,o),
(430,751,o),
(293,751,cs),
(128,751,ls),
(93,751,o),
(68,726,o),
(68,691,cs),
(68,60,ls),
(68,25,o),
(93,0,o),
(128,0,cs)
);
}
);
width = 697;
}
);
note = B;
unicode = 66;
},
{
glyphname = C;
kernLeft = O;
kernRight = C;
lastChange = "2023-09-15 13:26:36 +0000";
layers = (
{
anchors = (
{
name = bottom;
pos = (403,-4);
},
{
name = top;
pos = (439,753);
}
);
background = {
hints = (
{
horizontal = 1;
place = (-16,30);
type = Stem;
},
{
horizontal = 1;
place = (723,30);
type = Stem;
},
{
place = (38,30);
type = Stem;
}
);
shapes = (
{
closed = 1;
nodes = (
(72,502,o),
(54,438,o),
(54,368,cs),
(54,299,o),
(72,234,o),
(107,175,cs),
(141,116,o),
(187,70,o),
(245,36,cs),
(305,1,o),
(370,-16,o),
(439,-16,cs),
(486,-16,o),
(533,-7,o),
(577,10,cs),
(621,27,o),
(660,50,o),
(694,81,cs),
(698,84,o),
(700,88,o),
(700,92,cs),
(700,95,o),
(699,99,o),
(695,102,cs),
(689,109,o),
(682,109,o),
(674,103,cs),
(642,75,o),
(606,53,o),
(566,38,cs),
(525,22,o),
(483,14,o),
(439,14,cs),
(375,14,o),
(315,30,o),
(260,62,cs),
(207,93,o),
(165,136,o),
(133,190,cs),
(101,245,o),
(84,304,o),
(84,368,cs),
(84,432,o),
(101,492,o),
(133,547,cs),
(165,600,o),
(207,643,o),
(260,674,cs),
(315,707,o),
(375,723,o),
(439,723,cs),
(483,723,o),
(525,715,o),
(566,699,cs),
(605,684,o),
(642,662,o),
(673,634,cs),
(681,627,o),
(688,628,o),
(694,636,cs),
(697,639,o),
(699,643,o),
(699,646,cs),
(699,650,o),
(697,654,o),
(693,657,cs),
(658,687,o),
(620,710,o),
(577,727,cs),
(532,744,o),
(486,753,o),
(439,753,cs),
(370,753,o),
(305,736,o),
(245,700,cs),
(187,666,o),
(141,620,o),
(107,562,cs)
);
}
);
};
layerId = "12AF635E-66FE-4C90-B49C-8787585F2B73";
shapes = (
{
closed = 1;
nodes = (
(538,-15,o),
(628,21,o),
(696,82,cs),
(700,84,o),
(701,88,o),
(701,93,cs),
(701,101,o),
(695,107,o),
(687,107,cs),
(683,107,o),
(680,106,o),
(677,104,cs),
(613,47,o),
(532,15,o),
(439,15,cs),
(235,15,o),
(78,171,o),
(78,375,cs),
(78,578,o),
(235,736,o),
(439,736,cs),
(537,736,o),
(621,700,o),
(687,638,cs),
(689,636,o),
(692,634,o),
(696,634,cs),
(705,634,o),
(711,641,o),
(711,649,cs),
(711,653,o),
(709,657,o),
(707,660,cs),
(637,725,o),
(543,766,o),
(439,766,cs),
(223,766,o),
(49,590,o),
(49,375,cs),
(49,159,o),
(223,-15,o),
(439,-15,cs)
);
}
);
width = 755;
},
{
anchors = (
{
name = bottom;
pos = (383,-15);
},
{
name = top;
pos = (439,751);
}
);
background = {
hints = (
{
horizontal = 1;
place = (-16,30);
type = Stem;
},
{
horizontal = 1;
place = (723,30);
type = Stem;
},
{
place = (38,30);
type = Stem;
}
);
shapes = (
{
closed = 1;
nodes = (
(72,502,o),
(54,438,o),
(54,368,cs),
(54,299,o),
(72,234,o),
(107,175,cs),
(141,116,o),
(187,70,o),
(245,36,cs),
(305,1,o),
(370,-16,o),
(439,-16,cs),
(486,-16,o),
(533,-7,o),
(577,10,cs),
(621,27,o),
(660,50,o),
(694,81,cs),
(698,84,o),
(700,88,o),
(700,92,cs),
(700,95,o),
(699,99,o),
(695,102,cs),
(689,109,o),
(682,109,o),
(674,103,cs),
(642,75,o),
(606,53,o),
(566,38,cs),
(525,22,o),
(483,14,o),
(439,14,cs),
(375,14,o),
(315,30,o),
(260,62,cs),
(207,93,o),
(165,136,o),
(133,190,cs),
(101,245,o),
(84,304,o),
(84,368,cs),
(84,432,o),
(101,492,o),
(133,547,cs),
(165,600,o),
(207,643,o),
(260,674,cs),
(315,707,o),
(375,723,o),
(439,723,cs),
(483,723,o),
(525,715,o),
(566,699,cs),
(605,684,o),
(642,662,o),
(673,634,cs),
(681,627,o),
(688,628,o),
(694,636,cs),
(697,639,o),
(699,643,o),
(699,646,cs),
(699,650,o),
(697,654,o),
(693,657,cs),
(658,687,o),
(620,710,o),
(577,727,cs),
(532,744,o),
(486,753,o),
(439,753,cs),
(370,753,o),
(305,736,o),
(245,700,cs),
(187,666,o),
(141,620,o),
(107,562,cs)
);
}
);
};
layerId = m004;
shapes = (
{
closed = 1;
nodes = (
(543,-15,o),
(637,25,o),
(707,91,cs),
(720,104,o),
(728,121,o),
(728,141,cs),
(728,178,o),
(698,209,o),
(660,209,cs),
(642,209,o),
(625,202,o),
(613,190,cs),
(561,142,o),
(515,122,o),
(439,122,cs),
(280,122,o),
(186,215,o),
(186,375,cs),
(186,534,o),
(280,629,o),
(439,629,cs),
(519,629,o),
(566,607,o),
(619,554,cs),
(631,542,o),
(648,534,o),
(667,534,cs),
(706,534,o),
(736,564,o),
(736,602,cs),
(736,621,o),
(729,638,o),
(716,650,cs),
(646,721,o),
(548,766,o),
(439,766,cs),
(223,766,o),
(49,590,o),
(49,375,cs),
(49,159,o),
(223,-15,o),
(439,-15,cs)
);
}
);
width = 765;
},
{
anchors = (
{
name = _bottom;
pos = (377,0);
},
{
name = _top;
pos = (377,751);
},
{
name = top;
pos = (377,751);
}
);
associatedMasterId = "12AF635E-66FE-4C90-B49C-8787585F2B73";
background = {
hints = (
{
horizontal = 1;
place = (-16,30);
type = Stem;
},
{
horizontal = 1;
place = (723,30);
type = Stem;
},
{
place = (38,30);
type = Stem;
}
);
shapes = (
{
closed = 1;
nodes = (
(72,502,o),
(54,438,o),
(54,368,cs),
(54,299,o),
(72,234,o),
(107,175,cs),
(141,116,o),
(187,70,o),
(245,36,cs),
(305,1,o),
(370,-16,o),
(439,-16,cs),
(486,-16,o),
(533,-7,o),
(577,10,cs),
(621,27,o),
(660,50,o),
(694,81,cs),
(698,84,o),
(700,88,o),
(700,92,cs),
(700,95,o),
(699,99,o),
(695,102,cs),
(689,109,o),
(682,109,o),
(674,103,cs),
(642,75,o),
(606,53,o),
(566,38,cs),
(525,22,o),
(483,14,o),
(439,14,cs),
(375,14,o),
(315,30,o),
(260,62,cs),
(207,93,o),
(165,136,o),
(133,190,cs),
(101,245,o),
(84,304,o),
(84,368,cs),
(84,432,o),
(101,492,o),
(133,547,cs),
(165,600,o),
(207,643,o),
(260,674,cs),
(315,707,o),
(375,723,o),
(439,723,cs),
(483,723,o),
(525,715,o),
(566,699,cs),
(605,684,o),
(642,662,o),
(673,634,cs),
(681,627,o),
(688,628,o),
(694,636,cs),
(697,639,o),
(699,643,o),
(699,646,cs),
(699,650,o),
(697,654,o),
(693,657,cs),
(658,687,o),
(620,710,o),
(577,727,cs),
(532,744,o),
(486,753,o),
(439,753,cs),
(370,753,o),
(305,736,o),
(245,700,cs),
(187,666,o),
(141,620,o),
(107,562,cs)
);
}
);
};
layerId = "A4A39F8B-2AAE-4F3E-BCAF-D521C8BFFE2C";
name = "17 août 23 à 23:00";
shapes = (
{
closed = 0;
nodes = (
(716,650,l),
(646,721,o),
(548,766,o),
(439,766,cs),
(223,766,o),
(49,590,o),
(49,375,cs),
(49,159,o),
(223,-15,o),
(439,-15,cs),
(543,-15,o),
(637,25,o),
(707,91,c)
);
}
);
width = 755;
},
{
anchors = (
{
name = _bottom;
pos = (377,0);
},
{
name = _top;
pos = (377,751);
},
{
name = top;
pos = (377,751);
}
);
associatedMasterId = m004;
background = {
hints = (
{
horizontal = 1;
place = (-16,30);
type = Stem;
},
{
horizontal = 1;
place = (723,30);
type = Stem;
},
{
place = (38,30);
type = Stem;
}
);
shapes = (
{
closed = 1;
nodes = (
(72,502,o),
(54,438,o),
(54,368,cs),
(54,299,o),
(72,234,o),
(107,175,cs),
(141,116,o),
(187,70,o),
(245,36,cs),
(305,1,o),
(370,-16,o),
(439,-16,cs),
(486,-16,o),
(533,-7,o),
(577,10,cs),
(621,27,o),
(660,50,o),
(694,81,cs),
(698,84,o),
(700,88,o),
(700,92,cs),
(700,95,o),
(699,99,o),
(695,102,cs),
(689,109,o),
(682,109,o),
(674,103,cs),
(642,75,o),
(606,53,o),
(566,38,cs),
(525,22,o),
(483,14,o),
(439,14,cs),
(375,14,o),
(315,30,o),
(260,62,cs),
(207,93,o),
(165,136,o),
(133,190,cs),
(101,245,o),
(84,304,o),
(84,368,cs),
(84,432,o),
(101,492,o),
(133,547,cs),
(165,600,o),
(207,643,o),
(260,674,cs),
(315,707,o),
(375,723,o),
(439,723,cs),
(483,723,o),
(525,715,o),
(566,699,cs),
(605,684,o),
(642,662,o),
(673,634,cs),
(681,627,o),
(688,628,o),
(694,636,cs),
(697,639,o),
(699,643,o),
(699,646,cs),
(699,650,o),
(697,654,o),
(693,657,cs),
(658,687,o),
(620,710,o),
(577,727,cs),
(532,744,o),
(486,753,o),
(439,753,cs),
(370,753,o),
(305,736,o),
(245,700,cs),
(187,666,o),
(141,620,o),
(107,562,cs)
);
}
);
};
layerId = "8FE8E950-FC65-40CD-9090-7DABC2EB6F02";
name = "17 août 23 à 23:01";
shapes = (
{
closed = 0;
nodes = (
(716,650,l),
(646,721,o),
(548,766,o),
(439,766,cs),
(223,766,o),
(49,590,o),
(49,375,cs),
(49,159,o),
(223,-15,o),
(439,-15,cs),
(543,-15,o),
(637,25,o),
(707,91,c)
);
}
);
width = 755;
}
);
note = C;
unicode = 67;
},
{
glyphname = D;
kernLeft = H;
kernRight = O;
lastChange = "2023-09-15 13:26:36 +0000";
layers = (
{
anchors = (
{
name = bottom;
pos = (308,0);
},
{
name = center;
pos = (308,375);
},
{
name = top;
pos = (275,751);
}
);
background = {
hints = (
{
horizontal = 1;
place = (-15,30);
type = Stem;
},
{
horizontal = 1;
place = (721,30);
type = Stem;
},
{
place = (93,30);
type = Stem;
},
{
place = (609,30);
type = Stem;
}
);
shapes = (
{
closed = 1;
nodes = (
(62,0,ls),
(62,-10,o),
(66,-15,o),
(77,-15,cs),
(226,-15,ls),
(355,-15,o),
(457,26,o),
(517,97,cs),
(577,167,o),
(608,260,o),
(608,368,cs),
(608,478,o),
(579,568,o),
(519,639,cs),
(460,709,o),
(358,751,o),
(226,751,cs),
(77,751,ls),
(67,751,o),
(62,745,o),
(62,736,cs)
);
},
{
closed = 1;
nodes = (
(92,15,l),
(92,721,l),
(226,721,ls),
(350,721,o),
(444,683,o),
(498,616,cs),
(552,550,o),
(578,468,o),
(578,368,cs),
(578,269,o),
(551,186,o),
(496,119,cs),
(441,53,o),
(347,15,o),
(226,15,cs)
);
}
);
};
layerId = "12AF635E-66FE-4C90-B49C-8787585F2B73";
shapes = (
{
closed = 1;
nodes = (
(264,0,ls),
(469,0,o),
(609,148,o),
(609,375,cs),
(609,602,o),
(469,751,o),
(264,751,cs),
(84,751,ls),
(75,751,o),
(68,744,o),
(68,735,cs),
(68,16,ls),
(68,7,o),
(75,0,o),
(84,0,cs)
);
},
{
closed = 1;
nodes = (
(98,722,l),
(264,722,ls),
(456,722,o),
(580,590,o),
(580,375,cs),
(580,160,o),
(456,29,o),
(264,29,cs),
(98,29,l)
);
}
);
width = 658;
},
{
anchors = (
{
name = _bottom;
pos = (339,0);
},
{
name = _top;
pos = (339,751);
},
{
name = top;
pos = (339,751);
}
);
associatedMasterId = "12AF635E-66FE-4C90-B49C-8787585F2B73";
background = {
hints = (
{
horizontal = 1;
place = (-15,30);
type = Stem;
},
{
horizontal = 1;
place = (721,30);
type = Stem;
},
{
place = (93,30);
type = Stem;
},
{
place = (609,30);
type = Stem;
}
);
shapes = (
{
closed = 1;
nodes = (
(93,0,ls),
(93,-10,o),
(98,-15,o),
(108,-15,cs),
(257,-15,ls),
(386,-15,o),
(488,26,o),
(548,97,cs),
(608,167,o),
(639,260,o),
(639,368,cs),
(639,478,o),
(610,568,o),
(550,639,cs),
(491,709,o),
(389,751,o),
(257,751,cs),
(108,751,ls),
(99,751,o),
(93,745,o),
(93,736,cs)
);
},
{
closed = 1;
nodes = (
(123,15,l),
(123,721,l),
(257,721,ls),
(381,721,o),
(475,683,o),
(529,616,cs),
(583,550,o),
(609,468,o),
(609,368,cs),
(609,269,o),
(583,186,o),
(527,119,cs),
(472,53,o),
(378,15,o),
(257,15,cs)
);
}
);
};
layerId = "51CC7EDA-BE15-4C4A-B2EC-6E70C4E9B52C";
name = "17 août 23 à 16:08";
shapes = (
{
closed = 1;
nodes = (
(268,751,ls),
(476,751,o),
(644,583,o),
(644,375,cs),
(644,167,o),
(476,0,o),
(268,0,cs),
(100,0,l),
(100,751,l)
);
}
);
width = 679;
},
{
anchors = (
{
name = bottom;
pos = (376,0);
},
{
name = center;
pos = (376,375);
},
{
name = top;
pos = (329,751);
}
);
background = {
hints = (
{
horizontal = 1;
place = (-15,30);
type = Stem;
},
{
horizontal = 1;
place = (721,30);
type = Stem;
},
{
place = (93,30);
type = Stem;
},
{
place = (609,30);
type = Stem;
}
);
shapes = (
{
closed = 1;
nodes = (
(62,0,ls),
(62,-10,o),
(66,-15,o),
(77,-15,cs),
(226,-15,ls),
(355,-15,o),
(457,26,o),
(517,97,cs),
(577,167,o),
(608,260,o),
(608,368,cs),
(608,478,o),
(579,568,o),
(519,639,cs),
(460,709,o),
(358,751,o),
(226,751,cs),
(77,751,ls),
(67,751,o),
(62,745,o),
(62,736,cs)
);
},
{
closed = 1;
nodes = (
(92,15,l),
(92,721,l),
(226,721,ls),
(350,721,o),
(444,683,o),
(498,616,cs),
(552,550,o),
(578,468,o),
(578,368,cs),
(578,269,o),
(551,186,o),
(496,119,cs),
(441,53,o),
(347,15,o),
(226,15,cs)
);
}
);
};
layerId = m004;
shapes = (
{
closed = 1;
nodes = (
(359,0,ls),
(564,0,o),
(704,148,o),
(704,375,cs),
(704,602,o),
(564,751,o),
(359,751,cs),
(128,751,ls),
(93,751,o),
(68,726,o),
(68,691,cs),
(68,60,ls),
(68,25,o),
(93,0,o),
(128,0,cs)
);
},
{
closed = 1;
nodes = (
(205,614,l),
(359,614,ls),
(505,614,o),
(567,548,o),
(567,375,cs),
(567,203,o),
(505,137,o),
(359,137,cs),
(205,137,l)
);
}
);
width = 753;
},
{
anchors = (
{
name = _bottom;
pos = (339,0);
},
{
name = _top;
pos = (339,751);
},
{
name = top;
pos = (339,751);
}
);
associatedMasterId = m004;
background = {
hints = (
{
horizontal = 1;
place = (-15,30);
type = Stem;
},
{
horizontal = 1;
place = (721,30);
type = Stem;
},
{
place = (93,30);
type = Stem;
},
{
place = (609,30);
type = Stem;
}
);
shapes = (
{
closed = 1;
nodes = (
(93,0,ls),
(93,-10,o),
(98,-15,o),
(108,-15,cs),
(257,-15,ls),
(386,-15,o),
(488,26,o),
(548,97,cs),
(608,167,o),
(639,260,o),
(639,368,cs),
(639,478,o),
(610,568,o),
(550,639,cs),
(491,709,o),
(389,751,o),
(257,751,cs),
(108,751,ls),
(99,751,o),
(93,745,o),
(93,736,cs)
);
},
{
closed = 1;
nodes = (
(123,15,l),
(123,721,l),
(257,721,ls),
(381,721,o),
(475,683,o),
(529,616,cs),
(583,550,o),
(609,468,o),
(609,368,cs),
(609,269,o),
(583,186,o),
(527,119,cs),
(472,53,o),
(378,15,o),
(257,15,cs)
);
}
);
};
layerId = "140CF33D-A32C-4E14-9C58-839BCE2BA2D8";
name = "17 août 23 à 16:08";
shapes = (
{
closed = 1;
nodes = (
(268,751,ls),
(476,751,o),
(644,583,o),
(644,375,cs),
(644,167,o),
(476,0,o),
(268,0,cs),
(100,0,l),
(100,751,l)
);
}
);
width = 679;
},
{
anchors = (
{
name = _bottom;
pos = (339,0);
},
{
name = _top;
pos = (339,751);
},
{
name = top;
pos = (339,751);
}
);
associatedMasterId = m004;
background = {
hints = (
{
horizontal = 1;
place = (-15,30);
type = Stem;
},
{
horizontal = 1;
place = (721,30);
type = Stem;
},
{
place = (93,30);
type = Stem;
},
{
place = (609,30);
type = Stem;
}
);
shapes = (
{
closed = 1;
nodes = (
(93,0,ls),
(93,-10,o),
(98,-15,o),
(108,-15,cs),
(257,-15,ls),
(386,-15,o),
(488,26,o),
(548,97,cs),
(608,167,o),
(639,260,o),
(639,368,cs),
(639,478,o),
(610,568,o),
(550,639,cs),
(491,709,o),
(389,751,o),
(257,751,cs),
(108,751,ls),
(99,751,o),
(93,745,o),
(93,736,cs)
);
},
{
closed = 1;
nodes = (
(123,15,l),
(123,721,l),
(257,721,ls),
(381,721,o),
(475,683,o),
(529,616,cs),
(583,550,o),
(609,468,o),
(609,368,cs),
(609,269,o),
(583,186,o),
(527,119,cs),
(472,53,o),
(378,15,o),
(257,15,cs)
);
}
);
};
layerId = "44EA250F-3516-41A0-9DD0-79C3BB3544B2";
name = "17 août 23 à 23:03";
shapes = (
{
closed = 1;
nodes = (
(295,751,ls),
(500,751,o),
(640,602,o),
(640,375,cs),
(640,148,o),
(500,0,o),
(295,0,cs),
(100,0,l),
(100,751,l)
);
}
);
width = 679;
},
{
anchors = (
{
name = _bottom;
pos = (339,0);
},
{
name = _top;
pos = (339,751);
},
{
name = top;
pos = (339,751);
}
);
associatedMasterId = "12AF635E-66FE-4C90-B49C-8787585F2B73";
background = {
hints = (
{
horizontal = 1;
place = (-15,30);
type = Stem;
},
{
horizontal = 1;
place = (721,30);
type = Stem;
},
{
place = (93,30);
type = Stem;
},
{
place = (609,30);
type = Stem;
}
);
shapes = (
{
closed = 1;
nodes = (
(93,0,ls),
(93,-10,o),
(98,-15,o),
(108,-15,cs),
(257,-15,ls),
(386,-15,o),
(488,26,o),
(548,97,cs),
(608,167,o),
(639,260,o),
(639,368,cs),
(639,478,o),
(610,568,o),
(550,639,cs),
(491,709,o),
(389,751,o),
(257,751,cs),
(108,751,ls),
(99,751,o),
(93,745,o),
(93,736,cs)
);
},
{
closed = 1;
nodes = (
(123,15,l),
(123,721,l),
(257,721,ls),
(381,721,o),
(475,683,o),
(529,616,cs),
(583,550,o),
(609,468,o),
(609,368,cs),
(609,269,o),
(583,186,o),
(527,119,cs),
(472,53,o),
(378,15,o),
(257,15,cs)
);
}
);
};
layerId = "6D1D00E6-B499-4642-93EC-03C7C0A3F965";
name = "17 août 23 à 23:03";
shapes = (
{
closed = 1;
nodes = (
(295,751,ls),
(500,751,o),
(640,602,o),
(640,375,cs),
(640,148,o),
(500,0,o),
(295,0,cs),
(100,0,l),
(100,751,l)
);
}
);
width = 679;
}
);
note = D;
unicode = 68;
},
{
glyphname = Eth;
kernRight = O;
lastChange = "2023-09-15 13:26:36 +0000";
layers = (
{
layerId = "12AF635E-66FE-4C90-B49C-8787585F2B73";
shapes = (
{
closed = 1;
nodes = (
(298,385,ls),
(306,385,o),
(313,391,o),
(313,399,cs),
(313,408,o),
(306,414,o),
(298,414,cs),
(34,414,ls),
(26,414,o),
(20,408,o),
(20,399,cs),
(20,391,o),
(26,385,o),
(34,385,cs)
);
},
{
pos = (3,0);
ref = D;
}
);
width = 661;
},
{
layerId = m004;
shapes = (
{
closed = 1;
nodes = (
(352,342,ls),
(389,342,o),
(420,373,o),
(420,410,cs),
(420,448,o),
(389,479,o),
(352,479,cs),
(88,479,ls),
(50,479,o),
(20,448,o),
(20,410,cs),
(20,373,o),
(50,342,o),
(88,342,cs)
);
},
{
pos = (14,0);
ref = D;
}
);
width = 767;
}
);
metricRight = D;
unicode = 208;
},
{
glyphname = E;
kernLeft = H;
kernRight = E;
lastChange = "2023-09-15 13:26:36 +0000";
layers = (
{
anchors = (
{
name = bottom;
pos = (285,0);
},
{
name = ogonek;
pos = (495,5);
},
{
name = top;
pos = (323,751);
},
{
name = topleft;
pos = (10,751);
}
);
background = {
hints = (
{
horizontal = 1;
place = (-15,30);
type = Stem;
},
{
horizontal = 1;
place = (271,30);
type = Stem;
},
{
horizontal = 1;
place = (721,30);
type = Stem;
},
{
place = (84,30);
type = Stem;
}
);
shapes = (
{
closed = 1;
nodes = (
(67,0,ls),
(67,-10,o),
(72,-15,o),
(83,-15,cs),
(532,-15,ls),
(542,-15,o),
(547,-10,o),
(547,0,cs),
(547,10,o),
(542,15,o),
(532,15,cs),
(97,15,l),
(97,271,l),
(532,271,ls),
(542,271,o),
(547,276,o),
(547,286,cs),
(547,296,o),
(542,301,o),
(532,301,cs),
(118,301,l),
(543,725,ls),
(546,728,o),
(548,731,o),
(548,735,cs),
(548,737,o),
(547,739,o),
(546,742,cs),
(543,748,o),
(539,751,o),
(532,751,cs),
(83,751,ls),
(72,751,o),
(67,746,o),
(67,736,cs)
);
},
{
closed = 1;
nodes = (
(497,721,l),
(97,322,l),
(97,721,l)
);
}
);
};
layerId = "12AF635E-66FE-4C90-B49C-8787585F2B73";
shapes = (
{
closed = 1;
nodes = (
(553,0,ls),
(562,0,o),
(568,6,o),
(568,15,cs),
(568,23,o),
(562,29,o),
(553,29,cs),
(98,29,l),
(98,722,l),
(512,722,l),
(70,280,l),
(70,281,l),
(534,281,ls),
(542,281,o),
(548,287,o),
(548,295,cs),
(548,304,o),
(542,310,o),
(534,310,cs),
(141,310,l),
(545,714,ls),
(560,729,o),
(550,751,o),
(529,751,cs),
(84,751,ls),
(75,751,o),
(68,744,o),
(68,735,cs),
(68,16,ls),
(68,7,o),
(75,0,o),
(84,0,cs)
);
}
);
width = 626;
},
{
anchors = (
{
name = bottom;
pos = (345,0);
},
{
name = ogonek;
pos = (522,52);
},
{
name = top;
pos = (348,751);
},
{
name = topleft;
pos = (10,751);
}
);
background = {
hints = (
{
horizontal = 1;
place = (-15,30);
type = Stem;
},
{
horizontal = 1;
place = (271,30);
type = Stem;
},
{
horizontal = 1;
place = (721,30);
type = Stem;
},
{
place = (84,30);
type = Stem;
}
);
shapes = (
{
closed = 1;
nodes = (
(121,0,ls),
(121,-10,o),
(126,-15,o),
(136,-15,cs),
(586,-15,ls),
(596,-15,o),
(601,-10,o),
(601,0,cs),
(601,10,o),
(596,15,o),
(586,15,cs),
(151,15,l),
(151,271,l),
(586,271,ls),
(596,271,o),
(601,276,o),
(601,286,cs),
(601,296,o),
(596,301,o),
(586,301,cs),
(172,301,l),
(597,725,ls),
(600,728,o),
(602,731,o),
(602,735,cs),
(602,737,o),
(601,739,o),
(600,742,cs),
(597,748,o),
(592,751,o),
(586,751,cs),
(136,751,ls),
(126,751,o),
(121,746,o),
(121,736,cs)
);
},
{
closed = 1;
nodes = (
(550,721,l),
(151,322,l),
(151,721,l)
);
}
);
};
layerId = m004;
shapes = (
{
closed = 1;
nodes = (
(591,0,ls),
(628,0,o),
(659,31,o),
(659,68,cs),
(659,106,o),
(628,137,o),
(591,137,cs),
(205,137,l),
(205,614,l),
(436,614,l),
(70,245,l),
(70,278,l),
(582,276,ls),
(619,276,o),
(650,307,o),
(650,344,cs),
(650,382,o),
(619,412,o),
(582,413,cs),
(435,415,l),
(625,608,ls),
(683,667,o),
(647,751,o),
(565,751,cs),
(128,751,ls),
(93,751,o),
(68,726,o),
(68,691,cs),
(68,60,ls),
(68,25,o),
(93,0,o),
(128,0,cs)
);
}
);
width = 718;
},
{
anchors = (
{
name = _bottom;
pos = (335,0);
},
{
name = _top;
pos = (335,751);
},
{
name = top;
pos = (335,751);
}
);
associatedMasterId = "12AF635E-66FE-4C90-B49C-8787585F2B73";
background = {
hints = (
{
horizontal = 1;
place = (-15,30);
type = Stem;
},
{
horizontal = 1;
place = (271,30);
type = Stem;
},
{
horizontal = 1;
place = (721,30);
type = Stem;
},
{
place = (84,30);
type = Stem;
}
);
shapes = (
{
closed = 1;
nodes = (
(84,0,ls),
(84,-10,o),
(89,-15,o),
(99,-15,cs),
(549,-15,ls),
(559,-15,o),
(564,-10,o),
(564,0,cs),
(564,10,o),
(559,15,o),
(549,15,cs),
(114,15,l),
(114,271,l),
(549,271,ls),
(559,271,o),
(564,276,o),
(564,286,cs),
(564,296,o),
(559,301,o),
(549,301,cs),
(135,301,l),
(560,725,ls),
(563,728,o),
(564,731,o),
(564,735,cs),
(564,737,o),
(564,739,o),
(563,742,cs),
(560,748,o),
(555,751,o),
(549,751,cs),
(99,751,ls),
(89,751,o),
(84,746,o),
(84,736,cs)
);
},
{
closed = 1;
nodes = (
(513,721,l),
(114,322,l),
(114,721,l)
);
}
);
};
layerId = "5AC490D1-C3F3-4CD4-AA60-2B3C3B0708F0";
name = "17 août 23 à 23:04";
shapes = (
{
closed = 0;
nodes = (
(583,0,l),
(100,0,l),
(100,751,l),
(563,751,l),
(100,287,l),
(560,287,l)
);
}
);
width = 670;
},
{
anchors = (
{
name = _bottom;
pos = (335,0);
},
{
name = _top;
pos = (335,751);
},
{
name = top;
pos = (335,751);
}
);
associatedMasterId = m004;
background = {
hints = (
{
horizontal = 1;
place = (-15,30);
type = Stem;
},
{
horizontal = 1;
place = (271,30);
type = Stem;
},
{
horizontal = 1;
place = (721,30);
type = Stem;
},
{
place = (84,30);
type = Stem;
}
);
shapes = (
{
closed = 1;
nodes = (
(84,0,ls),
(84,-10,o),
(89,-15,o),
(99,-15,cs),
(549,-15,ls),
(559,-15,o),
(564,-10,o),
(564,0,cs),
(564,10,o),
(559,15,o),
(549,15,cs),
(114,15,l),
(114,271,l),
(549,271,ls),
(559,271,o),
(564,276,o),
(564,286,cs),
(564,296,o),
(559,301,o),
(549,301,cs),
(135,301,l),
(560,725,ls),
(563,728,o),
(564,731,o),
(564,735,cs),
(564,737,o),
(564,739,o),
(563,742,cs),
(560,748,o),
(555,751,o),
(549,751,cs),
(99,751,ls),
(89,751,o),
(84,746,o),
(84,736,cs)
);
},
{
closed = 1;
nodes = (
(513,721,l),
(114,322,l),
(114,721,l)
);
}
);
};
layerId = "8E9FB247-D6ED-4B84-9A69-9B7AC8E2CFF2";
name = "17 août 23 à 23:04";
shapes = (
{
closed = 0;
nodes = (
(583,0,l),
(100,0,l),
(100,751,l),
(563,751,l),
(100,287,l),
(560,287,l)
);
}
);
width = 670;
}
);
note = E;
unicode = 69;
},
{
glyphname = F;
kernLeft = H;
kernRight = F;
lastChange = "2023-09-15 13:26:36 +0000";
layers = (
{
anchors = (
{
name = bottom;
pos = (301,0);
},
{
name = top;
pos = (301,751);
}
);
background = {
hints = (
{
horizontal = 1;
place = (-15,21);
target = up;
type = BottomGhost;
},
{
horizontal = 1;
place = (271,30);
type = Stem;
},
{
horizontal = 1;
place = (721,30);
type = Stem;
},
{
place = (84,30);
type = Stem;
}
);
shapes = (
{
closed = 1;
nodes = (
(67,0,ls),
(67,-10,o),
(72,-15,o),
(82,-15,cs),
(92,-15,o),
(97,-10,o),
(97,0,cs),
(97,271,l),
(532,271,ls),
(542,271,o),
(547,276,o),
(547,286,cs),
(547,296,o),
(542,301,o),
(532,301,cs),
(118,301,l),
(543,725,ls),
(546,728,o),
(548,731,o),
(548,735,cs),
(548,737,o),
(547,739,o),
(546,742,cs),
(543,748,o),
(539,751,o),
(532,751,cs),
(83,751,ls),
(72,751,o),
(67,746,o),
(67,736,cs)
);
},
{
closed = 1;
nodes = (
(497,721,l),
(97,322,l),
(97,721,l)
);
}
);
};
layerId = "12AF635E-66FE-4C90-B49C-8787585F2B73";
shapes = (
{
closed = 1;
nodes = (
(91,-1,o),
(98,5,o),
(98,13,cs),
(98,722,l),
(512,722,l),
(70,280,l),
(70,282,l),
(535,282,ls),
(543,282,o),
(549,289,o),
(549,297,cs),
(549,305,o),
(543,312,o),
(535,312,cs),
(143,312,l),
(545,714,ls),
(560,729,o),
(550,751,o),
(529,751,cs),
(84,751,ls),
(75,751,o),
(68,744,o),
(68,735,cs),
(68,13,ls),
(68,5,o),
(75,-1,o),
(83,-1,cs)
);
}
);
width = 611;
},
{
anchors = (
{
name = bottom;
pos = (350,0);
},
{
name = top;
pos = (350,751);
}
);
background = {
hints = (
{
horizontal = 1;
place = (-15,21);
target = up;
type = BottomGhost;
},
{
horizontal = 1;
place = (271,30);
type = Stem;
},
{
horizontal = 1;
place = (721,30);
type = Stem;
},
{
place = (84,30);
type = Stem;
}
);
shapes = (
{
closed = 1;
nodes = (
(121,0,ls),
(121,-10,o),
(126,-15,o),
(136,-15,cs),
(146,-15,o),
(151,-10,o),
(151,0,cs),
(151,271,l),
(586,271,ls),
(596,271,o),
(601,276,o),
(601,286,cs),
(601,296,o),
(596,301,o),
(586,301,cs),
(172,301,l),
(597,725,ls),
(600,728,o),
(602,731,o),
(602,735,cs),
(602,737,o),
(601,739,o),
(600,742,cs),
(597,748,o),
(592,751,o),
(586,751,cs),
(136,751,ls),
(126,751,o),
(121,746,o),
(121,736,cs)
);
},
{
closed = 1;
nodes = (
(550,721,l),
(151,322,l),
(151,721,l)
);
}
);
};
layerId = m004;
shapes = (
{
closed = 1;
nodes = (
(174,0,o),
(205,31,o),
(205,68,cs),
(205,614,l),
(436,614,l),
(85,264,l),
(85,280,l),
(551,282,ls),
(604,282,o),
(635,305,o),
(635,348,cs),
(635,386,o),
(604,417,o),
(566,417,cs),
(431,417,l),
(622,607,ls),
(680,666,o),
(644,751,o),
(562,751,cs),
(128,751,ls),
(93,751,o),
(68,726,o),
(68,691,cs),
(68,68,ls),
(68,31,o),
(99,0,o),
(137,0,cs)
);
}
);
width = 709;
},
{
anchors = (
{
name = _bottom;
pos = (335,0);
},
{
name = _top;
pos = (335,751);
},
{
name = top;
pos = (335,751);
}
);
associatedMasterId = "12AF635E-66FE-4C90-B49C-8787585F2B73";
background = {
hints = (
{
horizontal = 1;
place = (-15,21);
target = up;
type = BottomGhost;
},
{
horizontal = 1;
place = (271,30);
type = Stem;
},
{
horizontal = 1;
place = (721,30);
type = Stem;
},
{
place = (84,30);
type = Stem;
}
);
shapes = (
{
closed = 1;
nodes = (
(84,0,ls),
(84,-10,o),
(89,-15,o),
(99,-15,cs),
(109,-15,o),
(114,-10,o),
(114,0,cs),
(114,271,l),
(549,271,ls),
(559,271,o),
(564,276,o),
(564,286,cs),
(564,296,o),
(559,301,o),
(549,301,cs),
(135,301,l),
(560,725,ls),
(563,728,o),
(564,731,o),
(564,735,cs),
(564,737,o),
(564,739,o),
(563,742,cs),
(560,748,o),
(555,751,o),
(549,751,cs),
(99,751,ls),
(89,751,o),
(84,746,o),
(84,736,cs)
);
},
{
closed = 1;
nodes = (
(513,721,l),
(114,322,l),
(114,721,l)
);
}
);
};
layerId = "528D6580-132F-4E13-8998-DBED0BB790A5";
name = "17 août 23 à 23:10";
shapes = (
{
closed = 0;
nodes = (
(100,0,l),
(100,751,l),
(563,751,l),
(100,287,l),
(560,287,l)
);
}
);
width = 670;
},
{
anchors = (
{
name = _bottom;
pos = (335,0);
},
{
name = _top;
pos = (335,751);
},
{
name = top;
pos = (335,751);
}
);
associatedMasterId = m004;
background = {
hints = (
{
horizontal = 1;
place = (-15,21);
target = up;
type = BottomGhost;
},
{
horizontal = 1;
place = (271,30);
type = Stem;
},
{
horizontal = 1;
place = (721,30);
type = Stem;
},
{
place = (84,30);
type = Stem;
}
);
shapes = (
{
closed = 1;
nodes = (
(84,0,ls),
(84,-10,o),
(89,-15,o),
(99,-15,cs),
(109,-15,o),
(114,-10,o),
(114,0,cs),
(114,271,l),
(549,271,ls),
(559,271,o),
(564,276,o),
(564,286,cs),
(564,296,o),
(559,301,o),
(549,301,cs),
(135,301,l),
(560,725,ls),
(563,728,o),
(564,731,o),
(564,735,cs),
(564,737,o),
(564,739,o),
(563,742,cs),
(560,748,o),
(555,751,o),
(549,751,cs),
(99,751,ls),
(89,751,o),
(84,746,o),
(84,736,cs)
);
},
{
closed = 1;
nodes = (
(513,721,l),
(114,322,l),
(114,721,l)
);
}
);
};
layerId = "C254EF2B-1529-47D8-9958-A8C7B1E6B125";
name = "17 août 23 à 23:10";
shapes = (
{
closed = 0;
nodes = (
(100,0,l),
(100,751,l),
(563,751,l),
(100,287,l),
(560,287,l)
);
}
);
width = 670;
}
);
note = F;
unicode = 70;
},
{
glyphname = G;
kernLeft = O;
kernRight = G;
lastChange = "2023-09-15 13:42:33 +0000";
layers = (
{
anchors = (
{
name = bottom;
pos = (439,0);
},
{
name = top;
pos = (439,751);
}
);
background = {
hints = (
{
horizontal = 1;
place = (-16,30);
type = Stem;
},
{
horizontal = 1;
place = (353,30);
type = Stem;
},
{
horizontal = 1;
place = (723,30);
type = Stem;
},
{
place = (62,30);
type = Stem;
},
{
place = (792,30);
type = Stem;
}
);
shapes = (
{
closed = 1;
nodes = (
(773,-11,ls),
(780,-18,o),
(787,-18,o),
(793,-10,cs),
(801,-3,o),
(800,4,o),
(793,11,cs),
(708,94,l),
(723,109,o),
(737,126,o),
(750,144,cs),
(798,211,o),
(822,286,o),
(822,368,cs),
(822,377,o),
(816,383,o),
(807,383,cs),
(403,383,ls),
(396,383,o),
(392,380,o),
(389,374,cs),
(387,368,o),
(388,362,o),
(393,358,c),
(664,94,l),
(601,41,o),
(529,14,o),
(447,14,cs),
(382,14,o),
(323,30,o),
(269,62,cs),
(214,93,o),
(171,136,o),
(139,190,cs),
(107,245,o),
(92,304,o),
(92,368,cs),
(92,433,o),
(107,492,o),
(139,546,cs),
(171,601,o),
(214,644,o),
(268,675,cs),
(322,707,o),
(382,723,o),
(447,723,cs),
(491,723,o),
(534,715,o),
(575,698,cs),
(616,682,o),
(651,661,o),
(681,634,cs),
(688,627,o),
(695,627,o),
(702,635,cs),
(709,642,o),
(708,649,o),
(701,656,cs),
(668,686,o),
(629,710,o),
(585,727,cs),
(541,744,o),
(495,753,o),
(447,753,cs),
(377,753,o),
(313,736,o),
(253,701,cs),
(194,667,o),
(148,621,o),
(113,562,cs),
(79,502,o),
(62,438,o),
(62,369,cs),
(62,299,o),
(79,234,o),
(113,175,cs),
(148,116,o),
(194,70,o),
(253,35,cs),
(313,1,o),
(377,-16,o),
(447,-16,cs),
(538,-16,o),
(617,14,o),
(686,73,c)
);
},
{
closed = 1;
nodes = (
(440,353,l),
(792,353,l),
(789,283,o),
(767,219,o),
(726,162,cs),
(713,145,o),
(700,129,o),
(686,115,c)
);
}
);
};
layerId = m004;
shapes = (
{
closed = 1;
nodes = (
(653,-15,o),
(827,156,o),
(830,369,cs),
(830,405,o),
(801,438,o),
(761,438,cs),
(724,438,o),
(693,408,o),
(693,371,cs),
(691,214,o),
(597,122,o),
(439,122,cs),
(280,122,o),
(186,215,o),
(186,375,cs),
(186,534,o),
(280,629,o),
(439,629,cs),
(519,629,o),
(566,607,o),
(619,554,cs),
(631,542,o),
(648,534,o),
(667,534,cs),
(706,534,o),
(736,564,o),
(736,602,cs),
(736,621,o),
(729,638,o),
(716,650,cs),
(646,721,o),
(548,766,o),
(439,766,cs),
(223,766,o),
(49,590,o),
(49,375,cs),
(49,159,o),
(223,-15,o),
(439,-15,cs)
);
},
{
closed = 1;
nodes = (
(765,-26,o),
(795,4,o),
(795,42,cs),
(795,62,o),
(787,81,o),
(773,93,cs),
(539,302,l),
(761,302,ls),
(799,302,o),
(830,333,o),
(830,370,cs),
(830,408,o),
(799,438,o),
(761,438,cs),
(411,438,ls),
(323,438,o),
(287,345,o),
(353,286,cs),
(681,-9,ls),
(693,-20,o),
(709,-26,o),
(727,-26,cs)
);
}
);
width = 878;
},
{
anchors = (
{
name = _bottom;
pos = (451,0);
},
{
name = _top;
pos = (451,751);
},
{
name = top;
pos = (451,751);
}
);
associatedMasterId = m004;
background = {
hints = (
{
horizontal = 1;
place = (-16,30);
type = Stem;
},
{
horizontal = 1;
place = (353,30);
type = Stem;
},
{
horizontal = 1;
place = (723,30);
type = Stem;
},
{
place = (62,30);
type = Stem;
},
{
place = (792,30);
type = Stem;
}
);
shapes = (
{
closed = 1;
nodes = (
(773,-11,ls),
(780,-18,o),
(787,-18,o),
(793,-10,cs),
(801,-3,o),
(800,4,o),
(793,11,cs),
(708,94,l),
(723,109,o),
(737,126,o),
(750,144,cs),
(798,211,o),
(822,286,o),
(822,368,cs),
(822,377,o),
(816,383,o),
(807,383,cs),
(403,383,ls),
(396,383,o),
(392,380,o),
(389,374,cs),
(387,368,o),
(388,362,o),
(393,358,c),
(664,94,l),
(601,41,o),
(529,14,o),
(447,14,cs),
(382,14,o),
(323,30,o),
(269,62,cs),
(214,93,o),
(171,136,o),
(139,190,cs),
(107,245,o),
(92,304,o),
(92,368,cs),
(92,433,o),
(107,492,o),
(139,546,cs),
(171,601,o),
(214,644,o),
(268,675,cs),
(322,707,o),
(382,723,o),
(447,723,cs),
(491,723,o),
(534,715,o),
(575,698,cs),
(616,682,o),
(651,661,o),
(681,634,cs),
(688,627,o),
(695,627,o),
(702,635,cs),
(709,642,o),
(708,649,o),
(701,656,cs),
(668,686,o),
(629,710,o),
(585,727,cs),
(541,744,o),
(495,753,o),
(447,753,cs),
(377,753,o),
(313,736,o),
(253,701,cs),
(194,667,o),
(148,621,o),
(113,562,cs),
(79,502,o),
(62,438,o),
(62,369,cs),
(62,299,o),
(79,234,o),
(113,175,cs),
(148,116,o),
(194,70,o),
(253,35,cs),
(313,1,o),
(377,-16,o),
(447,-16,cs),
(538,-16,o),
(617,14,o),
(686,73,c)
);
},
{
closed = 1;
nodes = (
(440,353,l),
(792,353,l),
(789,283,o),
(767,219,o),
(726,162,cs),
(713,145,o),
(700,129,o),
(686,115,c)
);
}
);
};
layerId = "D72E8596-168C-4264-9BF6-1BCB54B9617F";
name = "17 août 23 à 23:17";
shapes = (
{
closed = 0;
nodes = (
(716,650,l),
(646,721,o),
(548,766,o),
(439,766,cs),
(223,766,o),
(49,590,o),
(49,375,cs),
(49,159,o),
(223,-15,o),
(439,-15,cs),
(653,-15,o),
(827,156,o),
(830,369,c),
(404,369,l),
(773,0,l)
);
}
);
width = 902;
},
{
anchors = (
{
name = _bottom;
pos = (451,0);
},
{
name = _top;
pos = (451,751);
},
{
name = top;
pos = (451,751);
}
);
associatedMasterId = m004;
background = {
hints = (
{
horizontal = 1;
place = (-16,30);
type = Stem;
},
{
horizontal = 1;
place = (353,30);
type = Stem;
},
{
horizontal = 1;
place = (723,30);
type = Stem;
},
{
place = (62,30);
type = Stem;
},
{
place = (792,30);
type = Stem;
}
);
shapes = (
{
closed = 1;
nodes = (
(773,-11,ls),
(780,-18,o),
(787,-18,o),
(793,-10,cs),
(801,-3,o),
(800,4,o),
(793,11,cs),
(708,94,l),
(723,109,o),
(737,126,o),
(750,144,cs),
(798,211,o),
(822,286,o),
(822,368,cs),
(822,377,o),
(816,383,o),
(807,383,cs),
(403,383,ls),
(396,383,o),
(392,380,o),
(389,374,cs),
(387,368,o),
(388,362,o),
(393,358,c),
(664,94,l),
(601,41,o),
(529,14,o),
(447,14,cs),
(382,14,o),
(323,30,o),
(269,62,cs),
(214,93,o),
(171,136,o),
(139,190,cs),
(107,245,o),
(92,304,o),
(92,368,cs),
(92,433,o),
(107,492,o),
(139,546,cs),
(171,601,o),
(214,644,o),
(268,675,cs),
(322,707,o),
(382,723,o),
(447,723,cs),
(491,723,o),
(534,715,o),
(575,698,cs),
(616,682,o),
(651,661,o),
(681,634,cs),
(688,627,o),
(695,627,o),
(702,635,cs),
(709,642,o),
(708,649,o),
(701,656,cs),
(668,686,o),
(629,710,o),
(585,727,cs),
(541,744,o),
(495,753,o),
(447,753,cs),
(377,753,o),
(313,736,o),
(253,701,cs),
(194,667,o),
(148,621,o),
(113,562,cs),
(79,502,o),
(62,438,o),
(62,369,cs),
(62,299,o),
(79,234,o),
(113,175,cs),
(148,116,o),
(194,70,o),
(253,35,cs),
(313,1,o),
(377,-16,o),
(447,-16,cs),
(538,-16,o),
(617,14,o),
(686,73,c)
);
},
{
closed = 1;
nodes = (
(440,353,l),
(792,353,l),
(789,283,o),
(767,219,o),
(726,162,cs),
(713,145,o),
(700,129,o),
(686,115,c)
);
}
);
};
layerId = "B1DF5033-7FF4-4C1F-A100-9E00C2B2EA2D";
name = "17 août 23 à 23:23";
shapes = (
{
closed = 1;
nodes = (
(884,83,o),
(891,66,o),
(891,47,cs),
(891,10,o),
(860,-21,o),
(823,-21,cs),
(803,-21,o),
(786,-13,o),
(773,0,cs),
(479,305,ls),
(423,363,o),
(459,446,o),
(540,446,cs),
(767,446,ls),
(803,446,o),
(830,419,o),
(827,382,cs),
(804,114,o),
(638,-15,o),
(439,-15,cs),
(223,-15,o),
(49,159,o),
(49,375,cs),
(49,590,o),
(223,766,o),
(439,766,cs),
(548,766,o),
(646,721,o),
(716,650,cs),
(729,638,o),
(736,621,o),
(736,602,cs),
(736,564,o),
(706,534,o),
(667,534,cs),
(648,534,o),
(631,542,o),
(619,554,cs),
(566,607,o),
(519,629,o),
(439,629,cs),
(280,629,o),
(186,534,o),
(186,375,cs),
(186,215,o),
(280,122,o),
(439,122,cs),
(568,122,o),
(651,169,o),
(681,310,c),
(665,310,l),
(872,95,ls)
);
}
);
width = 902;
},
{
anchors = (
{
name = _bottom;
pos = (451,0);
},
{
name = _top;
pos = (451,751);
},
{
name = top;
pos = (451,751);
}
);
associatedMasterId = "12AF635E-66FE-4C90-B49C-8787585F2B73";
background = {
hints = (
{
horizontal = 1;
place = (-16,30);
type = Stem;
},
{
horizontal = 1;
place = (353,30);
type = Stem;
},
{
horizontal = 1;
place = (723,30);
type = Stem;
},
{
place = (62,30);
type = Stem;
},
{
place = (792,30);
type = Stem;
}
);
shapes = (
{
closed = 1;
nodes = (
(773,-11,ls),
(780,-18,o),
(787,-18,o),
(793,-10,cs),
(801,-3,o),
(800,4,o),
(793,11,cs),
(708,94,l),
(723,109,o),
(737,126,o),
(750,144,cs),
(798,211,o),
(822,286,o),
(822,368,cs),
(822,377,o),
(816,383,o),
(807,383,cs),
(403,383,ls),
(396,383,o),
(392,380,o),
(389,374,cs),
(387,368,o),
(388,362,o),
(393,358,c),
(664,94,l),
(601,41,o),
(529,14,o),
(447,14,cs),
(382,14,o),
(323,30,o),
(269,62,cs),
(214,93,o),
(171,136,o),
(139,190,cs),
(107,245,o),
(92,304,o),
(92,368,cs),
(92,433,o),
(107,492,o),
(139,546,cs),
(171,601,o),
(214,644,o),
(268,675,cs),
(322,707,o),
(382,723,o),
(447,723,cs),
(491,723,o),
(534,715,o),
(575,698,cs),
(616,682,o),
(651,661,o),
(681,634,cs),
(688,627,o),
(695,627,o),
(702,635,cs),
(709,642,o),
(708,649,o),
(701,656,cs),
(668,686,o),
(629,710,o),
(585,727,cs),
(541,744,o),
(495,753,o),
(447,753,cs),
(377,753,o),
(313,736,o),
(253,701,cs),
(194,667,o),
(148,621,o),
(113,562,cs),
(79,502,o),
(62,438,o),
(62,369,cs),
(62,299,o),
(79,234,o),
(113,175,cs),
(148,116,o),
(194,70,o),
(253,35,cs),
(313,1,o),
(377,-16,o),
(447,-16,cs),
(538,-16,o),
(617,14,o),
(686,73,c)
);
},
{
closed = 1;
nodes = (
(440,353,l),
(792,353,l),
(789,283,o),
(767,219,o),
(726,162,cs),
(713,145,o),
(700,129,o),
(686,115,c)
);
}
);
};
layerId = "081D73AD-A605-403F-8362-3AF93D5BB7E0";
name = "17 août 23 à 23:24";
shapes = (
{
closed = 1;
nodes = (
(788,27,o),
(789,24,o),
(789,20,cs),
(789,12,o),
(783,5,o),
(774,5,cs),
(771,5,o),
(767,7,o),
(764,9,cs),
(441,332,ls),
(426,347,o),
(436,369,o),
(457,369,cs),
(813,369,ls),
(823,369,o),
(830,362,o),
(829,353,cs),
(818,147,o),
(648,-15,o),
(439,-15,cs),
(223,-15,o),
(49,159,o),
(49,375,cs),
(49,590,o),
(223,766,o),
(439,766,cs),
(543,766,o),
(637,725,o),
(707,660,cs),
(709,657,o),
(711,653,o),
(711,649,cs),
(711,641,o),
(705,634,o),
(696,634,cs),
(692,634,o),
(689,636,o),
(687,638,cs),
(621,700,o),
(537,736,o),
(439,736,cs),
(235,736,o),
(78,578,o),
(78,375,cs),
(78,171,o),
(235,15,o),
(439,15,cs),
(631,15,o),
(782,153,o),
(799,340,c),
(475,340,l),
(785,30,ls)
);
}
);
width = 902;
},
{
anchors = (
{
name = _bottom;
pos = (451,0);
},
{
name = _top;
pos = (451,751);
},
{
name = top;
pos = (451,751);
}
);
associatedMasterId = "12AF635E-66FE-4C90-B49C-8787585F2B73";
background = {
hints = (
{
horizontal = 1;
place = (-16,30);
type = Stem;
},
{
horizontal = 1;
place = (353,30);
type = Stem;
},
{
horizontal = 1;
place = (723,30);
type = Stem;
},
{
place = (62,30);
type = Stem;
},
{
place = (792,30);
type = Stem;
}
);
shapes = (
{
closed = 1;
nodes = (
(773,-11,ls),
(780,-18,o),
(787,-18,o),
(793,-10,cs),
(801,-3,o),
(800,4,o),
(793,11,cs),
(708,94,l),
(723,109,o),
(737,126,o),
(750,144,cs),
(798,211,o),
(822,286,o),
(822,368,cs),
(822,377,o),
(816,383,o),
(807,383,cs),
(403,383,ls),
(396,383,o),
(392,380,o),
(389,374,cs),
(387,368,o),
(388,362,o),
(393,358,c),
(664,94,l),
(601,41,o),
(529,14,o),
(447,14,cs),
(382,14,o),
(323,30,o),
(269,62,cs),
(214,93,o),
(171,136,o),
(139,190,cs),
(107,245,o),
(92,304,o),
(92,368,cs),
(92,433,o),
(107,492,o),
(139,546,cs),
(171,601,o),
(214,644,o),
(268,675,cs),
(322,707,o),
(382,723,o),
(447,723,cs),
(491,723,o),
(534,715,o),
(575,698,cs),
(616,682,o),
(651,661,o),
(681,634,cs),
(688,627,o),
(695,627,o),
(702,635,cs),
(709,642,o),
(708,649,o),
(701,656,cs),
(668,686,o),
(629,710,o),
(585,727,cs),
(541,744,o),
(495,753,o),
(447,753,cs),
(377,753,o),
(313,736,o),
(253,701,cs),
(194,667,o),
(148,621,o),
(113,562,cs),
(79,502,o),
(62,438,o),
(62,369,cs),
(62,299,o),
(79,234,o),
(113,175,cs),
(148,116,o),
(194,70,o),
(253,35,cs),
(313,1,o),
(377,-16,o),
(447,-16,cs),
(538,-16,o),
(617,14,o),
(686,73,c)
);
},
{
closed = 1;
nodes = (
(440,353,l),
(792,353,l),
(789,283,o),
(767,219,o),
(726,162,cs),
(713,145,o),
(700,129,o),
(686,115,c)
);
}
);
};
layerId = "1EFF8700-76F8-4395-B57A-67CC7299E7FB";
name = "17 août 23 à 23:26";
shapes = (
{
closed = 1;
nodes = (
(452,340,l),
(799,340,l),
(782,153,o),
(631,15,o),
(439,15,cs),
(235,15,o),
(78,171,o),
(78,375,cs),
(78,578,o),
(235,736,o),
(439,736,cs),
(537,736,o),
(621,700,o),
(687,638,cs),
(689,636,o),
(692,634,o),
(696,634,cs),
(705,634,o),
(711,641,o),
(711,649,cs),
(711,653,o),
(709,657,o),
(707,660,cs),
(637,725,o),
(543,766,o),
(439,766,cs),
(223,766,o),
(49,590,o),
(49,375,cs),
(49,159,o),
(223,-15,o),
(439,-15,cs),
(653,-15,o),
(827,156,o),
(830,369,c),
(374,369,l),
(791,5,ls),
(793,3,o),
(797,1,o),
(800,1,cs),
(809,1,o),
(815,8,o),
(815,16,cs),
(815,21,o),
(813,24,o),
(810,27,cs)
);
}
);
width = 902;
},
{
anchors = (
{
name = bottom;
pos = (439,0);
},
{
name = top;
pos = (439,751);
}
);
background = {
hints = (
{
horizontal = 1;
place = (-16,30);
type = Stem;
},
{
horizontal = 1;
place = (353,30);
type = Stem;
},
{
horizontal = 1;
place = (723,30);
type = Stem;
},
{
place = (62,30);
type = Stem;
},
{
place = (792,30);
type = Stem;
}
);
shapes = (
{
closed = 1;
nodes = (
(773,-11,ls),
(780,-18,o),
(787,-18,o),
(793,-10,cs),
(801,-3,o),
(800,4,o),
(793,11,cs),
(708,94,l),
(723,109,o),
(737,126,o),
(750,144,cs),
(798,211,o),
(822,286,o),
(822,368,cs),
(822,377,o),
(816,383,o),
(807,383,cs),
(403,383,ls),
(396,383,o),
(392,380,o),
(389,374,cs),
(387,368,o),
(388,362,o),
(393,358,c),
(664,94,l),
(601,41,o),
(529,14,o),
(447,14,cs),
(382,14,o),
(323,30,o),
(269,62,cs),
(214,93,o),
(171,136,o),
(139,190,cs),
(107,245,o),
(92,304,o),
(92,368,cs),
(92,433,o),
(107,492,o),
(139,546,cs),
(171,601,o),
(214,644,o),
(268,675,cs),
(322,707,o),
(382,723,o),
(447,723,cs),
(491,723,o),
(534,715,o),
(575,698,cs),
(616,682,o),
(651,661,o),
(681,634,cs),
(688,627,o),
(695,627,o),
(702,635,cs),
(709,642,o),
(708,649,o),
(701,656,cs),
(668,686,o),
(629,710,o),
(585,727,cs),
(541,744,o),
(495,753,o),
(447,753,cs),
(377,753,o),
(313,736,o),
(253,701,cs),
(194,667,o),
(148,621,o),
(113,562,cs),
(79,502,o),
(62,438,o),
(62,369,cs),
(62,299,o),
(79,234,o),
(113,175,cs),
(148,116,o),
(194,70,o),
(253,35,cs),
(313,1,o),
(377,-16,o),
(447,-16,cs),
(538,-16,o),
(617,14,o),
(686,73,c)
);
},
{
closed = 1;
nodes = (
(440,353,l),
(792,353,l),
(789,283,o),
(767,219,o),
(726,162,cs),
(713,145,o),
(700,129,o),
(686,115,c)
);
}
);
};
layerId = "12AF635E-66FE-4C90-B49C-8787585F2B73";
name = Light;
shapes = (
{
closed = 1;
nodes = (
(649,-15,o),
(819,148,o),
(829,355,cs),
(830,364,o),
(823,371,o),
(814,371,cs),
(807,371,o),
(800,365,o),
(800,357,cs),
(791,162,o),
(637,15,o),
(439,15,cs),
(235,15,o),
(78,171,o),
(78,375,cs),
(78,578,o),
(235,736,o),
(439,736,cs),
(537,736,o),
(621,700,o),
(687,638,cs),
(689,636,o),
(692,634,o),
(696,634,cs),
(705,634,o),
(711,641,o),
(711,649,cs),
(711,653,o),
(709,657,o),
(707,660,cs),
(637,725,o),
(543,766,o),
(439,766,cs),
(223,766,o),
(49,590,o),
(49,375,cs),
(49,159,o),
(223,-15,o),
(439,-15,cs)
);
},
{
closed = 1;
nodes = (
(780,6,o),
(787,13,o),
(787,21,cs),
(787,25,o),
(785,29,o),
(782,32,cs),
(473,341,l),
(814,341,ls),
(822,341,o),
(829,348,o),
(829,356,cs),
(829,364,o),
(822,371,o),
(814,371,cs),
(455,371,ls),
(434,371,o),
(424,349,o),
(439,333,cs),
(762,11,ls),
(764,8,o),
(768,6,o),
(772,6,cs)
);
}
);
width = 878;
},
{
anchors = (
{
name = _bottom;
pos = (451,0);
},
{
name = _top;
pos = (451,751);
},
{
name = top;
pos = (451,751);
}
);
associatedMasterId = "12AF635E-66FE-4C90-B49C-8787585F2B73";
background = {
hints = (
{
horizontal = 1;
place = (-16,30);
type = Stem;
},
{
horizontal = 1;
place = (353,30);
type = Stem;
},
{
horizontal = 1;
place = (723,30);
type = Stem;
},
{
place = (62,30);
type = Stem;
},
{
place = (792,30);
type = Stem;
}
);
shapes = (
{
closed = 1;
nodes = (
(773,-11,ls),
(780,-18,o),
(787,-18,o),
(793,-10,cs),
(801,-3,o),
(800,4,o),
(793,11,cs),
(708,94,l),
(723,109,o),
(737,126,o),
(750,144,cs),
(798,211,o),
(822,286,o),
(822,368,cs),
(822,377,o),
(816,383,o),
(807,383,cs),
(403,383,ls),
(396,383,o),
(392,380,o),
(389,374,cs),
(387,368,o),
(388,362,o),
(393,358,c),
(664,94,l),
(601,41,o),
(529,14,o),
(447,14,cs),
(382,14,o),
(323,30,o),
(269,62,cs),
(214,93,o),
(171,136,o),
(139,190,cs),
(107,245,o),
(92,304,o),
(92,368,cs),
(92,433,o),
(107,492,o),
(139,546,cs),
(171,601,o),
(214,644,o),
(268,675,cs),
(322,707,o),
(382,723,o),
(447,723,cs),
(491,723,o),
(534,715,o),
(575,698,cs),
(616,682,o),
(651,661,o),
(681,634,cs),
(688,627,o),
(695,627,o),
(702,635,cs),
(709,642,o),
(708,649,o),
(701,656,cs),
(668,686,o),
(629,710,o),
(585,727,cs),
(541,744,o),
(495,753,o),
(447,753,cs),
(377,753,o),
(313,736,o),
(253,701,cs),
(194,667,o),
(148,621,o),
(113,562,cs),
(79,502,o),
(62,438,o),
(62,369,cs),
(62,299,o),
(79,234,o),
(113,175,cs),
(148,116,o),
(194,70,o),
(253,35,cs),
(313,1,o),
(377,-16,o),
(447,-16,cs),
(538,-16,o),
(617,14,o),
(686,73,c)
);
},
{
closed = 1;
nodes = (
(440,353,l),
(792,353,l),
(789,283,o),
(767,219,o),
(726,162,cs),
(713,145,o),
(700,129,o),
(686,115,c)
);
}
);
};
layerId = "AD099D33-B9CD-4A81-A55B-71318F6B4A6B";
name = "17 août 23 à 23:26";
shapes = (
{
closed = 0;
nodes = (
(716,650,l),
(646,721,o),
(548,766,o),
(439,766,cs),
(223,766,o),
(49,590,o),
(49,375,cs),
(49,159,o),
(223,-15,o),
(439,-15,cs),
(653,-15,o),
(827,156,o),
(830,369,c),
(404,369,l),
(773,0,l)
);
}
);
width = 902;
}
);
note = G;
unicode = 71;
},
{
glyphname = H;
kernLeft = H;
kernRight = H;
lastChange = "2023-09-15 13:26:36 +0000";
layers = (
{
anchors = (
{
name = bottom;
pos = (335,0);
},
{
name = center;
pos = (335,375);
},
{
name = top;
pos = (335,751);
},
{
name = topleft;
pos = (10,751);
}
);
background = {
hints = (
{
horizontal = 1;
place = (-15,21);
target = up;
type = BottomGhost;
},
{
horizontal = 1;
place = (273,30);
type = Stem;
},
{
place = (119,30);
type = Stem;
},
{
place = (589,30);
type = Stem;
}
);
shapes = (
{
closed = 1;
nodes = (
(103,0,ls),
(103,-8,o),
(109,-15,o),
(117,-15,cs),
(125,-15,o),
(132,-8,o),
(132,0,cs),
(132,273,l),
(572,273,l),
(572,0,ls),
(572,-10,o),
(577,-15,o),
(587,-15,cs),
(598,-15,o),
(603,-10,o),
(603,0,cs),
(603,736,ls),
(603,746,o),
(598,751,o),
(587,751,cs),
(577,751,o),
(572,746,o),
(572,736,cs),
(572,325,l),
(364,536,l),
(357,542,o),
(350,542,o),
(343,536,cs),
(132,325,l),
(132,736,l),
(133,756,o),
(102,755,o),
(103,736,c)
);
},
{
closed = 1;
nodes = (
(551,303,l),
(153,303,l),
(354,504,l)
);
}
);
};
layerId = "12AF635E-66FE-4C90-B49C-8787585F2B73";
shapes = (
{
closed = 1;
nodes = (
(589,274,l),
(589,307,l),
(346,551,ls),
(339,557,o),
(331,557,o),
(324,551,cs),
(78,305,l),
(78,274,l)
);
},
{
closed = 1;
nodes = (
(91,-1,o),
(98,5,o),
(98,13,cs),
(98,738,ls),
(98,746,o),
(91,752,o),
(83,752,cs),
(75,752,o),
(68,746,o),
(68,738,cs),
(68,13,ls),
(68,5,o),
(75,-1,o),
(83,-1,cs)
);
},
{
closed = 1;
nodes = (
(335,521,l),
(551,304,l),
(118,304,l)
);
},
{
closed = 1;
nodes = (
(595,-1,o),
(601,5,o),
(601,13,cs),
(601,738,ls),
(601,746,o),
(595,752,o),
(586,752,cs),
(578,752,o),
(572,746,o),
(572,738,cs),
(572,13,ls),
(572,5,o),
(578,-1,o),
(586,-1,cs)
);
}
);
width = 669;
},
{
anchors = (
{
name = bottom;
pos = (389,0);
},
{
name = center;
pos = (389,375);
},
{
name = top;
pos = (389,751);
},
{
name = topleft;
pos = (10,751);
}
);
background = {
hints = (
{
horizontal = 1;
place = (-15,21);
target = up;
type = BottomGhost;
},
{
horizontal = 1;
place = (273,30);
type = Stem;
},
{
place = (119,30);
type = Stem;
},
{
place = (589,30);
type = Stem;
}
);
shapes = (
{
closed = 1;
nodes = (
(156,0,ls),
(156,-8,o),
(163,-15,o),
(171,-15,cs),
(179,-15,o),
(186,-8,o),
(186,0,cs),
(186,273,l),
(626,273,l),
(626,0,ls),
(626,-10,o),
(631,-15,o),
(641,-15,cs),
(651,-15,o),
(656,-10,o),
(656,0,cs),
(656,736,ls),
(656,746,o),
(651,751,o),
(641,751,cs),
(631,751,o),
(626,746,o),
(626,736,cs),
(626,325,l),
(418,536,l),
(411,542,o),
(403,542,o),
(397,536,cs),
(186,325,l),
(186,736,l),
(187,756,o),
(155,755,o),
(156,736,c)
);
},
{
closed = 1;
nodes = (
(605,303,l),
(207,303,l),
(407,504,l)
);
}
);
};
layerId = m004;
shapes = (
{
closed = 1;
nodes = (
(661,221,l),
(661,365,l),
(431,595,ls),
(407,620,o),
(371,620,o),
(346,595,cs),
(116,365,l),
(116,221,l)
);
},
{
closed = 1;
nodes = (
(174,0,o),
(205,31,o),
(205,68,cs),
(205,683,ls),
(205,720,o),
(174,751,o),
(137,751,cs),
(99,751,o),
(68,720,o),
(68,683,cs),
(68,68,ls),
(68,31,o),
(99,0,o),
(137,0,cs)
);
},
{
closed = 1;
nodes = (
(389,444,l),
(475,357,l),
(302,357,l)
);
},
{
closed = 1;
nodes = (
(678,0,o),
(708,31,o),
(708,68,cs),
(708,683,ls),
(708,720,o),
(678,751,o),
(640,751,cs),
(603,751,o),
(572,720,o),
(572,683,cs),
(572,68,ls),
(572,31,o),
(603,0,o),
(640,0,cs)
);
}
);
width = 777;
},
{
anchors = (
{
name = _bottom;
pos = (368,0);
},
{
name = _top;
pos = (368,751);
},
{
name = top;
pos = (368,751);
}
);
associatedMasterId = "12AF635E-66FE-4C90-B49C-8787585F2B73";
background = {
hints = (
{
horizontal = 1;
place = (-15,21);
target = up;
type = BottomGhost;
},
{
horizontal = 1;
place = (273,30);
type = Stem;
},
{
place = (119,30);
type = Stem;
},
{
place = (589,30);
type = Stem;
}
);
shapes = (
{
closed = 1;
nodes = (
(119,0,ls),
(119,-8,o),
(126,-15,o),
(134,-15,cs),
(142,-15,o),
(149,-8,o),
(149,0,cs),
(149,273,l),
(589,273,l),
(589,0,ls),
(589,-10,o),
(594,-15,o),
(604,-15,cs),
(614,-15,o),
(619,-10,o),
(619,0,cs),
(619,736,ls),
(619,746,o),
(614,751,o),
(604,751,cs),
(594,751,o),
(589,746,o),
(589,736,cs),
(589,325,l),
(381,536,l),
(374,542,o),
(366,542,o),
(360,536,cs),
(149,325,l),
(149,736,l),
(150,756,o),
(118,755,o),
(119,736,c)
);
},
{
closed = 1;
nodes = (
(568,303,l),
(170,303,l),
(370,504,l)
);
}
);
};
layerId = "63024789-3F83-4289-BDE0-BD62D686B326";
name = "17 août 23 à 23:21";
shapes = (
{
closed = 0;
nodes = (
(100,0,l),
(100,751,l)
);
},
{
closed = 0;
nodes = (
(603,0,l),
(603,751,l)
);
},
{
closed = 1;
nodes = (
(100,289,l),
(603,289,l),
(352,541,l)
);
}
);
width = 737;
},
{
anchors = (
{
name = _bottom;
pos = (368,0);
},
{
name = _top;
pos = (368,751);
},
{
name = top;
pos = (368,751);
}
);
associatedMasterId = m004;
background = {
hints = (
{
horizontal = 1;
place = (-15,21);
target = up;
type = BottomGhost;
},
{
horizontal = 1;
place = (273,30);
type = Stem;
},
{
place = (119,30);
type = Stem;
},
{
place = (589,30);
type = Stem;
}
);
shapes = (
{
closed = 1;
nodes = (
(119,0,ls),
(119,-8,o),
(126,-15,o),
(134,-15,cs),
(142,-15,o),
(149,-8,o),
(149,0,cs),
(149,273,l),
(589,273,l),
(589,0,ls),
(589,-10,o),
(594,-15,o),
(604,-15,cs),
(614,-15,o),
(619,-10,o),
(619,0,cs),
(619,736,ls),
(619,746,o),
(614,751,o),
(604,751,cs),
(594,751,o),
(589,746,o),
(589,736,cs),
(589,325,l),
(381,536,l),
(374,542,o),
(366,542,o),
(360,536,cs),
(149,325,l),
(149,736,l),
(150,756,o),
(118,755,o),
(119,736,c)
);
},
{
closed = 1;
nodes = (
(568,303,l),
(170,303,l),
(370,504,l)
);
}
);
};
layerId = "F5DDA098-E8A2-4420-B624-3B5A0E8EB72A";
name = "17 août 23 à 23:21";
shapes = (
{
closed = 0;
nodes = (
(100,0,l),
(100,751,l)
);
},
{
closed = 0;
nodes = (
(603,0,l),
(603,751,l)
);
},
{
closed = 1;
nodes = (
(100,289,l),
(603,289,l),
(352,541,l)
);
}
);
width = 737;
}
);
note = H;
unicode = 72;
},
{
glyphname = Hbar;
lastChange = "2023-09-15 13:26:36 +0000";
layers = (
{
layerId = "12AF635E-66FE-4C90-B49C-8787585F2B73";
shapes = (
{
closed = 1;
nodes = (
(662,530,ls),
(670,530,o),
(676,537,o),
(676,545,cs),
(676,553,o),
(670,560,o),
(662,560,cs),
(20,560,ls),
(11,560,o),
(5,553,o),
(5,545,cs),
(5,537,o),
(11,530,o),
(20,530,cs)
);
},
{
pos = (6,0);
ref = H;
}
);
width = 681;
},
{
layerId = m004;
shapes = (
{
closed = 1;
nodes = (
(823,487,ls),
(860,487,o),
(891,518,o),
(891,556,cs),
(891,593,o),
(860,624,o),
(823,624,cs),
(73,624,ls),
(36,624,o),
(5,593,o),
(5,556,cs),
(5,518,o),
(36,487,o),
(73,487,cs)
);
},
{
pos = (60,0);
ref = H;
}
);
width = 896;
}
);
unicode = 294;
},
{
glyphname = I;
kernLeft = I;
kernRight = I;
lastChange = "2023-09-15 13:26:36 +0000";
layers = (
{
anchors = (
{
name = bottom;
pos = (202,0);
},
{
name = ogonek;
pos = (303,9);
},
{
name = top;
pos = (202,751);
},
{
name = topleft;
pos = (13,751);
}
);
background = {
hints = (
{
horizontal = 1;
place = (-15,30);
type = Stem;
},
{
horizontal = 1;
place = (721,30);
type = Stem;
},
{
place = (183,30);
type = Stem;
}
);
shapes = (
{
closed = 1;
nodes = (
(187,15,l),
(84,15,ls),
(74,15,o),
(69,10,o),
(69,0,cs),
(69,-10,o),
(74,-15,o),
(84,-15,cs),
(318,-15,ls),
(329,-15,o),
(333,-10,o),
(333,0,cs),
(333,10,o),
(329,15,o),
(318,15,cs),
(216,15,l),
(216,721,l),
(318,721,ls),
(329,721,o),
(333,726,o),
(333,736,cs),
(333,746,o),
(329,751,o),
(318,751,cs),
(84,751,ls),
(74,751,o),
(69,746,o),
(69,736,cs),
(69,726,o),
(74,721,o),
(84,721,cs),
(187,721,l)
);
}
);
};
layerId = "12AF635E-66FE-4C90-B49C-8787585F2B73";
shapes = (
{
closed = 1;
nodes = (
(210,13,o),
(216,20,o),
(216,28,cs),
(216,723,ls),
(216,731,o),
(210,738,o),
(202,738,cs),
(193,738,o),
(187,731,o),
(187,723,cs),
(187,28,ls),
(187,20,o),
(193,13,o),
(202,13,cs)
);
},
{
closed = 1;
nodes = (
(321,0,ls),
(329,0,o),
(335,6,o),
(335,15,cs),
(335,23,o),
(329,29,o),
(321,29,cs),
(83,29,ls),
(75,29,o),
(68,23,o),
(68,15,cs),
(68,6,o),
(75,0,o),
(83,0,cs)
);
},
{
closed = 1;
nodes = (
(321,722,ls),
(329,722,o),
(335,728,o),
(335,736,cs),
(335,745,o),
(329,751,o),
(321,751,cs),
(83,751,ls),
(75,751,o),
(68,745,o),
(68,736,cs),
(68,728,o),
(75,722,o),
(83,722,cs)
);
}
);
width = 404;
},
{
anchors = (
{
name = bottom;
pos = (269,0);
},
{
name = ogonek;
pos = (381,59);
},
{
name = top;
pos = (269,751);
},
{
name = topleft;
pos = (80,751);
}
);
background = {
hints = (
{
horizontal = 1;
place = (-15,30);
type = Stem;
},
{
horizontal = 1;
place = (721,30);
type = Stem;
},
{
place = (183,30);
type = Stem;
}
);
shapes = (
{
closed = 1;
nodes = (
(253,15,l),
(151,15,ls),
(141,15,o),
(136,10,o),
(136,0,cs),
(136,-10,o),
(141,-15,o),
(151,-15,cs),
(385,-15,ls),
(396,-15,o),
(400,-10,o),
(400,0,cs),
(400,10,o),
(396,15,o),
(385,15,cs),
(283,15,l),
(283,721,l),
(385,721,ls),
(396,721,o),
(400,726,o),
(400,736,cs),
(400,746,o),
(396,751,o),
(385,751,cs),
(151,751,ls),
(141,751,o),
(136,746,o),
(136,736,cs),
(136,726,o),
(141,721,o),
(151,721,cs),
(253,721,l)
);
}
);
};
layerId = m004;
shapes = (
{
closed = 1;
nodes = (
(306,0,o),
(337,31,o),
(337,68,cs),
(337,683,ls),
(337,720,o),
(306,751,o),
(269,751,cs),
(231,751,o),
(200,720,o),
(200,683,cs),
(200,68,ls),
(200,31,o),
(231,0,o),
(269,0,cs)
);
},
{
closed = 1;
nodes = (
(401,0,ls),
(438,0,o),
(469,31,o),
(469,68,cs),
(469,106,o),
(438,137,o),
(401,137,cs),
(137,137,ls),
(99,137,o),
(68,106,o),
(68,68,cs),
(68,31,o),
(99,0,o),
(137,0,cs)
);
},
{
closed = 1;
nodes = (
(401,614,ls),
(438,614,o),
(469,645,o),
(469,683,cs),
(469,720,o),
(438,751,o),
(401,751,cs),
(137,751,ls),
(99,751,o),
(68,720,o),
(68,683,cs),
(68,645,o),
(99,614,o),
(137,614,cs)
);
}
);
width = 538;
},
{
anchors = (
{
name = _bottom;
pos = (198,0);
},
{
name = _top;
pos = (198,751);
},
{
name = top;
pos = (198,751);
}
);
associatedMasterId = m004;
background = {
hints = (
{
horizontal = 1;
place = (-15,30);
type = Stem;
},
{
horizontal = 1;
place = (721,30);
type = Stem;
},
{
place = (183,30);
type = Stem;
}
);
shapes = (
{
closed = 1;
nodes = (
(183,15,l),
(81,15,ls),
(71,15,o),
(66,10,o),
(66,0,cs),
(66,-10,o),
(71,-15,o),
(81,-15,cs),
(315,-15,ls),
(325,-15,o),
(330,-10,o),
(330,0,cs),
(330,10,o),
(325,15,o),
(315,15,cs),
(213,15,l),
(213,721,l),
(315,721,ls),
(325,721,o),
(330,726,o),
(330,736,cs),
(330,746,o),
(325,751,o),
(315,751,cs),
(81,751,ls),
(71,751,o),
(66,746,o),
(66,736,cs),
(66,726,o),
(71,721,o),
(81,721,cs),
(183,721,l)
);
}
);
};
layerId = "60F0A9F2-D874-4C97-B509-DA71F13FCDDC";
name = "18 août 23 à 00:16";
shapes = (
{
closed = 0;
nodes = (
(198,0,l),
(198,751,l)
);
},
{
closed = 0;
nodes = (
(66,751,l),
(331,751,l)
);
},
{
closed = 0;
nodes = (
(66,0,l),
(331,0,l)
);
}
);
width = 396;
},
{
anchors = (
{
name = _bottom;
pos = (198,0);
},
{
name = _top;
pos = (198,751);
},
{
name = top;
pos = (198,751);
}
);
associatedMasterId = "12AF635E-66FE-4C90-B49C-8787585F2B73";
background = {
hints = (
{
horizontal = 1;
place = (-15,30);
type = Stem;
},
{
horizontal = 1;
place = (721,30);
type = Stem;
},
{
place = (183,30);
type = Stem;
}
);
shapes = (
{
closed = 1;
nodes = (
(183,15,l),
(81,15,ls),
(71,15,o),
(66,10,o),
(66,0,cs),
(66,-10,o),
(71,-15,o),
(81,-15,cs),
(315,-15,ls),
(325,-15,o),
(330,-10,o),
(330,0,cs),
(330,10,o),
(325,15,o),
(315,15,cs),
(213,15,l),
(213,721,l),
(315,721,ls),
(325,721,o),
(330,726,o),
(330,736,cs),
(330,746,o),
(325,751,o),
(315,751,cs),
(81,751,ls),
(71,751,o),
(66,746,o),
(66,736,cs),
(66,726,o),
(71,721,o),
(81,721,cs),
(183,721,l)
);
}
);
};
layerId = "55B8DFE6-C68F-49F1-9575-7C29F2024E90";
name = "18 août 23 à 00:16";
shapes = (
{
closed = 0;
nodes = (
(198,0,l),
(198,751,l)
);
},
{
closed = 0;
nodes = (
(66,751,l),
(331,751,l)
);
},
{
closed = 0;
nodes = (
(66,0,l),
(331,0,l)
);
}
);
width = 396;
}
);
note = I;
unicode = 73;
},
{
glyphname = J;
kernLeft = J;
kernRight = H;
lastChange = "2023-09-15 13:26:36 +0000";
layers = (
{
anchors = (
{
name = bottom;
pos = (253,0);
},
{
name = top;
pos = (273,751);
}
);
background = {
hints = (
{
horizontal = 1;
place = (-15,30);
type = Stem;
},
{
horizontal = 1;
place = (721,30);
type = Stem;
},
{
place = (107,30);
type = Stem;
},
{
place = (477,30);
type = Stem;
}
);
shapes = (
{
closed = 1;
nodes = (
(463,736,ls),
(464,746,o),
(459,751,o),
(449,751,cs),
(80,751,ls),
(73,751,o),
(68,748,o),
(65,741,cs),
(63,735,o),
(64,729,o),
(68,725,cs),
(434,361,l),
(434,184,ls),
(434,131,o),
(417,89,o),
(385,60,cs),
(353,30,o),
(313,15,o),
(264,15,cs),
(217,15,o),
(177,32,o),
(144,64,cs),
(110,98,o),
(94,138,o),
(94,184,cs),
(94,204,o),
(63,204,o),
(63,184,cs),
(63,129,o),
(83,83,o),
(122,43,cs),
(161,4,o),
(208,-15,o),
(264,-15,cs),
(321,-15,o),
(369,3,o),
(406,39,cs),
(444,74,o),
(463,123,o),
(463,184,cs)
);
},
{
closed = 1;
nodes = (
(434,403,l),
(116,721,l),
(434,721,l)
);
}
);
};
layerId = "12AF635E-66FE-4C90-B49C-8787585F2B73";
shapes = (
{
closed = 1;
nodes = (
(454,163,o),
(460,169,o),
(460,178,cs),
(460,735,ls),
(460,744,o),
(454,751,o),
(445,751,cs),
(85,751,ls),
(64,751,o),
(54,729,o),
(69,714,cs),
(434,350,ls),
(437,347,o),
(440,345,o),
(444,345,cs),
(452,345,o),
(459,352,o),
(459,360,cs),
(459,364,o),
(458,367,o),
(455,370,cs),
(103,722,l),
(431,722,l),
(431,178,ls),
(431,168,o),
(438,163,o),
(446,163,cs)
);
},
{
closed = 1;
nodes = (
(363,-15,o),
(453,71,o),
(460,178,cs),
(461,186,o),
(454,193,o),
(446,193,cs),
(438,193,o),
(432,188,o),
(431,180,cs),
(425,86,o),
(350,15,o),
(254,15,cs),
(160,15,o),
(84,86,o),
(78,179,cs),
(78,187,o),
(71,193,o),
(63,193,cs),
(55,193,o),
(48,186,o),
(49,177,cs),
(56,70,o),
(146,-15,o),
(254,-15,cs)
);
}
);
width = 529;
},
{
anchors = (
{
name = bottom;
pos = (308,0);
},
{
name = top;
pos = (327,751);
}
);
background = {
hints = (
{
horizontal = 1;
place = (-15,30);
type = Stem;
},
{
horizontal = 1;
place = (721,30);
type = Stem;
},
{
place = (107,30);
type = Stem;
},
{
place = (477,30);
type = Stem;
}
);
shapes = (
{
closed = 1;
nodes = (
(518,736,ls),
(518,746,o),
(513,751,o),
(503,751,cs),
(134,751,ls),
(127,751,o),
(122,748,o),
(120,741,cs),
(117,735,o),
(118,729,o),
(123,725,cs),
(488,361,l),
(488,184,ls),
(488,131,o),
(472,89,o),
(439,60,cs),
(407,30,o),
(367,15,o),
(318,15,cs),
(271,15,o),
(231,32,o),
(198,64,cs),
(165,98,o),
(148,138,o),
(148,184,cs),
(148,204,o),
(118,204,o),
(118,184,cs),
(118,129,o),
(137,83,o),
(176,43,cs),
(215,4,o),
(263,-15,o),
(318,-15,cs),
(375,-15,o),
(423,3,o),
(460,39,cs),
(499,74,o),
(518,123,o),
(518,184,cs)
);
},
{
closed = 1;
nodes = (
(488,403,l),
(170,721,l),
(488,721,l)
);
}
);
};
layerId = m004;
shapes = (
{
closed = 1;
nodes = (
(538,177,o),
(568,208,o),
(568,246,cs),
(568,691,ls),
(568,726,o),
(543,751,o),
(509,751,cs),
(161,751,ls),
(78,751,o),
(42,666,o),
(101,607,cs),
(442,265,ls),
(455,253,o),
(472,245,o),
(491,245,cs),
(528,245,o),
(559,276,o),
(559,313,cs),
(559,333,o),
(551,350,o),
(539,362,cs),
(287,614,l),
(432,614,l),
(432,246,ls),
(432,208,o),
(462,177,o),
(500,177,cs)
);
},
{
closed = 1;
nodes = (
(452,-15,o),
(568,102,o),
(568,245,cs),
(568,283,o),
(538,313,o),
(500,313,cs),
(462,313,o),
(432,283,o),
(432,245,cs),
(432,168,o),
(386,122,o),
(309,122,cs),
(232,122,o),
(186,168,o),
(186,245,cs),
(186,283,o),
(155,313,o),
(117,313,cs),
(80,313,o),
(49,283,o),
(49,245,cs),
(49,102,o),
(166,-15,o),
(309,-15,cs)
);
}
);
width = 637;
},
{
anchors = (
{
name = _bottom;
pos = (297,0);
},
{
name = _top;
pos = (297,751);
},
{
name = top;
pos = (297,751);
}
);
associatedMasterId = m004;
background = {
hints = (
{
horizontal = 1;
place = (-15,30);
type = Stem;
},
{
horizontal = 1;
place = (721,30);
type = Stem;
},
{
place = (107,30);
type = Stem;
},
{
place = (477,30);
type = Stem;
}
);
shapes = (
{
closed = 1;
nodes = (
(507,736,ls),
(507,746,o),
(502,751,o),
(492,751,cs),
(123,751,ls),
(116,751,o),
(111,748,o),
(109,741,cs),
(106,735,o),
(107,729,o),
(112,725,cs),
(477,361,l),
(477,184,ls),
(477,131,o),
(461,89,o),
(429,60,cs),
(396,30,o),
(356,15,o),
(307,15,cs),
(260,15,o),
(220,32,o),
(187,64,cs),
(154,98,o),
(137,138,o),
(137,184,cs),
(137,204,o),
(107,204,o),
(107,184,cs),
(107,129,o),
(126,83,o),
(166,43,cs),
(205,4,o),
(252,-15,o),
(307,-15,cs),
(364,-15,o),
(412,3,o),
(450,39,cs),
(488,74,o),
(507,123,o),
(507,184,cs)
);
},
{
closed = 1;
nodes = (
(477,403,l),
(159,721,l),
(477,721,l)
);
}
);
};
layerId = "B764166B-360F-4F7D-A449-824226BAEB0F";
name = "18 août 23 à 08:55";
shapes = (
{
closed = 0;
nodes = (
(489,373,l),
(111,751,l),
(489,751,l),
(489,177,ls),
(489,71,o),
(403,-15,o),
(298,-15,cs),
(193,-15,o),
(106,71,o),
(106,177,c)
);
}
);
width = 594;
},
{
anchors = (
{
name = _bottom;
pos = (297,0);
},
{
name = _top;
pos = (297,751);
},
{
name = top;
pos = (297,751);
}
);
associatedMasterId = "12AF635E-66FE-4C90-B49C-8787585F2B73";
background = {
hints = (
{
horizontal = 1;
place = (-15,30);
type = Stem;
},
{
horizontal = 1;
place = (721,30);
type = Stem;
},
{
place = (107,30);
type = Stem;
},
{
place = (477,30);
type = Stem;
}
);
shapes = (
{
closed = 1;
nodes = (
(507,736,ls),
(507,746,o),
(502,751,o),
(492,751,cs),
(123,751,ls),
(116,751,o),
(111,748,o),
(109,741,cs),
(106,735,o),
(107,729,o),
(112,725,cs),
(477,361,l),
(477,184,ls),
(477,131,o),
(461,89,o),
(429,60,cs),
(396,30,o),
(356,15,o),
(307,15,cs),
(260,15,o),
(220,32,o),
(187,64,cs),
(154,98,o),
(137,138,o),
(137,184,cs),
(137,204,o),
(107,204,o),
(107,184,cs),
(107,129,o),
(126,83,o),
(166,43,cs),
(205,4,o),
(252,-15,o),
(307,-15,cs),
(364,-15,o),
(412,3,o),
(450,39,cs),
(488,74,o),
(507,123,o),
(507,184,cs)
);
},
{
closed = 1;
nodes = (
(477,403,l),
(159,721,l),
(477,721,l)
);
}
);
};
layerId = "B7EB4814-F7B7-486C-BB2B-E467C43862B2";
name = "18 août 23 à 08:55";
shapes = (
{
closed = 0;
nodes = (
(489,373,l),
(111,751,l),
(489,751,l),
(489,177,ls),
(489,71,o),
(403,-15,o),
(298,-15,cs),
(193,-15,o),
(106,71,o),
(106,177,c)
);
}
);
width = 594;
}
);
note = J;
unicode = 74;
},
{
glyphname = K;
kernLeft = H;
kernRight = K;
lastChange = "2023-09-15 13:26:36 +0000";
layers = (
{
anchors = (
{
name = bottom;
pos = (365,0);
},
{
name = top;
pos = (365,751);
}
);
background = {
hints = (
{
horizontal = 1;
place = (-15,21);
target = up;
type = BottomGhost;
},
{
place = (135,30);
type = Stem;
},
{
horizontal = 1;
place = (-16,21);
target = up;
type = BottomGhost;
}
);
shapes = (
{
closed = 1;
nodes = (
(104,0,ls),
(104,-10,o),
(108,-15,o),
(119,-15,cs),
(129,-15,o),
(134,-10,o),
(134,0,cs),
(134,213,l),
(328,439,l),
(671,-9,ls),
(674,-13,o),
(678,-16,o),
(682,-16,cs),
(685,-16,o),
(688,-15,o),
(692,-12,cs),
(696,-9,o),
(699,-5,o),
(699,-1,cs),
(699,2,o),
(697,5,o),
(695,9,cs),
(348,462,l),
(574,726,ls),
(581,734,o),
(580,741,o),
(572,748,cs),
(569,750,o),
(565,752,o),
(562,752,cs),
(559,752,o),
(555,750,o),
(552,746,cs),
(329,487,l),
(131,745,ls),
(127,750,o),
(124,751,o),
(119,751,cs),
(118,751,o),
(116,751,o),
(114,750,cs),
(107,748,o),
(104,743,o),
(104,736,cs)
);
},
{
closed = 1;
nodes = (
(309,463,l),
(134,259,l),
(134,692,l)
);
}
);
};
layerId = "12AF635E-66FE-4C90-B49C-8787585F2B73";
shapes = (
{
closed = 1;
nodes = (
(91,0,o),
(98,6,o),
(98,15,cs),
(98,710,l),
(674,5,ls),
(676,2,o),
(680,0,o),
(685,0,cs),
(693,0,o),
(700,6,o),
(700,15,cs),
(700,18,o),
(698,21,o),
(696,24,cs),
(110,741,ls),
(104,748,o),
(98,751,o),
(91,751,cs),
(79,751,o),
(68,742,o),
(68,727,cs),
(68,15,ls),
(68,6,o),
(75,0,o),
(83,0,cs)
);
},
{
closed = 1;
nodes = (
(88,210,o),
(92,212,o),
(94,214,cs),
(552,727,ls),
(555,729,o),
(556,732,o),
(556,736,cs),
(556,744,o),
(549,751,o),
(542,751,cs),
(538,751,o),
(534,750,o),
(531,747,cs),
(73,235,ls),
(71,232,o),
(70,229,o),
(70,225,cs),
(70,217,o),
(76,210,o),
(84,210,cs)
);
}
);
width = 734;
},
{
anchors = (
{
name = bottom;
pos = (433,0);
},
{
name = top;
pos = (433,751);
}
);
background = {
hints = (
{
horizontal = 1;
place = (-15,21);
target = up;
type = BottomGhost;
},
{
place = (135,30);
type = Stem;
},
{
horizontal = 1;
place = (-16,21);
target = up;
type = BottomGhost;
}
);
shapes = (
{
closed = 1;
nodes = (
(172,0,ls),
(172,-10,o),
(177,-15,o),
(187,-15,cs),
(197,-15,o),
(202,-10,o),
(202,0,cs),
(202,213,l),
(396,439,l),
(739,-9,ls),
(743,-13,o),
(746,-16,o),
(750,-16,cs),
(753,-16,o),
(757,-15,o),
(760,-12,cs),
(765,-9,o),
(767,-5,o),
(767,-1,cs),
(767,2,o),
(766,5,o),
(763,9,cs),
(416,462,l),
(642,726,ls),
(649,734,o),
(648,741,o),
(641,748,cs),
(637,750,o),
(634,752,o),
(630,752,cs),
(627,752,o),
(624,750,o),
(620,746,cs),
(397,487,l),
(199,745,ls),
(196,750,o),
(192,751,o),
(188,751,cs),
(186,751,o),
(184,751,o),
(182,750,cs),
(175,748,o),
(172,743,o),
(172,736,cs)
);
},
{
closed = 1;
nodes = (
(377,463,l),
(202,259,l),
(202,692,l)
);
}
);
};
layerId = m004;
shapes = (
{
closed = 1;
nodes = (
(174,0,o),
(205,31,o),
(205,68,cs),
(205,525,l),
(617,24,ls),
(629,9,o),
(648,0,o),
(669,0,cs),
(707,0,o),
(737,30,o),
(737,68,cs),
(737,84,o),
(731,100,o),
(722,111,cs),
(229,713,ls),
(208,739,o),
(181,751,o),
(155,751,cs),
(110,751,o),
(68,715,o),
(68,656,cs),
(68,68,ls),
(68,31,o),
(99,0,o),
(137,0,cs)
);
},
{
closed = 1;
nodes = (
(170,136,o),
(188,145,o),
(201,159,cs),
(634,637,ls),
(645,649,o),
(652,665,o),
(652,683,cs),
(652,720,o),
(621,751,o),
(583,751,cs),
(563,751,o),
(545,742,o),
(533,729,cs),
(100,250,ls),
(89,238,o),
(82,222,o),
(82,205,cs),
(82,167,o),
(113,136,o),
(150,136,cs)
);
}
);
width = 771;
},
{
anchors = (
{
name = _bottom;
pos = (396,0);
},
{
name = _top;
pos = (396,751);
},
{
name = top;
pos = (396,751);
}
);
associatedMasterId = m004;
background = {
hints = (
{
horizontal = 1;
place = (-15,21);
target = up;
type = BottomGhost;
},
{
place = (135,30);
type = Stem;
},
{
horizontal = 1;
place = (-16,21);
target = up;
type = BottomGhost;
}
);
shapes = (
{
closed = 1;
nodes = (
(135,0,ls),
(135,-10,o),
(140,-15,o),
(150,-15,cs),
(160,-15,o),
(165,-10,o),
(165,0,cs),
(165,213,l),
(359,439,l),
(702,-9,ls),
(706,-13,o),
(709,-16,o),
(713,-16,cs),
(716,-16,o),
(720,-15,o),
(723,-12,cs),
(728,-9,o),
(730,-5,o),
(730,-1,cs),
(730,2,o),
(729,5,o),
(726,9,cs),
(379,462,l),
(605,726,ls),
(612,734,o),
(611,741,o),
(604,748,cs),
(600,750,o),
(597,752,o),
(593,752,cs),
(590,752,o),
(586,750,o),
(583,746,cs),
(360,487,l),
(162,745,ls),
(159,750,o),
(155,751,o),
(150,751,cs),
(149,751,o),
(147,751,o),
(145,750,cs),
(138,748,o),
(135,743,o),
(135,736,cs)
);
},
{
closed = 1;
nodes = (
(340,463,l),
(165,259,l),
(165,692,l)
);
}
);
};
layerId = "CCB3D6D4-2ACD-475E-90F7-734F6A4B992F";
name = "18 août 23 à 08:55";
shapes = (
{
closed = 0;
nodes = (
(100,0,l),
(100,751,l),
(713,0,l)
);
},
{
closed = 0;
nodes = (
(606,751,l),
(100,185,l)
);
}
);
width = 792;
},
{
anchors = (
{
name = _bottom;
pos = (396,0);
},
{
name = _top;
pos = (396,751);
},
{
name = top;
pos = (396,751);
}
);
associatedMasterId = "12AF635E-66FE-4C90-B49C-8787585F2B73";
background = {
hints = (
{
horizontal = 1;
place = (-15,21);
target = up;
type = BottomGhost;
},
{
place = (135,30);
type = Stem;
},
{
horizontal = 1;
place = (-16,21);
target = up;
type = BottomGhost;
}
);
shapes = (
{
closed = 1;
nodes = (
(135,0,ls),
(135,-10,o),
(140,-15,o),
(150,-15,cs),
(160,-15,o),
(165,-10,o),
(165,0,cs),
(165,213,l),
(359,439,l),
(702,-9,ls),
(706,-13,o),
(709,-16,o),
(713,-16,cs),
(716,-16,o),
(720,-15,o),
(723,-12,cs),
(728,-9,o),
(730,-5,o),
(730,-1,cs),
(730,2,o),
(729,5,o),
(726,9,cs),
(379,462,l),
(605,726,ls),
(612,734,o),
(611,741,o),
(604,748,cs),
(600,750,o),
(597,752,o),
(593,752,cs),
(590,752,o),
(586,750,o),
(583,746,cs),
(360,487,l),
(162,745,ls),
(159,750,o),
(155,751,o),
(150,751,cs),
(149,751,o),
(147,751,o),
(145,750,cs),
(138,748,o),
(135,743,o),
(135,736,cs)
);
},
{
closed = 1;
nodes = (
(340,463,l),
(165,259,l),
(165,692,l)
);
}
);
};
layerId = "52280D7E-42F6-4465-9E26-E21EDEE0A022";
name = "18 août 23 à 08:55";
shapes = (
{
closed = 0;
nodes = (
(100,0,l),
(100,751,l),
(713,0,l)
);
},
{
closed = 0;
nodes = (
(606,751,l),
(100,185,l)
);
}
);
width = 792;
}
);
note = K;
unicode = 75;
},
{
glyphname = L;
kernLeft = H;
kernRight = L;
lastChange = "2023-09-15 13:26:36 +0000";
layers = (
{
anchors = (
{
name = bottom;
pos = (301,0);
},
{
name = center;
pos = (252,375);
},
{
name = top;
pos = (252,751);
},
{
name = topright;
pos = (547,751);
}
);
background = {
hints = (
{
horizontal = 1;
place = (-15,30);
type = Stem;
},
{
place = (135,30);
type = Stem;
}
);
shapes = (
{
closed = 1;
nodes = (
(82,0,ls),
(82,-10,o),
(87,-15,o),
(97,-15,cs),
(448,-15,l),
(455,-15,o),
(460,-12,o),
(462,-5,cs),
(463,-3,o),
(464,-1,o),
(464,1,cs),
(464,5,o),
(462,8,o),
(459,11,cs),
(112,357,l),
(112,736,ls),
(112,746,o),
(107,751,o),
(97,751,cs),
(87,751,o),
(82,746,o),
(82,736,cs)
);
},
{
closed = 1;
nodes = (
(412,15,l),
(112,15,l),
(112,315,l)
);
}
);
};
layerId = "12AF635E-66FE-4C90-B49C-8787585F2B73";
shapes = (
{
closed = 1;
nodes = (
(512,0,ls),
(533,0,o),
(543,22,o),
(528,37,cs),
(97,466,ls),
(94,469,o),
(91,470,o),
(87,470,cs),
(79,470,o),
(72,463,o),
(72,456,cs),
(72,452,o),
(74,448,o),
(77,445,cs),
(495,29,l),
(98,29,l),
(98,736,ls),
(98,745,o),
(91,751,o),
(83,751,cs),
(75,751,o),
(68,745,o),
(68,736,cs),
(68,16,ls),
(68,7,o),
(75,0,o),
(84,0,cs)
);
}
);
width = 555;
},
{
anchors = (
{
name = _bottom;
pos = (305,0);
},
{
name = _top;
pos = (305,751);
},
{
name = top;
pos = (305,751);
}
);
associatedMasterId = "12AF635E-66FE-4C90-B49C-8787585F2B73";
background = {
hints = (
{
horizontal = 1;
place = (-15,30);
type = Stem;
},
{
place = (135,30);
type = Stem;
}
);
shapes = (
{
closed = 1;
nodes = (
(135,0,ls),
(135,-10,o),
(140,-15,o),
(150,-15,cs),
(501,-15,l),
(508,-15,o),
(513,-12,o),
(515,-5,cs),
(516,-3,o),
(517,-1,o),
(517,1,cs),
(517,5,o),
(515,8,o),
(512,11,cs),
(165,357,l),
(165,736,ls),
(165,746,o),
(160,751,o),
(150,751,cs),
(140,751,o),
(135,746,o),
(135,736,cs)
);
},
{
closed = 1;
nodes = (
(465,15,l),
(165,15,l),
(165,315,l)
);
}
);
};
layerId = "C945FB68-F140-4D61-ACED-8D3E4174BCD5";
name = "18 août 23 à 08:55";
shapes = (
{
closed = 0;
nodes = (
(136,447,l),
(583,0,l),
(136,0,l),
(136,751,l)
);
}
);
width = 610;
},
{
anchors = (
{
name = _bottom;
pos = (305,0);
},
{
name = _top;
pos = (305,751);
},
{
name = top;
pos = (305,751);
}
);
associatedMasterId = m004;
background = {
hints = (
{
horizontal = 1;
place = (-15,30);
type = Stem;
},
{
place = (135,30);
type = Stem;
}
);
shapes = (
{
closed = 1;
nodes = (
(135,0,ls),
(135,-10,o),
(140,-15,o),
(150,-15,cs),
(501,-15,l),
(508,-15,o),
(513,-12,o),
(515,-5,cs),
(516,-3,o),
(517,-1,o),
(517,1,cs),
(517,5,o),
(515,8,o),
(512,11,cs),
(165,357,l),
(165,736,ls),
(165,746,o),
(160,751,o),
(150,751,cs),
(140,751,o),
(135,746,o),
(135,736,cs)
);
},
{
closed = 1;
nodes = (
(465,15,l),
(165,15,l),
(165,315,l)
);
}
);
};
layerId = "A53FC1B0-06DA-43A6-AB71-89B265D37C72";
name = "18 août 23 à 12:55";
shapes = (
{
closed = 1;
nodes = (
(67,720,o),
(98,751,o),
(136,751,cs),
(173,751,o),
(204,720,o),
(204,683,cs),
(204,137,l),
(336,137,l),
(131,342,ls),
(119,354,o),
(111,372,o),
(111,391,cs),
(111,428,o),
(142,459,o),
(179,459,cs),
(198,459,o),
(215,451,o),
(228,439,cs),
(667,0,l),
(67,0,l),
(67,683,ls)
);
}
);
width = 610;
},
{
anchors = (
{
name = bottom;
pos = (320,0);
},
{
name = center;
pos = (320,375);
},
{
name = top;
pos = (320,751);
},
{
name = topright;
pos = (615,751);
}
);
background = {
hints = (
{
horizontal = 1;
place = (-15,30);
type = Stem;
},
{
place = (135,30);
type = Stem;
}
);
shapes = (
{
closed = 1;
nodes = (
(149,0,ls),
(149,-10,o),
(154,-15,o),
(165,-15,cs),
(516,-15,l),
(522,-15,o),
(527,-12,o),
(530,-5,cs),
(531,-3,o),
(531,-1,o),
(531,1,cs),
(531,5,o),
(530,8,o),
(527,11,cs),
(180,357,l),
(180,736,ls),
(180,746,o),
(175,751,o),
(165,751,cs),
(154,751,o),
(149,746,o),
(149,736,cs)
);
},
{
closed = 1;
nodes = (
(479,15,l),
(180,15,l),
(180,315,l)
);
}
);
};
layerId = m004;
name = Bold;
shapes = (
{
closed = 1;
nodes = (
(510,0,ls),
(593,0,o),
(629,85,o),
(570,144,cs),
(205,509,ls),
(193,521,o),
(176,529,o),
(157,529,cs),
(119,529,o),
(88,499,o),
(88,461,cs),
(88,442,o),
(96,425,o),
(108,413,cs),
(384,137,l),
(205,137,l),
(205,683,ls),
(205,720,o),
(174,751,o),
(137,751,cs),
(99,751,o),
(68,720,o),
(68,683,cs),
(68,60,ls),
(68,25,o),
(93,0,o),
(128,0,cs)
);
}
);
width = 619;
}
);
note = L;
unicode = 76;
},
{
glyphname = Lslash;
kernRight = L;
lastChange = "2023-09-15 13:26:36 +0000";
layers = (
{
layerId = "12AF635E-66FE-4C90-B49C-8787585F2B73";
shapes = (
{
closed = 1;
nodes = (
(56,410,o),
(58,410,o),
(59,411,cs),
(416,532,ls),
(421,534,o),
(425,539,o),
(425,545,cs),
(425,555,o),
(418,561,o),
(411,561,cs),
(409,561,o),
(407,560,o),
(406,560,cs),
(49,438,ls),
(43,437,o),
(40,431,o),
(40,424,cs),
(40,416,o),
(47,410,o),
(54,410,cs)
);
},
{
ref = L;
}
);
width = 610;
},
{
layerId = m004;
shapes = (
{
closed = 1;
nodes = (
(23,332,o),
(31,333,o),
(38,335,cs),
(436,471,ls),
(463,480,o),
(482,505,o),
(482,535,cs),
(482,573,o),
(452,604,o),
(414,604,cs),
(406,604,o),
(399,603,o),
(392,600,cs),
(-6,465,ls),
(-33,456,o),
(-53,430,o),
(-53,400,cs),
(-53,362,o),
(-22,332,o),
(16,332,cs)
);
},
{
ref = L;
}
);
width = 610;
}
);
unicode = 321;
},
{
glyphname = M;
kernLeft = H;
kernRight = H;
lastChange = "2023-09-15 13:26:36 +0000";
layers = (
{
anchors = (
{
name = bottom;
pos = (380,0);
},
{
name = top;
pos = (380,751);
}
);
background = {
hints = (
{
horizontal = 1;
place = (-15,21);
target = up;
type = BottomGhost;
},
{
place = (96,30);
type = Stem;
},
{
place = (706,30);
type = Stem;
}
);
shapes = (
{
closed = 1;
nodes = (
(65,0,ls),
(65,-8,o),
(72,-15,o),
(80,-15,cs),
(88,-15,o),
(95,-8,o),
(95,0,cs),
(95,212,l),
(385,458,l),
(675,212,l),
(675,0,ls),
(675,-8,o),
(682,-15,o),
(689,-15,cs),
(698,-15,o),
(705,-8,o),
(705,0,cs),
(705,736,ls),
(705,743,o),
(702,748,o),
(696,750,cs),
(693,751,o),
(691,751,o),
(689,751,cs),
(686,751,o),
(683,750,o),
(680,747,cs),
(385,497,l),
(90,747,ls),
(86,750,o),
(83,751,o),
(80,751,cs),
(77,751,o),
(75,751,o),
(73,750,cs),
(68,747,o),
(65,742,o),
(65,736,cs)
);
},
{
closed = 1;
nodes = (
(362,478,l),
(95,251,l),
(95,704,l)
);
},
{
closed = 1;
nodes = (
(675,251,l),
(408,478,l),
(675,704,l)
);
}
);
};
layerId = "12AF635E-66FE-4C90-B49C-8787585F2B73";
shapes = (
{
closed = 1;
nodes = (
(685,0,o),
(691,6,o),
(691,15,cs),
(691,729,ls),
(691,742,o),
(682,751,o),
(672,751,cs),
(667,751,o),
(662,749,o),
(657,745,cs),
(77,248,ls),
(74,245,o),
(72,241,o),
(72,237,cs),
(72,229,o),
(79,222,o),
(87,222,cs),
(90,222,o),
(94,223,o),
(97,226,cs),
(662,711,l),
(662,15,ls),
(662,6,o),
(668,0,o),
(677,0,cs)
);
},
{
closed = 1;
nodes = (
(91,0,o),
(98,6,o),
(98,15,cs),
(98,711,l),
(663,226,l),
(666,224,o),
(669,222,o),
(673,222,cs),
(681,222,o),
(688,229,o),
(688,237,cs),
(688,241,o),
(686,245,o),
(683,248,cs),
(103,745,ls),
(98,749,o),
(93,751,o),
(88,751,cs),
(78,751,o),
(68,742,o),
(68,729,cs),
(68,15,ls),
(68,6,o),
(75,0,o),
(83,0,cs)
);
}
);
width = 760;
},
{
anchors = (
{
name = bottom;
pos = (434,0);
},
{
name = top;
pos = (434,751);
}
);
background = {
hints = (
{
horizontal = 1;
place = (-15,21);
target = up;
type = BottomGhost;
},
{
place = (96,30);
type = Stem;
},
{
place = (706,30);
type = Stem;
}
);
shapes = (
{
closed = 1;
nodes = (
(104,0,ls),
(104,-8,o),
(111,-15,o),
(119,-15,cs),
(127,-15,o),
(134,-8,o),
(134,0,cs),
(134,212,l),
(424,458,l),
(714,212,l),
(714,0,ls),
(714,-8,o),
(721,-15,o),
(729,-15,cs),
(737,-15,o),
(744,-8,o),
(744,0,cs),
(744,736,ls),
(744,743,o),
(741,748,o),
(735,750,cs),
(732,751,o),
(730,751,o),
(729,751,cs),
(725,751,o),
(722,750,o),
(719,747,cs),
(424,497,l),
(129,747,ls),
(125,750,o),
(122,751,o),
(119,751,cs),
(116,751,o),
(114,751,o),
(112,750,cs),
(107,747,o),
(104,742,o),
(104,736,cs)
);
},
{
closed = 1;
nodes = (
(401,478,l),
(134,251,l),
(134,704,l)
);
},
{
closed = 1;
nodes = (
(714,251,l),
(447,478,l),
(714,704,l)
);
}
);
};
layerId = m004;
shapes = (
{
closed = 1;
nodes = (
(769,0,o),
(800,31,o),
(800,68,cs),
(800,667,ls),
(800,718,o),
(765,751,o),
(724,751,cs),
(705,751,o),
(685,744,o),
(667,728,cs),
(109,250,ls),
(95,238,o),
(86,219,o),
(86,199,cs),
(86,161,o),
(116,130,o),
(154,130,cs),
(171,130,o),
(187,137,o),
(199,147,cs),
(663,545,l),
(663,68,ls),
(663,31,o),
(694,0,o),
(731,0,cs)
);
},
{
closed = 1;
nodes = (
(174,0,o),
(205,31,o),
(205,68,cs),
(205,545,l),
(669,147,ls),
(681,137,o),
(697,130,o),
(714,130,cs),
(752,130,o),
(782,161,o),
(782,199,cs),
(782,219,o),
(773,238,o),
(759,250,cs),
(202,728,ls),
(183,744,o),
(163,751,o),
(144,751,cs),
(104,751,o),
(68,718,o),
(68,667,cs),
(68,68,ls),
(68,31,o),
(99,0,o),
(137,0,cs)
);
}
);
width = 868;
},
{
anchors = (
{
name = _bottom;
pos = (417,0);
},
{
name = _top;
pos = (417,751);
},
{
name = top;
pos = (417,751);
}
);
associatedMasterId = "12AF635E-66FE-4C90-B49C-8787585F2B73";
background = {
hints = (
{
horizontal = 1;
place = (-15,21);
target = up;
type = BottomGhost;
},
{
place = (96,30);
type = Stem;
},
{
place = (706,30);
type = Stem;
}
);
shapes = (
{
closed = 1;
nodes = (
(96,0,ls),
(96,-8,o),
(103,-15,o),
(111,-15,cs),
(119,-15,o),
(126,-8,o),
(126,0,cs),
(126,212,l),
(416,458,l),
(706,212,l),
(706,0,ls),
(706,-8,o),
(713,-15,o),
(721,-15,cs),
(729,-15,o),
(736,-8,o),
(736,0,cs),
(736,736,ls),
(736,743,o),
(733,748,o),
(727,750,cs),
(725,751,o),
(723,751,o),
(721,751,cs),
(717,751,o),
(714,750,o),
(711,747,cs),
(416,497,l),
(121,747,ls),
(118,750,o),
(114,751,o),
(111,751,cs),
(108,751,o),
(106,751,o),
(104,750,cs),
(99,747,o),
(96,742,o),
(96,736,cs)
);
},
{
closed = 1;
nodes = (
(393,478,l),
(126,251,l),
(126,704,l)
);
},
{
closed = 1;
nodes = (
(706,251,l),
(439,478,l),
(706,704,l)
);
}
);
};
layerId = "FFFC5F16-9E1F-4BA3-9B4D-80D8F3040648";
name = "18 août 23 à 08:55";
shapes = (
{
closed = 0;
nodes = (
(100,0,l),
(100,751,l),
(724,216,l)
);
},
{
closed = 0;
nodes = (
(100,216,l),
(724,751,l),
(724,0,l)
);
}
);
width = 834;
},
{
anchors = (
{
name = _bottom;
pos = (417,0);
},
{
name = _top;
pos = (417,751);
},
{
name = top;
pos = (417,751);
}
);
associatedMasterId = m004;
background = {
hints = (
{
horizontal = 1;
place = (-15,21);
target = up;
type = BottomGhost;
},
{
place = (96,30);
type = Stem;
},
{
place = (706,30);
type = Stem;
}
);
shapes = (
{
closed = 1;
nodes = (
(96,0,ls),
(96,-8,o),
(103,-15,o),
(111,-15,cs),
(119,-15,o),
(126,-8,o),
(126,0,cs),
(126,212,l),
(416,458,l),
(706,212,l),
(706,0,ls),
(706,-8,o),
(713,-15,o),
(721,-15,cs),
(729,-15,o),
(736,-8,o),
(736,0,cs),
(736,736,ls),
(736,743,o),
(733,748,o),
(727,750,cs),
(725,751,o),
(723,751,o),
(721,751,cs),
(717,751,o),
(714,750,o),
(711,747,cs),
(416,497,l),
(121,747,ls),
(118,750,o),
(114,751,o),
(111,751,cs),
(108,751,o),
(106,751,o),
(104,750,cs),
(99,747,o),
(96,742,o),
(96,736,cs)
);
},
{
closed = 1;
nodes = (
(393,478,l),
(126,251,l),
(126,704,l)
);
},
{
closed = 1;
nodes = (
(706,251,l),
(439,478,l),
(706,704,l)
);
}
);
};
layerId = "FDE62B83-02D6-4EC9-B971-418A658456F6";
name = "18 août 23 à 08:55";
shapes = (
{
closed = 0;
nodes = (
(100,0,l),
(100,751,l),
(724,216,l)
);
},
{
closed = 0;
nodes = (
(100,216,l),
(724,751,l),
(724,0,l)
);
}
);
width = 834;
},
{
anchors = (
{
name = _bottom;
pos = (417,0);
},
{
name = _top;
pos = (417,751);
},
{
name = top;
pos = (417,751);
}
);
associatedMasterId = m004;
background = {
hints = (
{
horizontal = 1;
place = (-15,21);
target = up;
type = BottomGhost;
},
{
place = (96,30);
type = Stem;
},
{
place = (706,30);
type = Stem;
}
);
shapes = (
{
closed = 1;
nodes = (
(96,0,ls),
(96,-8,o),
(103,-15,o),
(111,-15,cs),
(119,-15,o),
(126,-8,o),
(126,0,cs),
(126,212,l),
(416,458,l),
(706,212,l),
(706,0,ls),
(706,-8,o),
(713,-15,o),
(721,-15,cs),
(729,-15,o),
(736,-8,o),
(736,0,cs),
(736,736,ls),
(736,743,o),
(733,748,o),
(727,750,cs),
(725,751,o),
(723,751,o),
(721,751,cs),
(717,751,o),
(714,750,o),
(711,747,cs),
(416,497,l),
(121,747,ls),
(118,750,o),
(114,751,o),
(111,751,cs),
(108,751,o),
(106,751,o),
(104,750,cs),
(99,747,o),
(96,742,o),
(96,736,cs)
);
},
{
closed = 1;
nodes = (
(393,478,l),
(126,251,l),
(126,704,l)
);
},
{
closed = 1;
nodes = (
(706,251,l),
(439,478,l),
(706,704,l)
);
}
);
};
layerId = "254139BD-28CF-4105-9A90-C32DDD3738A1";
name = "18 août 23 à 09:49";
shapes = (
{
closed = 0;
nodes = (
(100,0,l),
(100,751,l),
(724,216,l)
);
},
{
closed = 0;
nodes = (
(100,216,l),
(724,751,l),
(724,0,l)
);
}
);
width = 834;
},
{
anchors = (
{
name = _bottom;
pos = (417,0);
},
{
name = _top;
pos = (417,751);
},
{
name = top;
pos = (417,751);
}
);
associatedMasterId = "12AF635E-66FE-4C90-B49C-8787585F2B73";
background = {
hints = (
{
horizontal = 1;
place = (-15,21);
target = up;
type = BottomGhost;
},
{
place = (96,30);
type = Stem;
},
{
place = (706,30);
type = Stem;
}
);
shapes = (
{
closed = 1;
nodes = (
(96,0,ls),
(96,-8,o),
(103,-15,o),
(111,-15,cs),
(119,-15,o),
(126,-8,o),
(126,0,cs),
(126,212,l),
(416,458,l),
(706,212,l),
(706,0,ls),
(706,-8,o),
(713,-15,o),
(721,-15,cs),
(729,-15,o),
(736,-8,o),
(736,0,cs),
(736,736,ls),
(736,743,o),
(733,748,o),
(727,750,cs),
(725,751,o),
(723,751,o),
(721,751,cs),
(717,751,o),
(714,750,o),
(711,747,cs),
(416,497,l),
(121,747,ls),
(118,750,o),
(114,751,o),
(111,751,cs),
(108,751,o),
(106,751,o),
(104,750,cs),
(99,747,o),
(96,742,o),
(96,736,cs)
);
},
{
closed = 1;
nodes = (
(393,478,l),
(126,251,l),
(126,704,l)
);
},
{
closed = 1;
nodes = (
(706,251,l),
(439,478,l),
(706,704,l)
);
}
);
};
layerId = "822DBE6D-6BD8-4C0A-BC68-FE5037A8A5A4";
name = "18 août 23 à 09:49";
shapes = (
{
closed = 0;
nodes = (
(100,0,l),
(100,751,l),
(724,216,l)
);
},
{
closed = 0;
nodes = (
(100,216,l),
(724,751,l),
(724,0,l)
);
}
);
width = 834;
}
);
note = M;
unicode = 77;
},
{
glyphname = N;
kernLeft = H;
kernRight = H;
lastChange = "2023-09-15 13:26:36 +0000";
layers = (
{
anchors = (
{
name = bottom;
pos = (339,0);
},
{
name = top;
pos = (339,751);
}
);
background = {
hints = (
{
horizontal = 1;
place = (-15,30);
type = Stem;
},
{
place = (96,30);
type = Stem;
},
{
place = (600,30);
type = Stem;
}
);
shapes = (
{
closed = 1;
nodes = (
(80,0,ls),
(80,-9,o),
(85,-15,o),
(94,-15,cs),
(596,-15,ls),
(607,-15,o),
(613,-10,o),
(613,0,cs),
(613,736,ls),
(613,746,o),
(608,751,o),
(598,751,cs),
(588,751,o),
(583,746,o),
(583,736,cs),
(583,48,l),
(106,744,ls),
(104,749,o),
(100,751,o),
(95,751,cs),
(94,751,o),
(92,751,o),
(90,750,cs),
(83,748,o),
(80,743,o),
(80,736,cs)
);
},
{
closed = 1;
nodes = (
(570,15,l),
(109,15,l),
(109,688,l)
);
}
);
};
layerId = "12AF635E-66FE-4C90-B49C-8787585F2B73";
shapes = (
{
closed = 1;
nodes = (
(594,0,l),
(605,31,l),
(114,740,ls),
(99,761,o),
(68,751,o),
(68,726,cs),
(68,16,ls),
(68,7,o),
(75,0,o),
(84,0,cs)
);
},
{
closed = 1;
nodes = (
(98,711,l),
(570,29,l),
(98,29,l)
);
},
{
closed = 1;
nodes = (
(603,0,o),
(609,6,o),
(609,15,cs),
(609,736,ls),
(609,745,o),
(603,751,o),
(594,751,cs),
(586,751,o),
(580,745,o),
(580,736,cs),
(580,15,ls),
(580,6,o),
(586,0,o),
(594,0,cs)
);
}
);
width = 677;
},
{
anchors = (
{
name = bottom;
pos = (395,0);
},
{
name = top;
pos = (395,751);
}
);
background = {
hints = (
{
horizontal = 1;
place = (-15,30);
type = Stem;
},
{
place = (96,30);
type = Stem;
},
{
place = (600,30);
type = Stem;
}
);
shapes = (
{
closed = 1;
nodes = (
(133,0,ls),
(133,-9,o),
(139,-15,o),
(148,-15,cs),
(650,-15,ls),
(661,-15,o),
(667,-10,o),
(667,0,cs),
(667,736,ls),
(667,746,o),
(662,751,o),
(652,751,cs),
(642,751,o),
(637,746,o),
(637,736,cs),
(637,48,l),
(160,744,ls),
(157,749,o),
(153,751,o),
(149,751,cs),
(147,751,o),
(146,751,o),
(144,750,cs),
(137,748,o),
(133,743,o),
(133,736,cs)
);
},
{
closed = 1;
nodes = (
(624,15,l),
(163,15,l),
(163,688,l)
);
}
);
};
layerId = m004;
shapes = (
{
closed = 1;
nodes = (
(652,0,l),
(700,119,l),
(245,707,ls),
(184,786,o),
(68,752,o),
(68,652,cs),
(68,60,ls),
(68,25,o),
(93,0,o),
(128,0,cs)
);
},
{
closed = 1;
nodes = (
(205,535,l),
(514,137,l),
(205,137,l)
);
},
{
closed = 1;
nodes = (
(689,0,o),
(720,31,o),
(720,68,cs),
(720,683,ls),
(720,720,o),
(689,751,o),
(652,751,cs),
(614,751,o),
(583,720,o),
(583,683,cs),
(583,68,ls),
(583,31,o),
(614,0,o),
(652,0,cs)
);
}
);
width = 789;
},
{
anchors = (
{
name = _bottom;
pos = (367,0);
},
{
name = _top;
pos = (367,751);
},
{
name = top;
pos = (367,751);
}
);
associatedMasterId = m004;
background = {
hints = (
{
horizontal = 1;
place = (-15,30);
type = Stem;
},
{
place = (96,30);
type = Stem;
},
{
place = (600,30);
type = Stem;
}
);
shapes = (
{
closed = 1;
nodes = (
(96,0,ls),
(96,-9,o),
(102,-15,o),
(111,-15,cs),
(613,-15,ls),
(624,-15,o),
(630,-10,o),
(630,0,cs),
(630,736,ls),
(630,746,o),
(625,751,o),
(615,751,cs),
(605,751,o),
(600,746,o),
(600,736,cs),
(600,48,l),
(123,744,ls),
(120,749,o),
(116,751,o),
(112,751,cs),
(110,751,o),
(108,751,o),
(106,750,cs),
(100,748,o),
(96,743,o),
(96,736,cs)
);
},
{
closed = 1;
nodes = (
(587,15,l),
(126,15,l),
(126,688,l)
);
}
);
};
layerId = "B8FDDAF7-C3DA-44E9-A747-075081605FE8";
name = "18 août 23 à 08:55";
shapes = (
{
closed = 1;
nodes = (
(100,751,l),
(615,0,l),
(100,0,l)
);
},
{
closed = 0;
nodes = (
(615,0,l),
(615,751,l)
);
}
);
width = 735;
},
{
anchors = (
{
name = _bottom;
pos = (367,0);
},
{
name = _top;
pos = (367,751);
},
{
name = top;
pos = (367,751);
}
);
associatedMasterId = "12AF635E-66FE-4C90-B49C-8787585F2B73";
background = {
hints = (
{
horizontal = 1;
place = (-15,30);
type = Stem;
},
{
place = (96,30);
type = Stem;
},
{
place = (600,30);
type = Stem;
}
);
shapes = (
{
closed = 1;
nodes = (
(96,0,ls),
(96,-9,o),
(102,-15,o),
(111,-15,cs),
(613,-15,ls),
(624,-15,o),
(630,-10,o),
(630,0,cs),
(630,736,ls),
(630,746,o),
(625,751,o),
(615,751,cs),
(605,751,o),
(600,746,o),
(600,736,cs),
(600,48,l),
(123,744,ls),
(120,749,o),
(116,751,o),
(112,751,cs),
(110,751,o),
(108,751,o),
(106,750,cs),
(100,748,o),
(96,743,o),
(96,736,cs)
);
},
{
closed = 1;
nodes = (
(587,15,l),
(126,15,l),
(126,688,l)
);
}
);
};
layerId = "98D94E53-70F5-46B5-9D28-69342A076A2F";
name = "18 août 23 à 08:55";
shapes = (
{
closed = 1;
nodes = (
(100,751,l),
(615,0,l),
(100,0,l)
);
},
{
closed = 0;
nodes = (
(615,0,l),
(615,751,l)
);
}
);
width = 735;
}
);
note = N;
unicode = 78;
},
{
glyphname = Nhookleft;
kernLeft = H;
kernRight = H;
lastChange = "2023-09-15 13:26:36 +0000";
layers = (
{
layerId = "12AF635E-66FE-4C90-B49C-8787585F2B73";
shapes = (
{
closed = 1;
nodes = (
(38,-317,o),
(98,-262,o),
(98,-193,cs),
(98,36,l),
(68,34,l),
(68,-193,ls),
(68,-247,o),
(24,-288,o),
(-35,-288,cs),
(-54,-288,o),
(-70,-283,o),
(-87,-275,cs),
(-89,-274,o),
(-91,-273,o),
(-93,-273,cs),
(-102,-273,o),
(-108,-280,o),
(-108,-288,cs),
(-108,-294,o),
(-104,-299,o),
(-100,-301,cs),
(-81,-311,o),
(-58,-317,o),
(-35,-317,cs)
);
},
{
ref = N;
}
);
width = 677;
},
{
layerId = m004;
shapes = (
{
closed = 1;
nodes = (
(132,-371,o),
(206,-281,o),
(206,-193,cs),
(206,71,l),
(69,71,l),
(69,-193,ls),
(69,-224,o),
(58,-234,o),
(20,-234,cs),
(7,-234,o),
(3,-232,o),
(-8,-227,cs),
(-18,-222,o),
(-28,-220,o),
(-39,-220,cs),
(-77,-220,o),
(-107,-250,o),
(-107,-288,cs),
(-107,-315,o),
(-92,-338,o),
(-70,-349,cs),
(-40,-364,o),
(-8,-371,o),
(20,-371,cs)
);
},
{
ref = N;
}
);
width = 789;
}
);
unicode = 413;
},
{
glyphname = Eng;
kernLeft = H;
kernRight = H;
lastChange = "2023-09-15 13:26:36 +0000";
layers = (
{
layerId = "12AF635E-66FE-4C90-B49C-8787585F2B73";
shapes = (
{
closed = 1;
nodes = (
(549,-317,o),
(608,-262,o),
(608,-193,cs),
(608,36,l),
(579,34,l),
(579,-193,ls),
(579,-247,o),
(535,-288,o),
(476,-288,cs),
(457,-288,o),
(440,-283,o),
(424,-275,cs),
(422,-274,o),
(420,-273,o),
(417,-273,cs),
(409,-273,o),
(403,-280,o),
(403,-288,cs),
(403,-294,o),
(406,-299,o),
(411,-301,cs),
(430,-311,o),
(453,-317,o),
(476,-317,cs)
);
},
{
ref = N;
}
);
width = 677;
},
{
layerId = m004;
shapes = (
{
closed = 1;
nodes = (
(647,-371,o),
(720,-281,o),
(720,-193,cs),
(720,71,l),
(583,71,l),
(583,-193,ls),
(583,-224,o),
(572,-234,o),
(534,-234,cs),
(522,-234,o),
(518,-232,o),
(506,-227,cs),
(497,-222,o),
(487,-220,o),
(476,-220,cs),
(438,-220,o),
(407,-250,o),
(407,-288,cs),
(407,-315,o),
(422,-338,o),
(445,-349,cs),
(475,-364,o),
(506,-371,o),
(534,-371,cs)
);
},
{
ref = N;
}
);
width = 789;
}
);
unicode = 330;
},
{
glyphname = O;
kernLeft = O;
kernRight = O;
lastChange = "2023-09-15 13:26:36 +0000";
layers = (
{
anchors = (
{
name = bottom;
pos = (439,0);
},
{
name = center;
pos = (439,375);
},
{
name = ogonek;
pos = (501,5);
},
{
name = top;
pos = (439,751);
},
{
name = topleft;
pos = (10,751);
},
{
name = topright;
pos = (869,751);
}
);
background = {
hints = (
{
horizontal = 1;
place = (-16,30);
type = Stem;
},
{
horizontal = 1;
place = (723,30);
type = Stem;
},
{
place = (54,30);
type = Stem;
},
{
place = (793,30);
type = Stem;
}
);
shapes = (
{
closed = 1;
nodes = (
(156,116,o),
(203,70,o),
(262,35,cs),
(321,1,o),
(385,-16,o),
(455,-16,cs),
(524,-16,o),
(588,1,o),
(647,35,cs),
(707,70,o),
(753,116,o),
(788,175,cs),
(822,234,o),
(839,299,o),
(839,369,cs),
(839,438,o),
(822,502,o),
(788,562,cs),
(753,621,o),
(707,667,o),
(647,701,cs),
(588,736,o),
(524,753,o),
(455,753,cs),
(385,753,o),
(321,736,o),
(262,701,cs),
(203,667,o),
(156,621,o),
(122,562,cs),
(87,502,o),
(70,438,o),
(70,369,cs),
(70,299,o),
(87,234,o),
(122,175,cs)
);
},
{
closed = 1;
nodes = (
(179,601,o),
(222,644,o),
(276,675,cs),
(331,707,o),
(390,723,o),
(455,723,cs),
(519,723,o),
(579,707,o),
(633,675,cs),
(687,644,o),
(730,601,o),
(762,546,cs),
(793,492,o),
(809,433,o),
(809,368,cs),
(809,304,o),
(793,245,o),
(762,190,cs),
(730,136,o),
(687,93,o),
(633,62,cs),
(579,30,o),
(519,14,o),
(455,14,cs),
(390,14,o),
(331,30,o),
(276,62,cs),
(222,93,o),
(179,136,o),
(147,190,cs),
(116,245,o),
(100,304,o),
(100,368,cs),
(100,433,o),
(116,492,o),
(147,546,cs)
);
}
);
};
layerId = "12AF635E-66FE-4C90-B49C-8787585F2B73";
shapes = (
{
closed = 1;
nodes = (
(655,-15,o),
(830,159,o),
(830,375,cs),
(830,590,o),
(655,766,o),
(439,766,cs),
(223,766,o),
(49,590,o),
(49,375,cs),
(49,159,o),
(223,-15,o),
(439,-15,cs)
);
},
{
closed = 1;
nodes = (
(235,15,o),
(78,171,o),
(78,375,cs),
(78,578,o),
(235,736,o),
(439,736,cs),
(643,736,o),
(800,578,o),
(800,375,cs),
(800,171,o),
(643,15,o),
(439,15,cs)
);
}
);
width = 878;
},
{
anchors = (
{
name = bottom;
pos = (439,0);
},
{
name = center;
pos = (439,375);
},
{
name = ogonek;
pos = (416,5);
},
{
name = top;
pos = (439,751);
},
{
name = topleft;
pos = (10,751);
},
{
name = topright;
pos = (869,751);
}
);
background = {
hints = (
{
horizontal = 1;
place = (-16,30);
type = Stem;
},
{
horizontal = 1;
place = (723,30);
type = Stem;
},
{
place = (54,30);
type = Stem;
},
{
place = (793,30);
type = Stem;
}
);
shapes = (
{
closed = 1;
nodes = (
(156,116,o),
(203,70,o),
(262,35,cs),
(321,1,o),
(385,-16,o),
(455,-16,cs),
(524,-16,o),
(588,1,o),
(647,35,cs),
(707,70,o),
(753,116,o),
(788,175,cs),
(822,234,o),
(839,299,o),
(839,369,cs),
(839,438,o),
(822,502,o),
(788,562,cs),
(753,621,o),
(707,667,o),
(647,701,cs),
(588,736,o),
(524,753,o),
(455,753,cs),
(385,753,o),
(321,736,o),
(262,701,cs),
(203,667,o),
(156,621,o),
(122,562,cs),
(87,502,o),
(70,438,o),
(70,369,cs),
(70,299,o),
(87,234,o),
(122,175,cs)
);
},
{
closed = 1;
nodes = (
(179,601,o),
(222,644,o),
(276,675,cs),
(331,707,o),
(390,723,o),
(455,723,cs),
(519,723,o),
(579,707,o),
(633,675,cs),
(687,644,o),
(730,601,o),
(762,546,cs),
(793,492,o),
(809,433,o),
(809,368,cs),
(809,304,o),
(793,245,o),
(762,190,cs),
(730,136,o),
(687,93,o),
(633,62,cs),
(579,30,o),
(519,14,o),
(455,14,cs),
(390,14,o),
(331,30,o),
(276,62,cs),
(222,93,o),
(179,136,o),
(147,190,cs),
(116,245,o),
(100,304,o),
(100,368,cs),
(100,433,o),
(116,492,o),
(147,546,cs)
);
}
);
};
layerId = m004;
shapes = (
{
closed = 1;
nodes = (
(655,-15,o),
(830,159,o),
(830,375,cs),
(830,590,o),
(655,766,o),
(439,766,cs),
(223,766,o),
(49,590,o),
(49,375,cs),
(49,159,o),
(223,-15,o),
(439,-15,cs)
);
},
{
closed = 1;
nodes = (
(280,122,o),
(186,215,o),
(186,375,cs),
(186,534,o),
(280,629,o),
(439,629,cs),
(599,629,o),
(693,534,o),
(693,375,cs),
(693,215,o),
(599,122,o),
(439,122,cs)
);
}
);
width = 878;
},
{
anchors = (
{
name = _bottom;
pos = (439,0);
},
{
name = _top;
pos = (439,751);
},
{
name = top;
pos = (439,751);
}
);
associatedMasterId = "12AF635E-66FE-4C90-B49C-8787585F2B73";
background = {
hints = (
{
horizontal = 1;
place = (-16,30);
type = Stem;
},
{
horizontal = 1;
place = (723,30);
type = Stem;
},
{
place = (54,30);
type = Stem;
},
{
place = (793,30);
type = Stem;
}
);
shapes = (
{
closed = 1;
nodes = (
(156,116,o),
(203,70,o),
(262,35,cs),
(321,1,o),
(385,-16,o),
(455,-16,cs),
(524,-16,o),
(588,1,o),
(647,35,cs),
(707,70,o),
(753,116,o),
(788,175,cs),
(822,234,o),
(839,299,o),
(839,369,cs),
(839,438,o),
(822,502,o),
(788,562,cs),
(753,621,o),
(707,667,o),
(647,701,cs),
(588,736,o),
(524,753,o),
(455,753,cs),
(385,753,o),
(321,736,o),
(262,701,cs),
(203,667,o),
(156,621,o),
(122,562,cs),
(87,502,o),
(70,438,o),
(70,369,cs),
(70,299,o),
(87,234,o),
(122,175,cs)
);
},
{
closed = 1;
nodes = (
(179,601,o),
(222,644,o),
(276,675,cs),
(331,707,o),
(390,723,o),
(455,723,cs),
(519,723,o),
(579,707,o),
(633,675,cs),
(687,644,o),
(730,601,o),
(762,546,cs),
(793,492,o),
(809,433,o),
(809,368,cs),
(809,304,o),
(793,245,o),
(762,190,cs),
(730,136,o),
(687,93,o),
(633,62,cs),
(579,30,o),
(519,14,o),
(455,14,cs),
(390,14,o),
(331,30,o),
(276,62,cs),
(222,93,o),
(179,136,o),
(147,190,cs),
(116,245,o),
(100,304,o),
(100,368,cs),
(100,433,o),
(116,492,o),
(147,546,cs)
);
}
);
};
layerId = "3C20FD76-417B-44BF-B596-2506F5AD0F17";
name = "18 août 23 à 09:48";
shapes = (
{
closed = 1;
nodes = (
(655,-15,o),
(830,159,o),
(830,375,cs),
(830,590,o),
(655,766,o),
(439,766,cs),
(223,766,o),
(49,590,o),
(49,375,cs),
(49,159,o),
(223,-15,o),
(439,-15,cs)
);
}
);
width = 878;
},
{
anchors = (
{
name = _bottom;
pos = (439,0);
},
{
name = _top;
pos = (439,751);
},
{
name = top;
pos = (439,751);
}
);
associatedMasterId = m004;
background = {
hints = (
{
horizontal = 1;
place = (-16,30);
type = Stem;
},
{
horizontal = 1;
place = (723,30);
type = Stem;
},
{
place = (54,30);
type = Stem;
},
{
place = (793,30);
type = Stem;
}
);
shapes = (
{
closed = 1;
nodes = (
(156,116,o),
(203,70,o),
(262,35,cs),
(321,1,o),
(385,-16,o),
(455,-16,cs),
(524,-16,o),
(588,1,o),
(647,35,cs),
(707,70,o),
(753,116,o),
(788,175,cs),
(822,234,o),
(839,299,o),
(839,369,cs),
(839,438,o),
(822,502,o),
(788,562,cs),
(753,621,o),
(707,667,o),
(647,701,cs),
(588,736,o),
(524,753,o),
(455,753,cs),
(385,753,o),
(321,736,o),
(262,701,cs),
(203,667,o),
(156,621,o),
(122,562,cs),
(87,502,o),
(70,438,o),
(70,369,cs),
(70,299,o),
(87,234,o),
(122,175,cs)
);
},
{
closed = 1;
nodes = (
(179,601,o),
(222,644,o),
(276,675,cs),
(331,707,o),
(390,723,o),
(455,723,cs),
(519,723,o),
(579,707,o),
(633,675,cs),
(687,644,o),
(730,601,o),
(762,546,cs),
(793,492,o),
(809,433,o),
(809,368,cs),
(809,304,o),
(793,245,o),
(762,190,cs),
(730,136,o),
(687,93,o),
(633,62,cs),
(579,30,o),
(519,14,o),
(455,14,cs),
(390,14,o),
(331,30,o),
(276,62,cs),
(222,93,o),
(179,136,o),
(147,190,cs),
(116,245,o),
(100,304,o),
(100,368,cs),
(100,433,o),
(116,492,o),
(147,546,cs)
);
}
);
};
layerId = "EA0859D5-BDF6-465A-A6D9-8958477DF7EB";
name = "18 août 23 à 09:48";
shapes = (
{
closed = 1;
nodes = (
(655,-15,o),
(830,159,o),
(830,375,cs),
(830,590,o),
(655,766,o),
(439,766,cs),
(223,766,o),
(49,590,o),
(49,375,cs),
(49,159,o),
(223,-15,o),
(439,-15,cs)
);
}
);
width = 878;
}
);
note = O;
unicode = 79;
},
{
glyphname = P;
kernLeft = H;
kernRight = P;
lastChange = "2023-09-15 13:26:36 +0000";
layers = (
{
anchors = (
{
name = bottom;
pos = (277,0);
},
{
name = top;
pos = (277,751);
}
);
background = {
hints = (
{
horizontal = 1;
place = (-15,21);
target = up;
type = BottomGhost;
},
{
horizontal = 1;
place = (257,30);
type = Stem;
},
{
horizontal = 1;
place = (721,30);
type = Stem;
},
{
place = (109,30);
type = Stem;
},
{
place = (531,30);
type = Stem;
}
);
shapes = (
{
closed = 1;
nodes = (
(78,0,ls),
(78,-10,o),
(83,-15,o),
(93,-15,cs),
(103,-15,o),
(108,-10,o),
(108,0,cs),
(108,257,l),
(283,257,ls),
(351,257,o),
(409,281,o),
(457,329,cs),
(505,377,o),
(530,436,o),
(530,504,cs),
(530,572,o),
(505,630,o),
(457,678,cs),
(409,727,o),
(351,751,o),
(283,751,cs),
(93,751,ls),
(83,751,o),
(78,746,o),
(78,736,cs)
);
},
{
closed = 1;
nodes = (
(108,287,l),
(108,721,l),
(283,721,ls),
(343,721,o),
(394,700,o),
(436,658,cs),
(479,615,o),
(500,564,o),
(500,504,cs),
(500,444,o),
(479,393,o),
(436,351,cs),
(394,308,o),
(343,287,o),
(283,287,cs)
);
}
);
};
layerId = "12AF635E-66FE-4C90-B49C-8787585F2B73";
shapes = (
{
closed = 1;
nodes = (
(91,0,o),
(98,6,o),
(98,14,cs),
(98,722,l),
(259,722,ls),
(383,722,o),
(477,628,o),
(477,504,cs),
(477,380,o),
(383,287,o),
(259,287,cs),
(91,287,ls),
(83,287,o),
(77,280,o),
(77,272,cs),
(77,264,o),
(83,257,o),
(91,257,cs),
(259,257,ls),
(396,257,o),
(506,368,o),
(506,504,cs),
(506,641,o),
(396,751,o),
(259,751,cs),
(84,751,ls),
(75,751,o),
(68,744,o),
(68,735,cs),
(68,14,ls),
(68,6,o),
(75,0,o),
(83,0,cs)
);
}
);
width = 555;
},
{
anchors = (
{
name = bottom;
pos = (307,0);
},
{
name = top;
pos = (307,751);
}
);
background = {
hints = (
{
horizontal = 1;
place = (-15,21);
target = up;
type = BottomGhost;
},
{
horizontal = 1;
place = (257,30);
type = Stem;
},
{
horizontal = 1;
place = (721,30);
type = Stem;
},
{
place = (109,30);
type = Stem;
},
{
place = (531,30);
type = Stem;
}
);
shapes = (
{
closed = 1;
nodes = (
(78,0,ls),
(78,-10,o),
(83,-15,o),
(93,-15,cs),
(103,-15,o),
(108,-10,o),
(108,0,cs),
(108,257,l),
(283,257,ls),
(351,257,o),
(409,281,o),
(457,329,cs),
(505,377,o),
(530,436,o),
(530,504,cs),
(530,572,o),
(505,630,o),
(457,678,cs),
(409,727,o),
(351,751,o),
(283,751,cs),
(93,751,ls),
(83,751,o),
(78,746,o),
(78,736,cs)
);
},
{
closed = 1;
nodes = (
(108,287,l),
(108,721,l),
(283,721,ls),
(343,721,o),
(394,700,o),
(436,658,cs),
(479,615,o),
(500,564,o),
(500,504,cs),
(500,444,o),
(479,393,o),
(436,351,cs),
(394,308,o),
(343,287,o),
(283,287,cs)
);
}
);
};
layerId = m004;
shapes = (
{
closed = 1;
nodes = (
(174,0,o),
(205,31,o),
(205,68,cs),
(205,614,l),
(318,614,ls),
(378,614,o),
(428,574,o),
(428,504,cs),
(428,434,o),
(378,394,o),
(318,394,cs),
(188,394,ls),
(151,394,o),
(120,363,o),
(120,326,cs),
(120,288,o),
(151,257,o),
(188,257,cs),
(318,257,ls),
(454,257,o),
(564,368,o),
(564,504,cs),
(564,641,o),
(454,751,o),
(318,751,cs),
(128,751,ls),
(93,751,o),
(68,726,o),
(68,691,cs),
(68,68,ls),
(68,31,o),
(99,0,o),
(137,0,cs)
);
}
);
width = 613;
},
{
anchors = (
{
name = _bottom;
pos = (323,0);
},
{
name = _top;
pos = (323,751);
},
{
name = top;
pos = (323,751);
}
);
associatedMasterId = m004;
background = {
hints = (
{
horizontal = 1;
place = (-15,21);
target = up;
type = BottomGhost;
},
{
horizontal = 1;
place = (257,30);
type = Stem;
},
{
horizontal = 1;
place = (721,30);
type = Stem;
},
{
place = (109,30);
type = Stem;
},
{
place = (531,30);
type = Stem;
}
);
shapes = (
{
closed = 1;
nodes = (
(109,0,ls),
(109,-10,o),
(114,-15,o),
(124,-15,cs),
(134,-15,o),
(139,-10,o),
(139,0,cs),
(139,257,l),
(314,257,ls),
(382,257,o),
(440,281,o),
(488,329,cs),
(537,377,o),
(561,436,o),
(561,504,cs),
(561,572,o),
(537,630,o),
(488,678,cs),
(440,727,o),
(382,751,o),
(314,751,cs),
(124,751,ls),
(114,751,o),
(109,746,o),
(109,736,cs)
);
},
{
closed = 1;
nodes = (
(139,287,l),
(139,721,l),
(314,721,ls),
(374,721,o),
(425,700,o),
(467,658,cs),
(510,615,o),
(531,564,o),
(531,504,cs),
(531,444,o),
(510,393,o),
(467,351,cs),
(425,308,o),
(374,287,o),
(314,287,cs)
);
}
);
};
layerId = "CAB5FBC5-47EB-4E6C-BD36-1525ED66F332";
name = "18 août 23 à 09:48";
shapes = (
{
closed = 0;
nodes = (
(100,0,l),
(100,751,l),
(291,751,ls),
(427,751,o),
(537,641,o),
(537,504,cs),
(537,368,o),
(427,257,o),
(291,257,cs),
(100,257,l)
);
}
);
width = 646;
},
{
anchors = (
{
name = _bottom;
pos = (323,0);
},
{
name = _top;
pos = (323,751);
},
{
name = top;
pos = (323,751);
}
);
associatedMasterId = "12AF635E-66FE-4C90-B49C-8787585F2B73";
background = {
hints = (
{
horizontal = 1;
place = (-15,21);
target = up;
type = BottomGhost;
},
{
horizontal = 1;
place = (257,30);
type = Stem;
},
{
horizontal = 1;
place = (721,30);
type = Stem;
},
{
place = (109,30);
type = Stem;
},
{
place = (531,30);
type = Stem;
}
);
shapes = (
{
closed = 1;
nodes = (
(109,0,ls),
(109,-10,o),
(114,-15,o),
(124,-15,cs),
(134,-15,o),
(139,-10,o),
(139,0,cs),
(139,257,l),
(314,257,ls),
(382,257,o),
(440,281,o),
(488,329,cs),
(537,377,o),
(561,436,o),
(561,504,cs),
(561,572,o),
(537,630,o),
(488,678,cs),
(440,727,o),
(382,751,o),
(314,751,cs),
(124,751,ls),
(114,751,o),
(109,746,o),
(109,736,cs)
);
},
{
closed = 1;
nodes = (
(139,287,l),
(139,721,l),
(314,721,ls),
(374,721,o),
(425,700,o),
(467,658,cs),
(510,615,o),
(531,564,o),
(531,504,cs),
(531,444,o),
(510,393,o),
(467,351,cs),
(425,308,o),
(374,287,o),
(314,287,cs)
);
}
);
};
layerId = "05823890-4C22-4B2A-996F-2213AF241B90";
name = "18 août 23 à 09:48";
shapes = (
{
closed = 0;
nodes = (
(100,0,l),
(100,751,l),
(291,751,ls),
(427,751,o),
(537,641,o),
(537,504,cs),
(537,368,o),
(427,257,o),
(291,257,cs),
(100,257,l)
);
}
);
width = 646;
}
);
note = P;
unicode = 80;
},
{
glyphname = Thorn;
kernLeft = H;
kernRight = P;
lastChange = "2023-09-15 13:26:36 +0000";
layers = (
{
hints = (
{
horizontal = 1;
place = (257,30);
type = Stem;
},
{
horizontal = 1;
place = (721,30);
type = Stem;
},
{
place = (109,30);
type = Stem;
},
{
place = (469,30);
type = Stem;
}
);
layerId = "12AF635E-66FE-4C90-B49C-8787585F2B73";
shapes = (
{
closed = 1;
nodes = (
(277,157,ls),
(423,157,o),
(541,275,o),
(541,421,cs),
(541,567,o),
(423,686,o),
(277,686,cs),
(99,686,ls),
(91,686,o),
(84,679,o),
(84,671,cs),
(84,663,o),
(91,656,o),
(99,656,cs),
(277,656,ls),
(408,656,o),
(512,553,o),
(512,421,cs),
(512,290,o),
(408,186,o),
(277,186,cs),
(99,186,ls),
(91,186,o),
(84,180,o),
(84,171,cs),
(84,163,o),
(91,157,o),
(99,157,cs)
);
},
{
closed = 1;
nodes = (
(91,0,o),
(98,6,o),
(98,15,cs),
(98,736,ls),
(98,745,o),
(91,751,o),
(83,751,cs),
(75,751,o),
(68,745,o),
(68,736,cs),
(68,15,ls),
(68,6,o),
(75,0,o),
(83,0,cs)
);
}
);
width = 590;
},
{
hints = (
{
horizontal = 1;
place = (257,30);
type = Stem;
},
{
horizontal = 1;
place = (721,30);
type = Stem;
},
{
place = (109,30);
type = Stem;
},
{
place = (469,30);
type = Stem;
}
);
layerId = m004;
shapes = (
{
closed = 1;
nodes = (
(362,77,ls),
(536,77,o),
(677,218,o),
(677,392,cs),
(677,566,o),
(536,707,o),
(362,707,cs),
(171,707,ls),
(133,707,o),
(103,676,o),
(103,639,cs),
(103,601,o),
(133,570,o),
(171,570,cs),
(362,570,ls),
(470,570,o),
(540,500,o),
(540,392,cs),
(540,284,o),
(470,213,o),
(362,213,cs),
(171,213,ls),
(133,213,o),
(103,183,o),
(103,145,cs),
(103,107,o),
(133,77,o),
(171,77,cs)
);
},
{
closed = 1;
nodes = (
(174,0,o),
(205,31,o),
(205,68,cs),
(205,683,ls),
(205,720,o),
(174,751,o),
(137,751,cs),
(99,751,o),
(68,720,o),
(68,683,cs),
(68,68,ls),
(68,31,o),
(99,0,o),
(137,0,cs)
);
}
);
width = 726;
}
);
metricLeft = P;
metricRight = P;
note = Thorn;
unicode = 222;
},
{
glyphname = Q;
kernLeft = O;
kernRight = O;
lastChange = "2023-09-15 13:26:36 +0000";
layers = (
{
anchors = (
{
name = bottom;
pos = (439,0);
},
{
name = top;
pos = (439,751);
}
);
background = {
hints = (
{
horizontal = 1;
place = (-16,30);
type = Stem;
},
{
horizontal = 1;
place = (723,30);
type = Stem;
},
{
place = (30,30);
type = Stem;
},
{
place = (769,30);
type = Stem;
}
);
shapes = (
{
closed = 1;
nodes = (
(30,307,o),
(43,250,o),
(69,196,cs),
(96,142,o),
(140,93,o),
(202,49,cs),
(265,6,o),
(335,-16,o),
(415,-16,cs),
(494,-16,o),
(565,6,o),
(628,49,cs),
(691,93,o),
(735,142,o),
(760,196,cs),
(786,250,o),
(799,307,o),
(799,368,cs),
(799,438,o),
(782,502,o),
(747,562,cs),
(713,621,o),
(667,667,o),
(607,701,cs),
(548,736,o),
(484,753,o),
(415,753,cs),
(345,753,o),
(280,736,o),
(221,701,cs),
(162,667,o),
(116,621,o),
(81,562,cs),
(47,502,o),
(30,438,o),
(30,368,cs)
);
},
{
closed = 1;
nodes = (
(429,398,l),
(422,407,o),
(409,407,o),
(404,398,c),
(196,90,l),
(154,124,o),
(121,164,o),
(96,212,cs),
(72,261,o),
(60,313,o),
(60,368,cs),
(60,433,o),
(76,492,o),
(107,546,cs),
(139,601,o),
(182,644,o),
(236,675,cs),
(291,707,o),
(350,723,o),
(415,723,cs),
(479,723,o),
(538,707,o),
(592,675,cs),
(646,644,o),
(689,601,o),
(721,546,cs),
(753,492,o),
(769,433,o),
(769,368,cs),
(769,313,o),
(757,261,o),
(733,212,cs),
(709,164,o),
(676,123,o),
(634,90,c)
);
},
{
closed = 1;
nodes = (
(416,363,l),
(610,72,l),
(551,33,o),
(485,14,o),
(415,14,cs),
(344,14,o),
(279,33,o),
(220,72,c)
);
}
);
};
layerId = "12AF635E-66FE-4C90-B49C-8787585F2B73";
shapes = (
{
closed = 1;
nodes = (
(655,-15,o),
(830,159,o),
(830,375,cs),
(830,590,o),
(655,766,o),
(439,766,cs),
(223,766,o),
(49,590,o),
(49,375,cs),
(49,159,o),
(223,-15,o),
(439,-15,cs)
);
},
{
closed = 1;
nodes = (
(363,15,o),
(292,37,o),
(235,75,c),
(439,374,l),
(644,75,l),
(586,37,o),
(516,15,o),
(439,15,cs)
);
},
{
closed = 1;
nodes = (
(129,158,o),
(78,258,o),
(78,375,cs),
(78,578,o),
(235,736,o),
(439,736,cs),
(643,736,o),
(800,578,o),
(800,375,cs),
(800,258,o),
(749,158,o),
(667,93,c),
(454,405,ls),
(446,416,o),
(432,416,o),
(424,404,cs),
(211,93,l)
);
}
);
width = 878;
},
{
anchors = (
{
name = bottom;
pos = (439,0);
},
{
name = top;
pos = (439,751);
}
);
layerId = m004;
shapes = (
{
closed = 1;
nodes = (
(655,-15,o),
(830,159,o),
(830,375,cs),
(830,590,o),
(655,766,o),
(439,766,cs),
(223,766,o),
(49,590,o),
(49,375,cs),
(49,159,o),
(223,-15,o),
(439,-15,cs)
);
},
{
closed = 1;
nodes = (
(403,122,o),
(371,127,o),
(342,136,c),
(439,279,l),
(537,136,l),
(508,127,o),
(476,122,o),
(439,122,cs)
);
},
{
closed = 1;
nodes = (
(201,256,o),
(186,310,o),
(186,375,cs),
(186,534,o),
(280,629,o),
(439,629,cs),
(599,629,o),
(693,534,o),
(693,375,cs),
(693,310,o),
(677,257,o),
(648,216,c),
(496,439,ls),
(466,481,o),
(412,481,o),
(383,438,cs),
(230,215,l)
);
}
);
width = 878;
},
{
anchors = (
{
name = _bottom;
pos = (415,0);
},
{
name = _top;
pos = (415,751);
},
{
name = top;
pos = (415,751);
}
);
associatedMasterId = "12AF635E-66FE-4C90-B49C-8787585F2B73";
background = {
hints = (
{
horizontal = 1;
place = (-16,30);
type = Stem;
},
{
horizontal = 1;
place = (723,30);
type = Stem;
},
{
place = (30,30);
type = Stem;
},
{
place = (769,30);
type = Stem;
}
);
shapes = (
{
closed = 1;
nodes = (
(30,307,o),
(43,250,o),
(69,196,cs),
(96,142,o),
(140,93,o),
(202,49,cs),
(265,6,o),
(335,-16,o),
(415,-16,cs),
(494,-16,o),
(565,6,o),
(628,49,cs),
(691,93,o),
(735,142,o),
(760,196,cs),
(786,250,o),
(799,307,o),
(799,368,cs),
(799,438,o),
(782,502,o),
(747,562,cs),
(713,621,o),
(667,667,o),
(607,701,cs),
(548,736,o),
(484,753,o),
(415,753,cs),
(345,753,o),
(280,736,o),
(221,701,cs),
(162,667,o),
(116,621,o),
(81,562,cs),
(47,502,o),
(30,438,o),
(30,368,cs)
);
},
{
closed = 1;
nodes = (
(429,398,l),
(422,407,o),
(409,407,o),
(404,398,c),
(196,90,l),
(154,124,o),
(121,164,o),
(96,212,cs),
(72,261,o),
(60,313,o),
(60,368,cs),
(60,433,o),
(76,492,o),
(107,546,cs),
(139,601,o),
(182,644,o),
(236,675,cs),
(291,707,o),
(350,723,o),
(415,723,cs),
(479,723,o),
(538,707,o),
(592,675,cs),
(646,644,o),
(689,601,o),
(721,546,cs),
(753,492,o),
(769,433,o),
(769,368,cs),
(769,313,o),
(757,261,o),
(733,212,cs),
(709,164,o),
(676,123,o),
(634,90,c)
);
},
{
closed = 1;
nodes = (
(416,363,l),
(610,72,l),
(551,33,o),
(485,14,o),
(415,14,cs),
(344,14,o),
(279,33,o),
(220,72,c)
);
}
);
};
layerId = "316821DF-6EF1-4944-AFD5-0BD46F418953";
name = "18 août 23 à 09:48";
shapes = (
{
closed = 1;
nodes = (
(655,-15,o),
(830,159,o),
(830,375,cs),
(830,590,o),
(655,766,o),
(439,766,cs),
(223,766,o),
(49,590,o),
(49,375,cs),
(49,159,o),
(223,-15,o),
(439,-15,cs)
);
},
{
closed = 0;
nodes = (
(212,58,l),
(439,390,l),
(667,58,l)
);
}
);
width = 831;
},
{
anchors = (
{
name = _bottom;
pos = (415,0);
},
{
name = _top;
pos = (415,751);
},
{
name = top;
pos = (415,751);
}
);
associatedMasterId = m004;
background = {
hints = (
{
horizontal = 1;
place = (-16,30);
type = Stem;
},
{
horizontal = 1;
place = (723,30);
type = Stem;
},
{
place = (30,30);
type = Stem;
},
{
place = (769,30);
type = Stem;
}
);
shapes = (
{
closed = 1;
nodes = (
(30,307,o),
(43,250,o),
(69,196,cs),
(96,142,o),
(140,93,o),
(202,49,cs),
(265,6,o),
(335,-16,o),
(415,-16,cs),
(494,-16,o),
(565,6,o),
(628,49,cs),
(691,93,o),
(735,142,o),
(760,196,cs),
(786,250,o),
(799,307,o),
(799,368,cs),
(799,438,o),
(782,502,o),
(747,562,cs),
(713,621,o),
(667,667,o),
(607,701,cs),
(548,736,o),
(484,753,o),
(415,753,cs),
(345,753,o),
(280,736,o),
(221,701,cs),
(162,667,o),
(116,621,o),
(81,562,cs),
(47,502,o),
(30,438,o),
(30,368,cs)
);
},
{
closed = 1;
nodes = (
(429,398,l),
(422,407,o),
(409,407,o),
(404,398,c),
(196,90,l),
(154,124,o),
(121,164,o),
(96,212,cs),
(72,261,o),
(60,313,o),
(60,368,cs),
(60,433,o),
(76,492,o),
(107,546,cs),
(139,601,o),
(182,644,o),
(236,675,cs),
(291,707,o),
(350,723,o),
(415,723,cs),
(479,723,o),
(538,707,o),
(592,675,cs),
(646,644,o),
(689,601,o),
(721,546,cs),
(753,492,o),
(769,433,o),
(769,368,cs),
(769,313,o),
(757,261,o),
(733,212,cs),
(709,164,o),
(676,123,o),
(634,90,c)
);
},
{
closed = 1;
nodes = (
(416,363,l),
(610,72,l),
(551,33,o),
(485,14,o),
(415,14,cs),
(344,14,o),
(279,33,o),
(220,72,c)
);
}
);
};
layerId = "B65FF986-711B-4514-A99D-423403320E64";
name = "18 août 23 à 09:48";
shapes = (
{
closed = 1;
nodes = (
(655,-15,o),
(830,159,o),
(830,375,cs),
(830,590,o),
(655,766,o),
(439,766,cs),
(223,766,o),
(49,590,o),
(49,375,cs),
(49,159,o),
(223,-15,o),
(439,-15,cs)
);
},
{
closed = 0;
nodes = (
(212,58,l),
(439,390,l),
(667,58,l)
);
}
);
width = 831;
},
{
anchors = (
{
name = bottom;
pos = (439,0);
},
{
name = top;
pos = (439,751);
}
);
associatedMasterId = "12AF635E-66FE-4C90-B49C-8787585F2B73";
background = {
hints = (
{
horizontal = 1;
place = (-16,30);
type = Stem;
},
{
horizontal = 1;
place = (723,30);
type = Stem;
},
{
place = (30,30);
type = Stem;
},
{
place = (769,30);
type = Stem;
}
);
shapes = (
{
closed = 1;
nodes = (
(30,307,o),
(43,250,o),
(69,196,cs),
(96,142,o),
(140,93,o),
(202,49,cs),
(265,6,o),
(335,-16,o),
(415,-16,cs),
(494,-16,o),
(565,6,o),
(628,49,cs),
(691,93,o),
(735,142,o),
(760,196,cs),
(786,250,o),
(799,307,o),
(799,368,cs),
(799,438,o),
(782,502,o),
(747,562,cs),
(713,621,o),
(667,667,o),
(607,701,cs),
(548,736,o),
(484,753,o),
(415,753,cs),
(345,753,o),
(280,736,o),
(221,701,cs),
(162,667,o),
(116,621,o),
(81,562,cs),
(47,502,o),
(30,438,o),
(30,368,cs)
);
},
{
closed = 1;
nodes = (
(429,398,l),
(422,407,o),
(409,407,o),
(404,398,c),
(196,90,l),
(154,124,o),
(121,164,o),
(96,212,cs),
(72,261,o),
(60,313,o),
(60,368,cs),
(60,433,o),
(76,492,o),
(107,546,cs),
(139,601,o),
(182,644,o),
(236,675,cs),
(291,707,o),
(350,723,o),
(415,723,cs),
(479,723,o),
(538,707,o),
(592,675,cs),
(646,644,o),
(689,601,o),
(721,546,cs),
(753,492,o),
(769,433,o),
(769,368,cs),
(769,313,o),
(757,261,o),
(733,212,cs),
(709,164,o),
(676,123,o),
(634,90,c)
);
},
{
closed = 1;
nodes = (
(416,363,l),
(610,72,l),
(551,33,o),
(485,14,o),
(415,14,cs),
(344,14,o),
(279,33,o),
(220,72,c)
);
}
);
};
layerId = "63130C77-2026-400C-BB8E-D163941B4D8D";
name = "18 août 23 à 16:49";
shapes = (
{
closed = 1;
nodes = (
(655,-15,o),
(830,159,o),
(830,375,cs),
(830,590,o),
(655,766,o),
(439,766,cs),
(223,766,o),
(49,590,o),
(49,375,cs),
(49,159,o),
(223,-15,o),
(439,-15,cs)
);
},
{
closed = 1;
nodes = (
(647,70,ls),
(650,66,o),
(655,64,o),
(660,64,cs),
(667,64,o),
(674,71,o),
(674,79,cs),
(674,82,o),
(673,85,o),
(671,87,cs),
(454,405,ls),
(446,416,o),
(432,416,o),
(424,404,cs),
(208,87,ls),
(206,85,o),
(205,82,o),
(205,79,cs),
(205,71,o),
(211,64,o),
(219,64,cs),
(224,64,o),
(229,66,o),
(231,70,cs),
(439,374,l)
);
},
{
closed = 1;
nodes = (
(235,15,o),
(78,171,o),
(78,375,cs),
(78,578,o),
(235,736,o),
(439,736,cs),
(643,736,o),
(800,578,o),
(800,375,cs),
(800,171,o),
(643,15,o),
(439,15,cs)
);
}
);
width = 878;
},
{
anchors = (
{
name = bottom;
pos = (439,0);
},
{
name = top;
pos = (439,751);
}
);
associatedMasterId = m004;
layerId = "B824C4A5-1527-49B1-8DA4-219FF8805D97";
name = "18 août 23 à 16:49";
shapes = (
{
closed = 1;
nodes = (
(655,-15,o),
(830,159,o),
(830,375,cs),
(830,590,o),
(655,766,o),
(439,766,cs),
(223,766,o),
(49,590,o),
(49,375,cs),
(49,159,o),
(223,-15,o),
(439,-15,cs)
);
},
{
closed = 1;
nodes = (
(576,79,ls),
(589,62,o),
(609,50,o),
(632,50,cs),
(670,50,o),
(701,81,o),
(701,119,cs),
(701,133,o),
(696,147,o),
(688,158,cs),
(496,439,ls),
(466,481,o),
(412,481,o),
(383,438,cs),
(191,158,ls),
(183,147,o),
(178,133,o),
(178,119,cs),
(178,81,o),
(209,50,o),
(247,50,cs),
(270,50,o),
(290,62,o),
(303,79,cs),
(439,279,l)
);
},
{
closed = 1;
nodes = (
(280,122,o),
(186,215,o),
(186,375,cs),
(186,534,o),
(280,629,o),
(439,629,cs),
(599,629,o),
(693,534,o),
(693,375,cs),
(693,215,o),
(599,122,o),
(439,122,cs)
);
}
);
width = 878;
}
);
note = Q;
unicode = 81;
},
{
glyphname = R;
kernLeft = H;
kernRight = R;
lastChange = "2023-09-15 13:26:36 +0000";
layers = (
{
anchors = (
{
name = bottom;
pos = (293,0);
},
{
name = top;
pos = (259,751);
}
);
background = {
hints = (
{
horizontal = 1;
place = (-15,21);
target = up;
type = BottomGhost;
},
{
horizontal = 1;
place = (257,30);
type = Stem;
},
{
horizontal = 1;
place = (721,30);
type = Stem;
},
{
place = (106,30);
type = Stem;
},
{
place = (527,30);
type = Stem;
},
{
horizontal = 1;
place = (-16,21);
target = up;
type = BottomGhost;
}
);
shapes = (
{
closed = 1;
nodes = (
(75,0,ls),
(75,-8,o),
(82,-15,o),
(90,-15,cs),
(98,-15,o),
(105,-8,o),
(105,0,cs),
(105,257,l),
(279,257,ls),
(313,257,o),
(346,264,o),
(377,277,c),
(567,-8,ls),
(570,-13,o),
(574,-16,o),
(578,-16,cs),
(581,-16,o),
(584,-15,o),
(587,-13,cs),
(592,-9,o),
(595,-6,o),
(595,-1,cs),
(595,1,o),
(593,4,o),
(591,8,cs),
(404,291,l),
(441,313,o),
(471,342,o),
(493,380,cs),
(515,418,o),
(526,459,o),
(526,504,cs),
(526,572,o),
(502,630,o),
(454,678,cs),
(406,727,o),
(348,751,o),
(279,751,cs),
(89,751,ls),
(88,751,o),
(87,750,o),
(86,750,cs),
(79,748,o),
(75,743,o),
(75,736,cs)
);
},
{
closed = 1;
nodes = (
(118,721,l),
(279,721,ls),
(339,721,o),
(390,700,o),
(432,657,cs),
(475,615,o),
(496,564,o),
(496,504,cs),
(496,464,o),
(486,428,o),
(466,394,cs),
(446,360,o),
(420,334,o),
(387,316,c)
);
},
{
closed = 1;
nodes = (
(105,287,l),
(105,686,l),
(360,302,l),
(334,292,o),
(307,287,o),
(279,287,cs)
);
}
);
};
layerId = "12AF635E-66FE-4C90-B49C-8787585F2B73";
shapes = (
{
closed = 1;
nodes = (
(91,0,o),
(98,6,o),
(98,15,cs),
(98,722,l),
(259,722,ls),
(383,722,o),
(477,628,o),
(477,504,cs),
(477,380,o),
(383,287,o),
(259,287,cs),
(91,287,ls),
(83,287,o),
(77,280,o),
(77,272,cs),
(77,264,o),
(83,257,o),
(91,257,cs),
(259,257,ls),
(396,257,o),
(506,368,o),
(506,504,cs),
(506,641,o),
(396,751,o),
(259,751,cs),
(83,751,ls),
(74,751,o),
(68,746,o),
(68,736,cs),
(68,15,ls),
(68,6,o),
(75,0,o),
(83,0,cs)
);
},
{
closed = 1;
nodes = (
(591,0,o),
(598,7,o),
(598,15,cs),
(598,18,o),
(597,21,o),
(594,24,cs),
(107,742,ls),
(104,746,o),
(100,748,o),
(95,748,cs),
(87,748,o),
(81,741,o),
(81,733,cs),
(81,730,o),
(82,727,o),
(84,724,cs),
(571,6,ls),
(573,2,o),
(578,0,o),
(583,0,cs)
);
}
);
width = 646;
},
{
anchors = (
{
name = bottom;
pos = (349,0);
},
{
name = top;
pos = (328,751);
}
);
background = {
hints = (
{
horizontal = 1;
place = (-15,21);
target = up;
type = BottomGhost;
},
{
horizontal = 1;
place = (257,30);
type = Stem;
},
{
horizontal = 1;
place = (721,30);
type = Stem;
},
{
place = (106,30);
type = Stem;
},
{
place = (527,30);
type = Stem;
},
{
horizontal = 1;
place = (-16,21);
target = up;
type = BottomGhost;
}
);
shapes = (
{
closed = 1;
nodes = (
(102,0,ls),
(102,-8,o),
(109,-15,o),
(117,-15,cs),
(125,-15,o),
(132,-8,o),
(132,0,cs),
(132,257,l),
(306,257,ls),
(340,257,o),
(373,264,o),
(404,277,c),
(594,-8,ls),
(598,-13,o),
(601,-16,o),
(605,-16,cs),
(608,-16,o),
(611,-15,o),
(615,-13,cs),
(620,-9,o),
(622,-6,o),
(622,-1,cs),
(622,1,o),
(621,4,o),
(618,8,cs),
(431,291,l),
(469,313,o),
(498,342,o),
(520,380,cs),
(542,418,o),
(553,459,o),
(553,504,cs),
(553,572,o),
(529,630,o),
(481,678,cs),
(433,727,o),
(375,751,o),
(306,751,cs),
(116,751,ls),
(116,751,o),
(115,750,o),
(113,750,cs),
(106,748,o),
(102,743,o),
(102,736,cs)
);
},
{
closed = 1;
nodes = (
(145,721,l),
(306,721,ls),
(366,721,o),
(417,700,o),
(459,657,cs),
(502,615,o),
(523,564,o),
(523,504,cs),
(523,464,o),
(513,428,o),
(493,394,cs),
(474,360,o),
(447,334,o),
(414,316,c)
);
},
{
closed = 1;
nodes = (
(132,287,l),
(132,686,l),
(387,302,l),
(361,292,o),
(334,287,o),
(306,287,cs)
);
}
);
};
layerId = m004;
shapes = (
{
closed = 1;
nodes = (
(174,0,o),
(205,31,o),
(205,68,cs),
(205,614,l),
(345,614,ls),
(436,614,o),
(482,568,o),
(482,477,cs),
(482,386,o),
(436,339,o),
(345,339,cs),
(157,339,ls),
(120,339,o),
(89,309,o),
(89,271,cs),
(89,233,o),
(120,203,o),
(157,203,cs),
(345,203,ls),
(497,203,o),
(619,325,o),
(619,477,cs),
(619,628,o),
(497,751,o),
(345,751,cs),
(127,751,ls),
(89,751,o),
(68,730,o),
(68,692,cs),
(68,68,ls),
(68,31,o),
(99,0,o),
(137,0,cs)
);
},
{
closed = 1;
nodes = (
(619,0,o),
(649,31,o),
(649,68,cs),
(649,83,o),
(645,97,o),
(637,108,cs),
(223,717,ls),
(210,735,o),
(190,746,o),
(167,746,cs),
(129,746,o),
(98,715,o),
(98,678,cs),
(98,663,o),
(103,650,o),
(111,639,cs),
(525,29,ls),
(538,12,o),
(558,0,o),
(581,0,cs)
);
}
);
width = 698;
},
{
anchors = (
{
name = _bottom;
pos = (352,0);
},
{
name = _top;
pos = (352,751);
},
{
name = top;
pos = (352,751);
}
);
associatedMasterId = m004;
background = {
hints = (
{
horizontal = 1;
place = (-15,21);
target = up;
type = BottomGhost;
},
{
horizontal = 1;
place = (257,30);
type = Stem;
},
{
horizontal = 1;
place = (721,30);
type = Stem;
},
{
place = (106,30);
type = Stem;
},
{
place = (527,30);
type = Stem;
},
{
horizontal = 1;
place = (-16,21);
target = up;
type = BottomGhost;
}
);
shapes = (
{
closed = 1;
nodes = (
(106,0,ls),
(106,-8,o),
(113,-15,o),
(121,-15,cs),
(129,-15,o),
(136,-8,o),
(136,0,cs),
(136,257,l),
(310,257,ls),
(344,257,o),
(377,264,o),
(408,277,c),
(598,-8,ls),
(602,-13,o),
(605,-16,o),
(609,-16,cs),
(612,-16,o),
(615,-15,o),
(619,-13,cs),
(624,-9,o),
(626,-6,o),
(626,-1,cs),
(626,1,o),
(625,4,o),
(622,8,cs),
(435,291,l),
(473,313,o),
(502,342,o),
(524,380,cs),
(546,418,o),
(557,459,o),
(557,504,cs),
(557,572,o),
(533,630,o),
(485,678,cs),
(437,727,o),
(379,751,o),
(310,751,cs),
(120,751,ls),
(120,751,o),
(119,750,o),
(117,750,cs),
(110,748,o),
(106,743,o),
(106,736,cs)
);
},
{
closed = 1;
nodes = (
(149,721,l),
(310,721,ls),
(370,721,o),
(421,700,o),
(463,657,cs),
(506,615,o),
(527,564,o),
(527,504,cs),
(527,464,o),
(517,428,o),
(497,394,cs),
(478,360,o),
(451,334,o),
(418,316,c)
);
},
{
closed = 1;
nodes = (
(136,287,l),
(136,686,l),
(391,302,l),
(365,292,o),
(338,287,o),
(310,287,cs)
);
}
);
};
layerId = "C365BD1A-35CF-419C-B930-FCA97E79DC98";
name = "18 août 23 à 09:48";
shapes = (
{
closed = 0;
nodes = (
(100,0,l),
(100,751,l),
(291,751,ls),
(427,751,o),
(537,641,o),
(537,504,cs),
(537,368,o),
(427,257,o),
(291,257,cs),
(100,257,l)
);
},
{
closed = 0;
nodes = (
(611,0,l),
(100,751,l)
);
}
);
width = 705;
},
{
anchors = (
{
name = _bottom;
pos = (352,0);
},
{
name = _top;
pos = (352,751);
},
{
name = top;
pos = (352,751);
}
);
associatedMasterId = "12AF635E-66FE-4C90-B49C-8787585F2B73";
background = {
hints = (
{
horizontal = 1;
place = (-15,21);
target = up;
type = BottomGhost;
},
{
horizontal = 1;
place = (257,30);
type = Stem;
},
{
horizontal = 1;
place = (721,30);
type = Stem;
},
{
place = (106,30);
type = Stem;
},
{
place = (527,30);
type = Stem;
},
{
horizontal = 1;
place = (-16,21);
target = up;
type = BottomGhost;
}
);
shapes = (
{
closed = 1;
nodes = (
(106,0,ls),
(106,-8,o),
(113,-15,o),
(121,-15,cs),
(129,-15,o),
(136,-8,o),
(136,0,cs),
(136,257,l),
(310,257,ls),
(344,257,o),
(377,264,o),
(408,277,c),
(598,-8,ls),
(602,-13,o),
(605,-16,o),
(609,-16,cs),
(612,-16,o),
(615,-15,o),
(619,-13,cs),
(624,-9,o),
(626,-6,o),
(626,-1,cs),
(626,1,o),
(625,4,o),
(622,8,cs),
(435,291,l),
(473,313,o),
(502,342,o),
(524,380,cs),
(546,418,o),
(557,459,o),
(557,504,cs),
(557,572,o),
(533,630,o),
(485,678,cs),
(437,727,o),
(379,751,o),
(310,751,cs),
(120,751,ls),
(120,751,o),
(119,750,o),
(117,750,cs),
(110,748,o),
(106,743,o),
(106,736,cs)
);
},
{
closed = 1;
nodes = (
(149,721,l),
(310,721,ls),
(370,721,o),
(421,700,o),
(463,657,cs),
(506,615,o),
(527,564,o),
(527,504,cs),
(527,464,o),
(517,428,o),
(497,394,cs),
(478,360,o),
(451,334,o),
(418,316,c)
);
},
{
closed = 1;
nodes = (
(136,287,l),
(136,686,l),
(391,302,l),
(365,292,o),
(338,287,o),
(310,287,cs)
);
}
);
};
layerId = "403DAF1A-3D24-43C1-B79F-2A191AF1D4D9";
name = "18 août 23 à 09:48";
shapes = (
{
closed = 0;
nodes = (
(100,0,l),
(100,751,l),
(291,751,ls),
(427,751,o),
(537,641,o),
(537,504,cs),
(537,368,o),
(427,257,o),
(291,257,cs),
(100,257,l)
);
},
{
closed = 0;
nodes = (
(611,0,l),
(100,751,l)
);
}
);
width = 705;
}
);
note = R;
unicode = 82;
},
{
glyphname = S;
kernLeft = S;
kernRight = S;
lastChange = "2023-09-15 13:26:36 +0000";
layers = (
{
anchors = (
{
name = bottom;
pos = (304,0);
},
{
name = top;
pos = (304,751);
}
);
background = {
hints = (
{
horizontal = 1;
place = (-15,30);
type = Stem;
},
{
horizontal = 1;
place = (721,30);
type = Stem;
},
{
place = (82,30);
type = Stem;
}
);
shapes = (
{
closed = 1;
nodes = (
(367,134,l),
(491,15,l),
(88,15,ls),
(67,15,o),
(68,-15,o),
(88,-15,cs),
(527,-15,l),
(534,-15,o),
(539,-12,o),
(541,-5,cs),
(542,-3,o),
(542,-1,o),
(542,1,cs),
(542,5,o),
(541,8,o),
(538,11,cs),
(326,212,ls),
(241,292,o),
(186,345,o),
(162,374,c),
(514,725,ls),
(519,729,o),
(520,735,o),
(517,741,cs),
(515,748,o),
(510,751,o),
(503,751,cs),
(319,751,ls),
(251,751,o),
(193,727,o),
(145,678,cs),
(96,630,o),
(72,572,o),
(72,504,cs),
(72,461,o),
(91,417,o),
(119,379,cs),
(133,360,o),
(154,337,o),
(181,310,cs),
(208,282,o),
(234,256,o),
(260,232,cs)
);
},
{
closed = 1;
nodes = (
(102,505,ls),
(102,564,o),
(123,615,o),
(166,658,cs),
(208,700,o),
(259,721,o),
(319,721,cs),
(467,721,l),
(143,397,l),
(117,433,o),
(104,466,o),
(102,498,cs)
);
}
);
};
layerId = "12AF635E-66FE-4C90-B49C-8787585F2B73";
shapes = (
{
closed = 1;
nodes = (
(524,0,ls),
(547,0,o),
(557,25,o),
(540,39,cs),
(162,353,ls),
(106,399,o),
(86,456,o),
(86,505,cs),
(86,627,o),
(181,722,o),
(303,722,cs),
(480,722,l),
(135,376,ls),
(132,373,o),
(130,370,o),
(130,366,cs),
(130,358,o),
(137,351,o),
(145,351,cs),
(149,351,o),
(152,353,o),
(155,355,cs),
(514,714,ls),
(529,729,o),
(519,751,o),
(498,751,cs),
(303,751,ls),
(167,751,o),
(57,641,o),
(57,505,cs),
(57,449,o),
(81,383,o),
(142,332,cs),
(506,29,l),
(39,29,ls),
(31,29,o),
(24,23,o),
(24,15,cs),
(24,6,o),
(31,0,o),
(39,0,cs)
);
}
);
width = 583;
},
{
anchors = (
{
name = bottom;
pos = (319,0);
},
{
name = top;
pos = (319,751);
}
);
background = {
hints = (
{
horizontal = 1;
place = (-15,30);
type = Stem;
},
{
horizontal = 1;
place = (721,30);
type = Stem;
},
{
place = (82,30);
type = Stem;
}
);
shapes = (
{
closed = 1;
nodes = (
(376,134,l),
(501,15,l),
(98,15,ls),
(77,15,o),
(78,-15,o),
(98,-15,cs),
(537,-15,l),
(543,-15,o),
(548,-12,o),
(551,-5,cs),
(552,-3,o),
(552,-1,o),
(552,1,cs),
(552,5,o),
(551,8,o),
(548,11,cs),
(336,212,ls),
(250,292,o),
(196,345,o),
(172,374,c),
(524,725,ls),
(528,729,o),
(529,735,o),
(527,741,cs),
(524,748,o),
(520,751,o),
(513,751,cs),
(329,751,ls),
(261,751,o),
(203,727,o),
(154,678,cs),
(106,630,o),
(82,572,o),
(82,504,cs),
(82,461,o),
(101,417,o),
(129,379,cs),
(143,360,o),
(164,337,o),
(190,310,cs),
(217,282,o),
(244,256,o),
(270,232,cs)
);
},
{
closed = 1;
nodes = (
(112,505,ls),
(112,564,o),
(133,615,o),
(175,658,cs),
(218,700,o),
(269,721,o),
(329,721,cs),
(477,721,l),
(153,397,l),
(127,433,o),
(113,466,o),
(112,498,cs)
);
}
);
};
layerId = m004;
shapes = (
{
closed = 1;
nodes = (
(487,0,ls),
(580,0,o),
(616,102,o),
(544,162,cs),
(235,416,ls),
(203,442,o),
(196,464,o),
(196,495,cs),
(196,570,o),
(240,614,o),
(315,614,cs),
(387,614,l),
(206,437,ls),
(194,425,o),
(186,408,o),
(186,389,cs),
(186,351,o),
(217,320,o),
(254,320,cs),
(273,320,o),
(290,328,o),
(302,340,cs),
(573,607,ls),
(632,665,o),
(596,751,o),
(513,751,cs),
(315,751,ls),
(174,751,o),
(59,636,o),
(59,495,cs),
(59,437,o),
(84,364,o),
(149,310,cs),
(357,137,l),
(93,137,ls),
(55,137,o),
(24,106,o),
(24,68,cs),
(24,31,o),
(55,0,o),
(93,0,cs)
);
}
);
width = 636;
},
{
anchors = (
{
name = _bottom;
pos = (318,0);
},
{
name = _top;
pos = (318,751);
},
{
name = top;
pos = (318,751);
}
);
associatedMasterId = "12AF635E-66FE-4C90-B49C-8787585F2B73";
background = {
hints = (
{
horizontal = 1;
place = (-15,30);
type = Stem;
},
{
horizontal = 1;
place = (721,30);
type = Stem;
},
{
place = (82,30);
type = Stem;
}
);
shapes = (
{
closed = 1;
nodes = (
(376,134,l),
(501,15,l),
(98,15,ls),
(77,15,o),
(78,-15,o),
(98,-15,cs),
(537,-15,l),
(543,-15,o),
(548,-12,o),
(551,-5,cs),
(552,-3,o),
(552,-1,o),
(552,1,cs),
(552,5,o),
(551,8,o),
(548,11,cs),
(336,212,ls),
(250,292,o),
(196,345,o),
(172,374,c),
(524,725,ls),
(528,729,o),
(529,735,o),
(527,741,cs),
(524,748,o),
(520,751,o),
(513,751,cs),
(329,751,ls),
(261,751,o),
(203,727,o),
(154,678,cs),
(106,630,o),
(82,572,o),
(82,504,cs),
(82,461,o),
(101,417,o),
(129,379,cs),
(143,360,o),
(164,337,o),
(190,310,cs),
(217,282,o),
(244,256,o),
(270,232,cs)
);
},
{
closed = 1;
nodes = (
(112,505,ls),
(112,564,o),
(133,615,o),
(175,658,cs),
(218,700,o),
(269,721,o),
(329,721,cs),
(477,721,l),
(153,397,l),
(127,433,o),
(113,466,o),
(112,498,cs)
);
}
);
};
layerId = "0D32DBB1-72D2-4365-BE0D-47839EF72A92";
name = "18 août 23 à 09:48";
shapes = (
{
closed = 0;
nodes = (
(68,0,l),
(535,0,l),
(162,357,ls),
(107,410,o),
(82,468,o),
(82,520,cs),
(82,647,o),
(185,751,o),
(313,751,cs),
(525,751,l),
(147,373,l)
);
}
);
width = 637;
},
{
anchors = (
{
name = _bottom;
pos = (318,0);
},
{
name = _top;
pos = (318,751);
},
{
name = top;
pos = (318,751);
}
);
associatedMasterId = "12AF635E-66FE-4C90-B49C-8787585F2B73";
background = {
hints = (
{
horizontal = 1;
place = (-15,30);
type = Stem;
},
{
horizontal = 1;
place = (721,30);
type = Stem;
},
{
place = (82,30);
type = Stem;
}
);
shapes = (
{
closed = 1;
nodes = (
(376,134,l),
(501,15,l),
(98,15,ls),
(77,15,o),
(78,-15,o),
(98,-15,cs),
(537,-15,l),
(543,-15,o),
(548,-12,o),
(551,-5,cs),
(552,-3,o),
(552,-1,o),
(552,1,cs),
(552,5,o),
(551,8,o),
(548,11,cs),
(336,212,ls),
(250,292,o),
(196,345,o),
(172,374,c),
(524,725,ls),
(528,729,o),
(529,735,o),
(527,741,cs),
(524,748,o),
(520,751,o),
(513,751,cs),
(329,751,ls),
(261,751,o),
(203,727,o),
(154,678,cs),
(106,630,o),
(82,572,o),
(82,504,cs),
(82,461,o),
(101,417,o),
(129,379,cs),
(143,360,o),
(164,337,o),
(190,310,cs),
(217,282,o),
(244,256,o),
(270,232,cs)
);
},
{
closed = 1;
nodes = (
(112,505,ls),
(112,564,o),
(133,615,o),
(175,658,cs),
(218,700,o),
(269,721,o),
(329,721,cs),
(477,721,l),
(153,397,l),
(127,433,o),
(113,466,o),
(112,498,cs)
);
}
);
};
layerId = "85C0BF5C-99FB-4165-A864-EBAB2E78C412";
name = "18 août 23 à 09:48";
shapes = (
{
closed = 0;
nodes = (
(68,0,l),
(535,0,l),
(162,357,ls),
(107,410,o),
(82,468,o),
(82,520,cs),
(82,647,o),
(185,751,o),
(313,751,cs),
(525,751,l),
(147,373,l)
);
}
);
width = 637;
},
{
anchors = (
{
name = _bottom;
pos = (318,0);
},
{
name = _top;
pos = (318,751);
},
{
name = top;
pos = (318,751);
}
);
associatedMasterId = m004;
background = {
hints = (
{
horizontal = 1;
place = (-15,30);
type = Stem;
},
{
horizontal = 1;
place = (721,30);
type = Stem;
},
{
place = (82,30);
type = Stem;
}
);
shapes = (
{
closed = 1;
nodes = (
(376,134,l),
(501,15,l),
(98,15,ls),
(77,15,o),
(78,-15,o),
(98,-15,cs),
(537,-15,l),
(543,-15,o),
(548,-12,o),
(551,-5,cs),
(552,-3,o),
(552,-1,o),
(552,1,cs),
(552,5,o),
(551,8,o),
(548,11,cs),
(336,212,ls),
(250,292,o),
(196,345,o),
(172,374,c),
(524,725,ls),
(528,729,o),
(529,735,o),
(527,741,cs),
(524,748,o),
(520,751,o),
(513,751,cs),
(329,751,ls),
(261,751,o),
(203,727,o),
(154,678,cs),
(106,630,o),
(82,572,o),
(82,504,cs),
(82,461,o),
(101,417,o),
(129,379,cs),
(143,360,o),
(164,337,o),
(190,310,cs),
(217,282,o),
(244,256,o),
(270,232,cs)
);
},
{
closed = 1;
nodes = (
(112,505,ls),
(112,564,o),
(133,615,o),
(175,658,cs),
(218,700,o),
(269,721,o),
(329,721,cs),
(477,721,l),
(153,397,l),
(127,433,o),
(113,466,o),
(112,498,cs)
);
}
);
};
layerId = "DB0479E1-A77D-463B-94B6-98DCAA4B4A0B";
name = "18 août 23 à 09:48";
shapes = (
{
closed = 0;
nodes = (
(68,0,l),
(535,0,l),
(162,357,ls),
(107,410,o),
(82,468,o),
(82,520,cs),
(82,647,o),
(185,751,o),
(313,751,cs),
(525,751,l),
(147,373,l)
);
}
);
width = 637;
}
);
note = S;
unicode = 83;
},
{
glyphname = Germandbls;
kernLeft = H;
kernRight = B;
lastChange = "2023-09-15 13:26:36 +0000";
layers = (
{
hints = (
{
horizontal = 1;
place = (-16,30);
type = Stem;
},
{
horizontal = 1;
place = (369,30);
type = Stem;
},
{
horizontal = 1;
place = (451,30);
type = Stem;
},
{
horizontal = 1;
place = (721,30);
type = Stem;
},
{
place = (173,30);
type = Stem;
},
{
place = (269,31);
type = Stem;
},
{
place = (459,30);
type = Stem;
},
{
place = (567,30);
type = Stem;
},
{
horizontal = 1;
place = (-18,30);
type = Stem;
}
);
layerId = "12AF635E-66FE-4C90-B49C-8787585F2B73";
shapes = (
{
closed = 1;
nodes = (
(91,0,o),
(98,6,o),
(98,15,cs),
(98,722,l),
(524,722,l),
(78,301,ls),
(75,299,o),
(73,295,o),
(73,291,cs),
(73,283,o),
(80,276,o),
(87,276,cs),
(91,276,o),
(95,277,o),
(98,280,cs),
(557,712,ls),
(573,728,o),
(563,751,o),
(542,751,cs),
(84,751,ls),
(75,751,o),
(68,744,o),
(68,735,cs),
(68,15,ls),
(68,6,o),
(75,0,o),
(83,0,cs)
);
},
{
closed = 1;
nodes = (
(415,0,ls),
(543,0,o),
(647,104,o),
(647,232,cs),
(647,284,o),
(622,343,o),
(566,396,cs),
(391,563,ls),
(388,566,o),
(385,568,o),
(381,568,cs),
(373,568,o),
(366,561,o),
(366,553,cs),
(366,549,o),
(368,545,o),
(370,543,cs),
(546,375,ls),
(597,326,o),
(618,278,o),
(618,232,cs),
(618,116,o),
(531,29,o),
(415,29,cs),
(214,29,ls),
(206,29,o),
(199,23,o),
(199,15,cs),
(199,6,o),
(206,0,o),
(214,0,cs)
);
}
);
width = 696;
},
{
hints = (
{
horizontal = 1;
place = (-16,30);
type = Stem;
},
{
horizontal = 1;
place = (369,30);
type = Stem;
},
{
horizontal = 1;
place = (451,30);
type = Stem;
},
{
horizontal = 1;
place = (721,30);
type = Stem;
},
{
place = (173,30);
type = Stem;
},
{
place = (269,31);
type = Stem;
},
{
place = (459,30);
type = Stem;
},
{
place = (567,30);
type = Stem;
},
{
horizontal = 1;
place = (-18,30);
type = Stem;
}
);
layerId = m004;
shapes = (
{
closed = 1;
nodes = (
(174,0,o),
(205,31,o),
(205,68,cs),
(205,614,l),
(397,614,l),
(93,328,ls),
(80,315,o),
(71,297,o),
(71,278,cs),
(71,240,o),
(102,209,o),
(140,209,cs),
(158,209,o),
(175,217,o),
(187,229,cs),
(584,602,ls),
(646,661,o),
(610,751,o),
(525,751,cs),
(128,751,ls),
(93,751,o),
(68,726,o),
(68,691,cs),
(68,68,ls),
(68,31,o),
(99,0,o),
(137,0,cs)
);
},
{
closed = 1;
nodes = (
(481,0,ls),
(632,0,o),
(754,123,o),
(754,273,cs),
(754,336,o),
(724,406,o),
(662,466,cs),
(535,588,ls),
(523,600,o),
(506,607,o),
(488,607,cs),
(450,607,o),
(419,577,o),
(419,539,cs),
(419,520,o),
(427,502,o),
(440,490,cs),
(566,368,ls),
(607,328,o),
(618,305,o),
(618,273,cs),
(618,185,o),
(570,137,o),
(481,137,cs),
(329,137,ls),
(291,137,o),
(260,106,o),
(260,68,cs),
(260,31,o),
(291,0,o),
(329,0,cs)
);
}
);
width = 803;
},
{
associatedMasterId = m004;
hints = (
{
horizontal = 1;
place = (-16,30);
type = Stem;
},
{
horizontal = 1;
place = (369,30);
type = Stem;
},
{
horizontal = 1;
place = (451,30);
type = Stem;
},
{
horizontal = 1;
place = (721,30);
type = Stem;
},
{
place = (173,30);
type = Stem;
},
{
place = (269,31);
type = Stem;
},
{
place = (459,30);
type = Stem;
},
{
place = (567,30);
type = Stem;
},
{
horizontal = 1;
place = (-18,30);
type = Stem;
}
);
layerId = "B2882C7C-30D1-44B8-A527-B560C92EA4FE";
name = "18 août 23 à 21:13";
shapes = (
{
closed = 0;
nodes = (
(538,332,l),
(206,0,l),
(393,0,ls),
(505,0,o),
(596,91,o),
(596,203,cs),
(596,249,o),
(574,299,o),
(525,345,cs),
(361,502,l),
(612,751,l),
(63,751,l),
(63,0,l)
);
}
);
width = 803;
}
);
unicode = 7838;
},
{
glyphname = T;
kernLeft = T;
kernRight = T;
lastChange = "2023-09-15 13:26:36 +0000";
layers = (
{
anchors = (
{
name = bottom;
pos = (348,0);
},
{
name = center;
pos = (362,375);
},
{
name = top;
pos = (348,751);
}
);
background = {
hints = (
{
horizontal = 1;
place = (-15,21);
target = up;
type = BottomGhost;
},
{
place = (357,30);
type = Stem;
}
);
shapes = (
{
closed = 1;
nodes = (
(344,705,l),
(344,0,ls),
(344,-10,o),
(349,-15,o),
(359,-15,cs),
(369,-15,o),
(374,-10,o),
(374,0,cs),
(374,705,l),
(653,489,ls),
(661,483,o),
(668,484,o),
(674,492,cs),
(676,496,o),
(678,499,o),
(678,502,cs),
(678,506,o),
(675,510,o),
(671,513,cs),
(368,748,l),
(359,751,l),
(355,751,o),
(353,750,o),
(350,748,cs),
(47,513,ls),
(42,510,o),
(40,506,o),
(40,502,cs),
(40,499,o),
(42,496,o),
(44,492,cs),
(50,484,o),
(57,483,o),
(65,489,cs)
);
}
);
};
layerId = "12AF635E-66FE-4C90-B49C-8787585F2B73";
shapes = (
{
closed = 1;
nodes = (
(52,495,o),
(55,496,o),
(58,498,cs),
(348,717,l),
(639,498,ls),
(641,496,o),
(645,495,o),
(647,495,cs),
(656,495,o),
(662,501,o),
(662,509,cs),
(662,514,o),
(660,519,o),
(657,521,cs),
(357,748,ls),
(352,752,o),
(344,752,o),
(339,748,cs),
(40,521,ls),
(36,519,o),
(34,514,o),
(34,509,cs),
(34,501,o),
(41,495,o),
(49,495,cs)
);
},
{
closed = 1;
nodes = (
(356,0,o),
(363,6,o),
(363,15,cs),
(363,731,ls),
(363,740,o),
(356,746,o),
(348,746,cs),
(340,746,o),
(333,740,o),
(333,731,cs),
(333,15,ls),
(333,6,o),
(340,0,o),
(348,0,cs)
);
}
);
width = 696;
},
{
anchors = (
{
name = bottom;
pos = (363,0);
},
{
name = center;
pos = (377,375);
},
{
name = top;
pos = (363,751);
}
);
background = {
hints = (
{
horizontal = 1;
place = (-15,21);
target = up;
type = BottomGhost;
},
{
place = (357,30);
type = Stem;
}
);
shapes = (
{
closed = 1;
nodes = (
(359,705,l),
(359,0,ls),
(359,-10,o),
(364,-15,o),
(374,-15,cs),
(384,-15,o),
(389,-10,o),
(389,0,cs),
(389,705,l),
(668,489,ls),
(676,483,o),
(683,484,o),
(689,492,cs),
(691,496,o),
(693,499,o),
(693,502,cs),
(693,506,o),
(690,510,o),
(686,513,cs),
(383,748,l),
(374,751,l),
(371,751,o),
(368,750,o),
(365,748,cs),
(62,513,ls),
(58,510,o),
(55,506,o),
(55,502,cs),
(55,499,o),
(57,496,o),
(59,492,cs),
(65,484,o),
(72,483,o),
(80,489,cs)
);
}
);
};
layerId = m004;
shapes = (
{
closed = 1;
nodes = (
(118,413,o),
(132,418,o),
(144,427,cs),
(363,593,l),
(583,427,ls),
(594,418,o),
(608,413,o),
(624,413,cs),
(662,413,o),
(692,444,o),
(692,481,cs),
(692,503,o),
(683,523,o),
(666,536,cs),
(396,739,ls),
(376,755,o),
(351,755,o),
(330,739,cs),
(61,536,ls),
(44,523,o),
(34,503,o),
(34,481,cs),
(34,444,o),
(64,413,o),
(103,413,cs)
);
},
{
closed = 1;
nodes = (
(401,0,o),
(432,31,o),
(432,68,cs),
(432,673,ls),
(432,710,o),
(401,741,o),
(363,741,cs),
(326,741,o),
(295,710,o),
(295,673,cs),
(295,68,ls),
(295,31,o),
(326,0,o),
(363,0,cs)
);
}
);
width = 727;
},
{
anchors = (
{
name = _bottom;
pos = (375,0);
},
{
name = _top;
pos = (375,751);
},
{
name = top;
pos = (375,751);
}
);
associatedMasterId = m004;
background = {
hints = (
{
horizontal = 1;
place = (-15,21);
target = up;
type = BottomGhost;
},
{
place = (357,30);
type = Stem;
}
);
shapes = (
{
closed = 1;
nodes = (
(357,705,l),
(357,0,ls),
(357,-10,o),
(362,-15,o),
(372,-15,cs),
(382,-15,o),
(387,-10,o),
(387,0,cs),
(387,705,l),
(666,489,ls),
(674,483,o),
(681,484,o),
(687,492,cs),
(689,496,o),
(691,499,o),
(691,502,cs),
(691,506,o),
(688,510,o),
(684,513,cs),
(381,748,l),
(372,751,l),
(369,751,o),
(366,750,o),
(363,748,cs),
(60,513,ls),
(56,510,o),
(53,506,o),
(53,502,cs),
(53,499,o),
(55,496,o),
(57,492,cs),
(63,484,o),
(70,483,o),
(78,489,cs)
);
}
);
};
layerId = "206210C0-7776-465B-8FEC-B418E9E0F89B";
name = "18 août 23 à 09:48";
shapes = (
{
closed = 0;
nodes = (
(361,0,l),
(361,751,l)
);
},
{
closed = 0;
nodes = (
(51,517,l),
(361,751,l),
(671,517,l)
);
}
);
width = 750;
},
{
anchors = (
{
name = _bottom;
pos = (375,0);
},
{
name = _top;
pos = (375,751);
},
{
name = top;
pos = (375,751);
}
);
associatedMasterId = "12AF635E-66FE-4C90-B49C-8787585F2B73";
background = {
hints = (
{
horizontal = 1;
place = (-15,21);
target = up;
type = BottomGhost;
},
{
place = (357,30);
type = Stem;
}
);
shapes = (
{
closed = 1;
nodes = (
(357,705,l),
(357,0,ls),
(357,-10,o),
(362,-15,o),
(372,-15,cs),
(382,-15,o),
(387,-10,o),
(387,0,cs),
(387,705,l),
(666,489,ls),
(674,483,o),
(681,484,o),
(687,492,cs),
(689,496,o),
(691,499,o),
(691,502,cs),
(691,506,o),
(688,510,o),
(684,513,cs),
(381,748,l),
(372,751,l),
(369,751,o),
(366,750,o),
(363,748,cs),
(60,513,ls),
(56,510,o),
(53,506,o),
(53,502,cs),
(53,499,o),
(55,496,o),
(57,492,cs),
(63,484,o),
(70,483,o),
(78,489,cs)
);
}
);
};
layerId = "BB49DD66-933E-43EC-8EBA-5896DFC60FF4";
name = "18 août 23 à 09:48";
shapes = (
{
closed = 0;
nodes = (
(361,0,l),
(361,751,l)
);
},
{
closed = 0;
nodes = (
(51,517,l),
(361,751,l),
(671,517,l)
);
}
);
width = 750;
}
);
note = T;
unicode = 84;
},
{
glyphname = Tbar;
kernLeft = T;
kernRight = T;
lastChange = "2023-09-15 13:26:36 +0000";
layers = (
{
layerId = "12AF635E-66FE-4C90-B49C-8787585F2B73";
shapes = (
{
closed = 1;
nodes = (
(537,304,ls),
(545,304,o),
(551,311,o),
(551,319,cs),
(551,327,o),
(545,333,o),
(537,333,cs),
(186,333,ls),
(178,333,o),
(171,327,o),
(171,319,cs),
(171,311,o),
(178,304,o),
(186,304,cs)
);
},
{
ref = T;
}
);
width = 750;
},
{
layerId = m004;
shapes = (
{
closed = 1;
nodes = (
(537,240,ls),
(574,240,o),
(605,271,o),
(605,308,cs),
(605,346,o),
(574,376,o),
(537,376,cs),
(186,376,ls),
(148,376,o),
(118,346,o),
(118,308,cs),
(118,271,o),
(148,240,o),
(186,240,cs)
);
},
{
ref = T;
}
);
width = 750;
}
);
unicode = 358;
},
{
glyphname = U;
kernLeft = H;
kernRight = H;
lastChange = "2023-09-15 13:26:36 +0000";
layers = (
{
anchors = (
{
name = bottom;
pos = (335,0);
},
{
name = ogonek;
pos = (386,5);
},
{
name = top;
pos = (335,751);
},
{
name = topright;
pos = (655,751);
}
);
background = {
hints = (
{
horizontal = 1;
place = (-15,30);
type = Stem;
},
{
place = (65,30);
type = Stem;
},
{
place = (566,30);
type = Stem;
}
);
shapes = (
{
closed = 1;
nodes = (
(69,234,ls),
(69,166,o),
(95,107,o),
(147,58,cs),
(200,9,o),
(262,-15,o),
(334,-15,cs),
(408,-15,o),
(471,8,o),
(523,56,cs),
(575,103,o),
(601,163,o),
(601,234,cs),
(601,737,ls),
(601,745,o),
(593,752,o),
(585,752,cs),
(577,752,o),
(570,745,o),
(570,737,cs),
(570,234,ls),
(570,171,o),
(547,119,o),
(502,77,cs),
(457,36,o),
(400,15,o),
(334,15,cs),
(270,15,o),
(214,37,o),
(168,80,cs),
(123,124,o),
(100,175,o),
(100,234,cs),
(100,737,ls),
(100,757,o),
(69,756,o),
(69,737,cs)
);
}
);
};
layerId = "12AF635E-66FE-4C90-B49C-8787585F2B73";
shapes = (
{
closed = 1;
nodes = (
(481,-15,o),
(600,94,o),
(600,241,cs),
(600,736,ls),
(600,745,o),
(594,751,o),
(585,751,cs),
(577,751,o),
(571,745,o),
(571,736,cs),
(571,241,ls),
(571,108,o),
(467,14,o),
(334,14,cs),
(201,14,o),
(98,108,o),
(98,241,cs),
(98,736,ls),
(98,745,o),
(91,751,o),
(83,751,cs),
(75,751,o),
(68,745,o),
(68,736,cs),
(68,241,ls),
(68,94,o),
(188,-15,o),
(334,-15,cs)
);
}
);
width = 668;
},
{
anchors = (
{
name = bottom;
pos = (389,0);
},
{
name = ogonek;
pos = (420,34);
},
{
name = top;
pos = (389,751);
},
{
name = topright;
pos = (709,751);
}
);
background = {
hints = (
{
horizontal = 1;
place = (-15,30);
type = Stem;
},
{
place = (65,30);
type = Stem;
},
{
place = (566,30);
type = Stem;
}
);
shapes = (
{
closed = 1;
nodes = (
(123,234,ls),
(123,166,o),
(149,107,o),
(201,58,cs),
(253,9,o),
(315,-15,o),
(388,-15,cs),
(462,-15,o),
(525,8,o),
(577,56,cs),
(628,103,o),
(654,163,o),
(654,234,cs),
(654,737,ls),
(654,745,o),
(647,752,o),
(639,752,cs),
(630,752,o),
(624,745,o),
(624,737,cs),
(624,234,ls),
(624,171,o),
(601,119,o),
(556,77,cs),
(510,36,o),
(454,15,o),
(388,15,cs),
(323,15,o),
(268,37,o),
(222,80,cs),
(176,124,o),
(153,175,o),
(153,234,cs),
(153,737,ls),
(154,757,o),
(123,756,o),
(123,737,cs)
);
}
);
};
layerId = m004;
shapes = (
{
closed = 1;
nodes = (
(563,-15,o),
(708,117,o),
(708,294,cs),
(708,683,ls),
(708,720,o),
(677,751,o),
(639,751,cs),
(602,751,o),
(571,720,o),
(571,683,cs),
(571,294,ls),
(571,186,o),
(500,122,o),
(388,122,cs),
(275,122,o),
(205,186,o),
(205,294,cs),
(205,683,ls),
(205,720,o),
(174,751,o),
(137,751,cs),
(99,751,o),
(68,720,o),
(68,683,cs),
(68,294,ls),
(68,117,o),
(212,-15,o),
(388,-15,cs)
);
}
);
width = 776;
},
{
anchors = (
{
name = _bottom;
pos = (330,0);
},
{
name = _top;
pos = (330,751);
},
{
name = top;
pos = (330,751);
}
);
associatedMasterId = "12AF635E-66FE-4C90-B49C-8787585F2B73";
background = {
hints = (
{
horizontal = 1;
place = (-15,30);
type = Stem;
},
{
place = (65,30);
type = Stem;
},
{
place = (566,30);
type = Stem;
}
);
shapes = (
{
closed = 1;
nodes = (
(65,234,ls),
(65,166,o),
(91,107,o),
(143,58,cs),
(195,9,o),
(257,-15,o),
(330,-15,cs),
(404,-15,o),
(467,8,o),
(519,56,cs),
(570,103,o),
(596,163,o),
(596,234,cs),
(596,737,ls),
(596,745,o),
(589,752,o),
(581,752,cs),
(572,752,o),
(566,745,o),
(566,737,cs),
(566,234,ls),
(566,171,o),
(543,119,o),
(498,77,cs),
(452,36,o),
(396,15,o),
(330,15,cs),
(265,15,o),
(210,37,o),
(164,80,cs),
(118,124,o),
(95,175,o),
(95,234,cs),
(95,737,ls),
(96,757,o),
(64,756,o),
(65,737,cs)
);
}
);
};
layerId = "D0B95DC2-B6A0-4171-B0BC-4D892967D863";
name = "18 août 23 à 09:48";
shapes = (
{
closed = 0;
nodes = (
(80,751,l),
(80,227,ls),
(80,88,o),
(192,-15,o),
(331,-15,cs),
(470,-15,o),
(582,88,o),
(582,227,cs),
(582,751,l)
);
}
);
width = 661;
},
{
anchors = (
{
name = _bottom;
pos = (330,0);
},
{
name = _top;
pos = (330,751);
},
{
name = top;
pos = (330,751);
}
);
associatedMasterId = m004;
background = {
hints = (
{
horizontal = 1;
place = (-15,30);
type = Stem;
},
{
place = (65,30);
type = Stem;
},
{
place = (566,30);
type = Stem;
}
);
shapes = (
{
closed = 1;
nodes = (
(65,234,ls),
(65,166,o),
(91,107,o),
(143,58,cs),
(195,9,o),
(257,-15,o),
(330,-15,cs),
(404,-15,o),
(467,8,o),
(519,56,cs),
(570,103,o),
(596,163,o),
(596,234,cs),
(596,737,ls),
(596,745,o),
(589,752,o),
(581,752,cs),
(572,752,o),
(566,745,o),
(566,737,cs),
(566,234,ls),
(566,171,o),
(543,119,o),
(498,77,cs),
(452,36,o),
(396,15,o),
(330,15,cs),
(265,15,o),
(210,37,o),
(164,80,cs),
(118,124,o),
(95,175,o),
(95,234,cs),
(95,737,ls),
(96,757,o),
(64,756,o),
(65,737,cs)
);
}
);
};
layerId = "86F0E3F6-F92B-45D5-B41F-2D5A3E198319";
name = "18 août 23 à 09:48";
shapes = (
{
closed = 0;
nodes = (
(80,751,l),
(80,227,ls),
(80,88,o),
(192,-15,o),
(331,-15,cs),
(470,-15,o),
(582,88,o),
(582,227,cs),
(582,751,l)
);
}
);
width = 661;
}
);
note = U;
unicode = 85;
},
{
glyphname = V;
kernLeft = V;
kernRight = V;
lastChange = "2023-09-15 13:26:36 +0000";
layers = (
{
anchors = (
{
name = _bottom;
pos = (330,0);
},
{
name = _top;
pos = (330,751);
},
{
name = top;
pos = (330,751);
}
);
associatedMasterId = "12AF635E-66FE-4C90-B49C-8787585F2B73";
background = {
hints = (
{
horizontal = 1;
place = (-5,21);
target = up;
type = BottomGhost;
},
{
place = (65,531);
type = Stem;
}
);
shapes = (
{
closed = 1;
nodes = (
(316,-5,ls),
(318,-12,o),
(323,-15,o),
(330,-15,cs),
(337,-15,o),
(342,-11,o),
(344,-5,cs),
(595,732,ls),
(596,733,o),
(596,735,o),
(596,737,cs),
(596,739,o),
(596,741,o),
(594,744,cs),
(592,747,o),
(589,750,o),
(585,751,cs),
(584,751,o),
(582,752,o),
(581,752,cs),
(579,752,o),
(577,751,o),
(574,750,cs),
(570,749,o),
(567,746,o),
(566,742,cs),
(330,46,l),
(94,742,ls),
(93,746,o),
(90,749,o),
(86,750,cs),
(84,751,o),
(83,752,o),
(80,752,cs),
(79,752,o),
(77,751,o),
(75,751,cs),
(71,750,o),
(68,747,o),
(66,744,cs),
(65,742,o),
(65,740,o),
(65,737,cs),
(65,735,o),
(65,733,o),
(66,732,cs)
);
}
);
};
layerId = "1C94A3A0-4028-4E4A-BBA2-72662F410E9D";
name = "21 août 23 à 05:26";
shapes = (
{
closed = 0;
nodes = (
(77,751,l),
(329,0,l),
(580,751,l)
);
}
);
width = 661;
},
{
anchors = (
{
name = _bottom;
pos = (330,0);
},
{
name = _top;
pos = (330,751);
},
{
name = top;
pos = (330,751);
}
);
associatedMasterId = m004;
background = {
hints = (
{
horizontal = 1;
place = (-5,21);
target = up;
type = BottomGhost;
},
{
place = (65,531);
type = Stem;
}
);
shapes = (
{
closed = 1;
nodes = (
(316,-5,ls),
(318,-12,o),
(323,-15,o),
(330,-15,cs),
(337,-15,o),
(342,-11,o),
(344,-5,cs),
(595,732,ls),
(596,733,o),
(596,735,o),
(596,737,cs),
(596,739,o),
(596,741,o),
(594,744,cs),
(592,747,o),
(589,750,o),
(585,751,cs),
(584,751,o),
(582,752,o),
(581,752,cs),
(579,752,o),
(577,751,o),
(574,750,cs),
(570,749,o),
(567,746,o),
(566,742,cs),
(330,46,l),
(94,742,ls),
(93,746,o),
(90,749,o),
(86,750,cs),
(84,751,o),
(83,752,o),
(80,752,cs),
(79,752,o),
(77,751,o),
(75,751,cs),
(71,750,o),
(68,747,o),
(66,744,cs),
(65,742,o),
(65,740,o),
(65,737,cs),
(65,735,o),
(65,733,o),
(66,732,cs)
);
}
);
};
layerId = "F79175A9-9A31-489D-A366-D9C703F82AAB";
name = "21 août 23 à 05:26";
shapes = (
{
closed = 0;
nodes = (
(77,751,l),
(329,0,l),
(580,751,l)
);
}
);
width = 661;
},
{
anchors = (
{
name = bottom;
pos = (322,0);
},
{
name = top;
pos = (322,751);
}
);
associatedMasterId = m004;
background = {
hints = (
{
horizontal = 1;
place = (-5,21);
target = up;
type = BottomGhost;
},
{
place = (65,531);
type = Stem;
}
);
shapes = (
{
closed = 1;
nodes = (
(307,-5,ls),
(309,-12,o),
(314,-15,o),
(321,-15,cs),
(329,-15,o),
(333,-11,o),
(335,-5,cs),
(586,732,ls),
(587,733,o),
(587,735,o),
(587,737,cs),
(587,739,o),
(587,741,o),
(585,744,cs),
(583,747,o),
(580,750,o),
(577,751,cs),
(575,751,o),
(573,752,o),
(572,752,cs),
(570,752,o),
(568,751,o),
(565,750,cs),
(561,749,o),
(559,746,o),
(557,742,cs),
(321,46,l),
(85,742,ls),
(84,746,o),
(81,749,o),
(78,750,cs),
(76,751,o),
(74,752,o),
(71,752,cs),
(70,752,o),
(68,751,o),
(66,751,cs),
(62,750,o),
(59,747,o),
(58,744,cs),
(57,742,o),
(56,740,o),
(56,737,cs),
(56,735,o),
(57,733,o),
(57,732,cs)
);
}
);
};
layerId = "BF0951DB-7DC7-4CEF-82FE-A5F5B826E49D";
name = "21 août 23 à 05:27";
shapes = (
{
closed = 1;
nodes = (
(357,-15,o),
(394,6,o),
(408,49,cs),
(617,662,ls),
(619,668,o),
(620,675,o),
(620,683,cs),
(620,720,o),
(589,751,o),
(552,751,cs),
(521,751,o),
(496,730,o),
(486,703,cs),
(320,205,l),
(153,703,ls),
(144,730,o),
(119,751,o),
(88,751,cs),
(50,751,o),
(20,720,o),
(20,683,cs),
(20,675,o),
(21,668,o),
(22,662,cs),
(231,49,ls),
(246,6,o),
(283,-15,o),
(320,-15,cs)
);
}
);
width = 640;
},
{
anchors = (
{
name = _bottom;
pos = (390,0);
},
{
name = top;
pos = (390,751);
}
);
layerId = m004;
name = Bold;
shapes = (
{
closed = 1;
nodes = (
(390,203,l),
(150,712,ls),
(139,735,o),
(115,751,o),
(88,751,cs),
(50,751,o),
(20,720,o),
(20,683,cs),
(20,672,o),
(22,662,o),
(26,653,cs),
(318,36,ls),
(334,2,o),
(362,-15,o),
(390,-15,cs),
(418,-15,o),
(446,2,o),
(462,36,cs),
(754,653,ls),
(758,662,o),
(761,672,o),
(761,683,cs),
(761,720,o),
(730,751,o),
(692,751,cs),
(665,751,o),
(641,735,o),
(630,712,cs)
);
}
);
width = 780;
},
{
anchors = (
{
name = bottom;
pos = (283,0);
},
{
name = top;
pos = (283,751);
}
);
associatedMasterId = "12AF635E-66FE-4C90-B49C-8787585F2B73";
background = {
hints = (
{
horizontal = 1;
place = (-5,21);
target = up;
type = BottomGhost;
},
{
place = (65,531);
type = Stem;
}
);
shapes = (
{
closed = 1;
nodes = (
(269,-5,ls),
(271,-12,o),
(275,-15,o),
(283,-15,cs),
(290,-15,o),
(295,-11,o),
(297,-5,cs),
(548,732,ls),
(548,733,o),
(548,735,o),
(548,737,cs),
(549,739,o),
(548,741,o),
(547,744,cs),
(544,747,o),
(542,750,o),
(538,751,cs),
(537,751,o),
(535,752,o),
(533,752,cs),
(531,752,o),
(529,751,o),
(527,750,cs),
(522,749,o),
(520,746,o),
(519,742,cs),
(283,46,l),
(47,742,ls),
(45,746,o),
(42,749,o),
(39,750,cs),
(37,751,o),
(35,752,o),
(33,752,cs),
(31,752,o),
(29,751,o),
(28,751,cs),
(23,750,o),
(21,747,o),
(19,744,cs),
(18,742,o),
(18,740,o),
(18,737,cs),
(18,735,o),
(18,733,o),
(19,732,cs)
);
}
);
};
layerId = "67E716B3-6FC7-4DA7-B9F4-6570F4E779E6";
name = "21 août 23 à 05:27";
shapes = (
{
closed = 1;
nodes = (
(291,-15,o),
(300,-9,o),
(304,3,cs),
(542,732,ls),
(543,734,o),
(543,735,o),
(543,737,cs),
(543,744,o),
(537,751,o),
(528,751,cs),
(522,751,o),
(517,747,o),
(515,741,cs),
(281,26,l),
(48,741,ls),
(46,747,o),
(41,751,o),
(34,751,cs),
(25,751,o),
(20,744,o),
(20,737,cs),
(20,735,o),
(20,734,o),
(20,732,cs),
(258,3,ls),
(262,-9,o),
(272,-15,o),
(281,-15,cs)
);
}
);
width = 563;
},
{
anchors = (
{
name = _bottom;
pos = (385,-7);
},
{
name = top;
pos = (385,744);
}
);
layerId = "12AF635E-66FE-4C90-B49C-8787585F2B73";
name = Light;
shapes = (
{
closed = 1;
nodes = (
(385,27,l),
(47,743,ls),
(45,748,o),
(40,751,o),
(34,751,cs),
(26,751,o),
(20,745,o),
(20,736,cs),
(20,734,o),
(20,732,o),
(21,730,cs),
(367,-1,ls),
(371,-10,o),
(378,-15,o),
(385,-15,cs),
(393,-15,o),
(400,-10,o),
(404,-1,cs),
(750,730,ls),
(751,732,o),
(751,734,o),
(751,736,cs),
(751,745,o),
(745,751,o),
(737,751,cs),
(731,751,o),
(726,748,o),
(724,743,cs)
);
}
);
width = 771;
}
);
note = V;
unicode = 86;
},
{
glyphname = X;
kernLeft = X;
kernRight = X;
lastChange = "2023-09-15 13:26:36 +0000";
layers = (
{
anchors = (
{
name = bottom;
pos = (340,0);
},
{
name = top;
pos = (340,751);
}
);
background = {
hints = (
{
horizontal = 1;
place = (-16,30);
type = Stem;
},
{
place = (93,652);
type = Stem;
}
);
shapes = (
{
closed = 1;
nodes = (
(653,-16,l),
(659,-16,o),
(664,-13,o),
(667,-7,cs),
(668,-5,o),
(668,-3,o),
(668,0,cs),
(668,3,o),
(667,6,o),
(665,9,cs),
(361,387,l),
(633,726,ls),
(639,734,o),
(638,741,o),
(630,747,cs),
(627,750,o),
(624,751,o),
(621,751,cs),
(617,751,o),
(613,749,o),
(610,745,cs),
(342,411,l),
(74,745,ls),
(70,749,o),
(66,751,o),
(63,751,cs),
(59,751,o),
(56,750,o),
(52,747,cs),
(45,741,o),
(44,734,o),
(50,726,c),
(323,387,l),
(20,9,ls),
(18,6,o),
(17,3,o),
(17,0,cs),
(17,-3,o),
(17,-5,o),
(19,-7,cs),
(21,-13,o),
(26,-16,o),
(32,-16,c)
);
},
{
closed = 1;
nodes = (
(622,14,l),
(63,14,l),
(342,363,l)
);
}
);
};
layerId = "12AF635E-66FE-4C90-B49C-8787585F2B73";
shapes = (
{
closed = 1;
nodes = (
(63,733,o),
(64,730,o),
(66,727,cs),
(323,406,l),
(25,33,ls),
(13,18,o),
(22,0,o),
(41,0,cs),
(642,0,ls),
(660,0,o),
(669,18,o),
(658,33,cs),
(360,406,l),
(617,727,ls),
(619,729,o),
(620,733,o),
(620,736,cs),
(620,744,o),
(614,751,o),
(605,751,cs),
(601,751,o),
(597,749,o),
(594,746,cs),
(341,429,l),
(88,746,ls),
(86,749,o),
(82,751,o),
(77,751,cs),
(69,751,o),
(63,744,o),
(63,736,cs)
);
},
{
closed = 1;
nodes = (
(341,382,l),
(624,29,l),
(59,29,l)
);
}
);
width = 683;
},
{
anchors = (
{
name = _bottom;
pos = (416,0);
},
{
name = _top;
pos = (416,751);
},
{
name = top;
pos = (416,751);
}
);
associatedMasterId = "12AF635E-66FE-4C90-B49C-8787585F2B73";
background = {
hints = (
{
horizontal = 1;
place = (-16,30);
type = Stem;
},
{
place = (93,652);
type = Stem;
}
);
shapes = (
{
closed = 1;
nodes = (
(729,-16,l),
(735,-16,o),
(740,-13,o),
(743,-7,cs),
(744,-5,o),
(745,-3,o),
(745,0,cs),
(745,3,o),
(744,6,o),
(741,9,cs),
(437,387,l),
(709,726,ls),
(715,734,o),
(714,741,o),
(707,747,cs),
(703,750,o),
(700,751,o),
(697,751,cs),
(693,751,o),
(689,749,o),
(686,745,cs),
(418,411,l),
(150,745,ls),
(146,749,o),
(143,751,o),
(139,751,cs),
(135,751,o),
(132,750,o),
(128,747,cs),
(121,741,o),
(120,734,o),
(126,726,c),
(399,387,l),
(96,9,ls),
(94,6,o),
(93,3,o),
(93,0,cs),
(93,-3,o),
(93,-5,o),
(95,-7,cs),
(98,-13,o),
(102,-16,o),
(108,-16,c)
);
},
{
closed = 1;
nodes = (
(698,14,l),
(139,14,l),
(418,363,l)
);
}
);
};
layerId = "33A70FA1-0528-42D8-820D-9EE224D5FFC5";
name = "18 août 23 à 09:49";
shapes = (
{
closed = 0;
nodes = (
(129,751,l),
(730,0,l),
(105,0,l),
(706,751,l)
);
}
);
width = 833;
},
{
anchors = (
{
name = _bottom;
pos = (416,0);
},
{
name = _top;
pos = (416,751);
},
{
name = top;
pos = (416,751);
}
);
associatedMasterId = m004;
background = {
hints = (
{
horizontal = 1;
place = (-16,30);
type = Stem;
},
{
place = (93,652);
type = Stem;
}
);
shapes = (
{
closed = 1;
nodes = (
(729,-16,l),
(735,-16,o),
(740,-13,o),
(743,-7,cs),
(744,-5,o),
(745,-3,o),
(745,0,cs),
(745,3,o),
(744,6,o),
(741,9,cs),
(437,387,l),
(709,726,ls),
(715,734,o),
(714,741,o),
(707,747,cs),
(703,750,o),
(700,751,o),
(697,751,cs),
(693,751,o),
(689,749,o),
(686,745,cs),
(418,411,l),
(150,745,ls),
(146,749,o),
(143,751,o),
(139,751,cs),
(135,751,o),
(132,750,o),
(128,747,cs),
(121,741,o),
(120,734,o),
(126,726,c),
(399,387,l),
(96,9,ls),
(94,6,o),
(93,3,o),
(93,0,cs),
(93,-3,o),
(93,-5,o),
(95,-7,cs),
(98,-13,o),
(102,-16,o),
(108,-16,c)
);
},
{
closed = 1;
nodes = (
(698,14,l),
(139,14,l),
(418,363,l)
);
}
);
};
layerId = "563882F9-5B3C-4902-9514-C4D042122141";
name = "18 août 23 à 13:25";
shapes = (
{
closed = 1;
nodes = (
(556,741,o),
(575,751,o),
(596,751,cs),
(634,751,o),
(665,720,o),
(665,683,cs),
(665,666,o),
(659,651,o),
(649,639,cs),
(247,137,l),
(588,137,l),
(186,639,ls),
(176,651,o),
(170,666,o),
(170,683,cs),
(170,720,o),
(201,751,o),
(239,751,cs),
(260,751,o),
(279,741,o),
(292,726,cs),
(769,128,ls),
(814,71,o),
(780,0,o),
(708,0,cs),
(127,0,ls),
(55,0,o),
(21,71,o),
(66,128,cs),
(543,726,ls)
);
}
);
width = 833;
},
{
anchors = (
{
name = bottom;
pos = (351,0);
},
{
name = top;
pos = (351,751);
}
);
background = {
hints = (
{
horizontal = 1;
place = (-16,30);
type = Stem;
},
{
place = (93,652);
type = Stem;
}
);
shapes = (
{
closed = 1;
nodes = (
(663,-16,l),
(669,-16,o),
(674,-13,o),
(677,-7,cs),
(678,-5,o),
(679,-3,o),
(679,0,cs),
(679,3,o),
(678,6,o),
(675,9,cs),
(371,387,l),
(643,726,ls),
(649,734,o),
(648,741,o),
(641,747,cs),
(637,750,o),
(634,751,o),
(631,751,cs),
(627,751,o),
(624,749,o),
(620,745,cs),
(352,411,l),
(84,745,ls),
(81,749,o),
(77,751,o),
(73,751,cs),
(69,751,o),
(66,750,o),
(63,747,cs),
(55,741,o),
(54,734,o),
(60,726,c),
(333,387,l),
(30,9,ls),
(28,6,o),
(27,3,o),
(27,0,cs),
(27,-3,o),
(27,-5,o),
(29,-7,cs),
(32,-13,o),
(36,-16,o),
(42,-16,c)
);
},
{
closed = 1;
nodes = (
(632,14,l),
(73,14,l),
(352,363,l)
);
}
);
};
layerId = m004;
name = Bold;
shapes = (
{
closed = 1;
nodes = (
(33,664,o),
(42,648,o),
(55,633,cs),
(261,394,l),
(44,143,ls),
(-6,84,o),
(23,0,o),
(104,0,cs),
(599,0,ls),
(680,0,o),
(712,81,o),
(659,143,cs),
(441,395,l),
(647,635,ls),
(658,647,o),
(667,664,o),
(667,683,cs),
(667,720,o),
(636,751,o),
(598,751,cs),
(580,751,o),
(562,745,o),
(551,732,cs),
(351,499,l),
(150,730,ls),
(139,744,o),
(121,751,o),
(102,751,cs),
(63,751,o),
(33,720,o),
(33,683,cs)
);
},
{
closed = 1;
nodes = (
(351,290,l),
(483,137,l),
(220,137,l)
);
}
);
width = 705;
},
{
anchors = (
{
name = bottom;
pos = (351,0);
},
{
name = top;
pos = (351,751);
}
);
associatedMasterId = m004;
background = {
hints = (
{
horizontal = 1;
place = (-16,30);
type = Stem;
},
{
place = (93,652);
type = Stem;
}
);
shapes = (
{
closed = 1;
nodes = (
(663,-16,l),
(669,-16,o),
(674,-13,o),
(677,-7,cs),
(678,-5,o),
(679,-3,o),
(679,0,cs),
(679,3,o),
(678,6,o),
(675,9,cs),
(371,387,l),
(643,726,ls),
(649,734,o),
(648,741,o),
(641,747,cs),
(637,750,o),
(634,751,o),
(631,751,cs),
(627,751,o),
(624,749,o),
(620,745,cs),
(352,411,l),
(84,745,ls),
(81,749,o),
(77,751,o),
(73,751,cs),
(69,751,o),
(66,750,o),
(63,747,cs),
(55,741,o),
(54,734,o),
(60,726,c),
(333,387,l),
(30,9,ls),
(28,6,o),
(27,3,o),
(27,0,cs),
(27,-3,o),
(27,-5,o),
(29,-7,cs),
(32,-13,o),
(36,-16,o),
(42,-16,c)
);
},
{
closed = 1;
nodes = (
(632,14,l),
(73,14,l),
(352,363,l)
);
}
);
};
layerId = "E5DDEFD1-431F-4970-B628-33750AA2CA7A";
name = "21 août 23 à 13:19";
shapes = (
{
closed = 1;
nodes = (
(23,0,o),
(-6,84,o),
(44,143,cs),
(551,732,ls),
(562,745,o),
(580,751,o),
(598,751,cs),
(636,751,o),
(667,720,o),
(667,683,cs),
(667,664,o),
(658,647,o),
(647,635,cs),
(220,137,l),
(483,137,l),
(55,633,ls),
(42,648,o),
(33,664,o),
(33,683,cs),
(33,720,o),
(63,751,o),
(102,751,cs),
(121,751,o),
(139,744,o),
(150,730,cs),
(659,143,ls),
(712,81,o),
(680,0,o),
(599,0,cs),
(104,0,ls)
);
}
);
width = 705;
},
{
anchors = (
{
name = bottom;
pos = (340,0);
},
{
name = top;
pos = (340,751);
}
);
associatedMasterId = "12AF635E-66FE-4C90-B49C-8787585F2B73";
background = {
hints = (
{
horizontal = 1;
place = (-16,30);
type = Stem;
},
{
place = (93,652);
type = Stem;
}
);
shapes = (
{
closed = 1;
nodes = (
(653,-16,l),
(659,-16,o),
(664,-13,o),
(667,-7,cs),
(668,-5,o),
(668,-3,o),
(668,0,cs),
(668,3,o),
(667,6,o),
(665,9,cs),
(361,387,l),
(633,726,ls),
(639,734,o),
(638,741,o),
(630,747,cs),
(627,750,o),
(624,751,o),
(621,751,cs),
(617,751,o),
(613,749,o),
(610,745,cs),
(342,411,l),
(74,745,ls),
(70,749,o),
(66,751,o),
(63,751,cs),
(59,751,o),
(56,750,o),
(52,747,cs),
(45,741,o),
(44,734,o),
(50,726,c),
(323,387,l),
(20,9,ls),
(18,6,o),
(17,3,o),
(17,0,cs),
(17,-3,o),
(17,-5,o),
(19,-7,cs),
(21,-13,o),
(26,-16,o),
(32,-16,c)
);
},
{
closed = 1;
nodes = (
(622,14,l),
(63,14,l),
(342,363,l)
);
}
);
};
layerId = "894ED250-320F-4CE6-B650-ECF6DE6B008F";
name = "21 août 23 à 13:19";
shapes = (
{
closed = 1;
nodes = (
(22,0,o),
(13,18,o),
(25,33,cs),
(594,746,ls),
(597,749,o),
(601,751,o),
(605,751,cs),
(614,751,o),
(620,744,o),
(620,736,cs),
(620,733,o),
(619,729,o),
(617,727,cs),
(59,29,l),
(624,29,l),
(66,727,ls),
(64,730,o),
(63,733,o),
(63,736,cs),
(63,744,o),
(69,751,o),
(77,751,cs),
(82,751,o),
(86,749,o),
(88,746,cs),
(658,33,ls),
(669,18,o),
(660,0,o),
(642,0,cs),
(41,0,ls)
);
}
);
width = 683;
}
);
note = X;
unicode = 88;
},
{
glyphname = Y;
kernLeft = Y;
kernRight = Y;
lastChange = "2023-09-15 13:26:36 +0000";
layers = (
{
anchors = (
{
name = bottom;
pos = (370,0);
},
{
name = top;
pos = (370,751);
},
{
name = topleft;
pos = (370,751);
}
);
background = {
hints = (
{
horizontal = 1;
place = (-15,21);
target = up;
type = BottomGhost;
},
{
horizontal = 1;
place = (721,30);
type = Stem;
},
{
place = (360,30);
type = Stem;
}
);
shapes = (
{
closed = 1;
nodes = (
(356,351,l),
(356,0,ls),
(356,-10,o),
(361,-15,o),
(371,-15,cs),
(381,-15,o),
(386,-10,o),
(386,0,cs),
(386,351,l),
(719,726,ls),
(722,729,o),
(723,732,o),
(723,735,cs),
(723,738,o),
(722,740,o),
(721,742,cs),
(718,748,o),
(714,751,o),
(708,751,cs),
(46,751,ls),
(40,751,o),
(35,748,o),
(32,743,cs),
(31,740,o),
(31,738,o),
(30,736,c),
(31,732,o),
(32,729,o),
(34,726,c)
);
},
{
closed = 1;
nodes = (
(371,380,l),
(78,721,l),
(674,721,l)
);
}
);
};
layerId = "12AF635E-66FE-4C90-B49C-8787585F2B73";
shapes = (
{
closed = 1;
nodes = (
(714,716,ls),
(727,731,o),
(717,751,o),
(698,751,cs),
(42,751,ls),
(22,751,o),
(12,731,o),
(25,716,cs),
(370,323,l)
);
},
{
closed = 1;
nodes = (
(378,0,o),
(384,6,o),
(384,15,cs),
(384,347,ls),
(384,355,o),
(378,362,o),
(370,362,cs),
(361,362,o),
(355,355,o),
(355,347,cs),
(355,15,ls),
(355,6,o),
(361,0,o),
(370,0,cs)
);
},
{
closed = 1;
nodes = (
(60,722,l),
(680,722,l),
(370,368,l)
);
}
);
width = 739;
},
{
anchors = (
{
name = bottom;
pos = (418,0);
},
{
name = top;
pos = (418,751);
},
{
name = topleft;
pos = (418,751);
}
);
background = {
hints = (
{
horizontal = 1;
place = (-15,21);
target = up;
type = BottomGhost;
},
{
horizontal = 1;
place = (721,30);
type = Stem;
},
{
place = (360,30);
type = Stem;
}
);
shapes = (
{
closed = 1;
nodes = (
(405,351,l),
(405,0,ls),
(405,-10,o),
(410,-15,o),
(420,-15,cs),
(430,-15,o),
(435,-10,o),
(435,0,cs),
(435,351,l),
(768,726,ls),
(771,729,o),
(771,732,o),
(771,735,cs),
(771,738,o),
(771,740,o),
(770,742,cs),
(767,748,o),
(763,751,o),
(757,751,cs),
(95,751,ls),
(88,751,o),
(83,748,o),
(81,743,cs),
(80,740,o),
(80,738,o),
(79,736,c),
(80,732,o),
(81,729,o),
(83,726,c)
);
},
{
closed = 1;
nodes = (
(420,380,l),
(127,721,l),
(723,721,l)
);
}
);
};
layerId = m004;
shapes = (
{
closed = 1;
nodes = (
(793,616,ls),
(844,674,o),
(809,751,o),
(732,751,cs),
(104,751,ls),
(28,751,o),
(-7,674,o),
(43,616,cs),
(418,188,l)
);
},
{
closed = 1;
nodes = (
(456,0,o),
(487,31,o),
(487,68,cs),
(487,306,ls),
(487,343,o),
(456,374,o),
(418,374,cs),
(381,374,o),
(350,343,o),
(350,306,cs),
(350,68,ls),
(350,31,o),
(381,0,o),
(418,0,cs)
);
},
{
closed = 1;
nodes = (
(227,614,l),
(610,614,l),
(418,396,l)
);
}
);
width = 837;
},
{
anchors = (
{
name = _bottom;
pos = (374,0);
},
{
name = _top;
pos = (374,751);
},
{
name = top;
pos = (374,751);
}
);
associatedMasterId = "12AF635E-66FE-4C90-B49C-8787585F2B73";
background = {
hints = (
{
horizontal = 1;
place = (-15,21);
target = up;
type = BottomGhost;
},
{
horizontal = 1;
place = (721,30);
type = Stem;
},
{
place = (360,30);
type = Stem;
}
);
shapes = (
{
closed = 1;
nodes = (
(360,351,l),
(360,0,ls),
(360,-10,o),
(365,-15,o),
(375,-15,cs),
(385,-15,o),
(390,-10,o),
(390,0,cs),
(390,351,l),
(723,726,ls),
(726,729,o),
(727,732,o),
(727,735,cs),
(727,738,o),
(726,740,o),
(725,742,cs),
(722,748,o),
(718,751,o),
(712,751,cs),
(50,751,ls),
(43,751,o),
(39,748,o),
(36,743,cs),
(35,740,o),
(35,738,o),
(34,736,c),
(35,732,o),
(36,729,o),
(38,726,c)
);
},
{
closed = 1;
nodes = (
(375,380,l),
(82,721,l),
(678,721,l)
);
}
);
};
layerId = "8FD56F8D-68AE-4E08-BC08-3A87431EBD42";
name = "18 août 23 à 09:49";
shapes = (
{
closed = 1;
nodes = (
(31,751,l),
(716,751,l),
(374,360,l)
);
},
{
closed = 0;
nodes = (
(374,0,l),
(374,360,l)
);
}
);
width = 749;
},
{
anchors = (
{
name = _bottom;
pos = (374,0);
},
{
name = _top;
pos = (374,751);
},
{
name = top;
pos = (374,751);
}
);
associatedMasterId = m004;
background = {
hints = (
{
horizontal = 1;
place = (-15,21);
target = up;
type = BottomGhost;
},
{
horizontal = 1;
place = (721,30);
type = Stem;
},
{
place = (360,30);
type = Stem;
}
);
shapes = (
{
closed = 1;
nodes = (
(360,351,l),
(360,0,ls),
(360,-10,o),
(365,-15,o),
(375,-15,cs),
(385,-15,o),
(390,-10,o),
(390,0,cs),
(390,351,l),
(723,726,ls),
(726,729,o),
(727,732,o),
(727,735,cs),
(727,738,o),
(726,740,o),
(725,742,cs),
(722,748,o),
(718,751,o),
(712,751,cs),
(50,751,ls),
(43,751,o),
(39,748,o),
(36,743,cs),
(35,740,o),
(35,738,o),
(34,736,c),
(35,732,o),
(36,729,o),
(38,726,c)
);
},
{
closed = 1;
nodes = (
(375,380,l),
(82,721,l),
(678,721,l)
);
}
);
};
layerId = "6EA77859-CB55-42EB-81FF-FF91FB0C9CCC";
name = "18 août 23 à 09:49";
shapes = (
{
closed = 1;
nodes = (
(31,751,l),
(716,751,l),
(374,360,l)
);
},
{
closed = 0;
nodes = (
(374,0,l),
(374,360,l)
);
}
);
width = 749;
}
);
note = Y;
unicode = 89;
},
{
glyphname = Z;
kernLeft = Z;
kernRight = Z;
lastChange = "2023-09-15 13:26:36 +0000";
layers = (
{
anchors = (
{
name = bottom;
pos = (326,0);
},
{
name = center;
pos = (326,375);
},
{
name = top;
pos = (326,751);
}
);
background = {
hints = (
{
horizontal = 1;
place = (-15,30);
type = Stem;
},
{
horizontal = 1;
place = (721,30);
type = Stem;
},
{
place = (86,655);
type = Stem;
}
);
shapes = (
{
closed = 1;
nodes = (
(639,-15,ls),
(649,-15,o),
(654,-10,o),
(654,0,cs),
(654,10,o),
(649,15,o),
(639,15,cs),
(45,15,l),
(608,727,l),
(613,731,o),
(613,737,o),
(610,742,cs),
(607,748,o),
(603,751,o),
(597,751,cs),
(84,751,ls),
(73,751,o),
(65,736,o),
(73,727,cs),
(316,406,l),
(2,9,l),
(0,6,o),
(-1,3,o),
(-1,0,cs),
(-1,-2,o),
(0,-4,o),
(1,-6,cs),
(4,-12,o),
(8,-15,o),
(15,-15,c)
);
},
{
closed = 1;
nodes = (
(335,430,l),
(115,721,l),
(565,721,l)
);
}
);
};
layerId = "12AF635E-66FE-4C90-B49C-8787585F2B73";
shapes = (
{
closed = 1;
nodes = (
(604,0,ls),
(612,0,o),
(619,6,o),
(619,15,cs),
(619,23,o),
(612,29,o),
(604,29,cs),
(60,29,l),
(607,718,ls),
(619,732,o),
(609,751,o),
(591,751,cs),
(69,751,ls),
(51,751,o),
(41,733,o),
(53,718,cs),
(312,395,l),
(25,33,ls),
(13,19,o),
(22,0,o),
(41,0,cs)
);
},
{
closed = 1;
nodes = (
(88,722,l),
(572,722,l),
(331,418,l)
);
}
);
width = 638;
},
{
anchors = (
{
name = bottom;
pos = (325,0);
},
{
name = center;
pos = (325,375);
},
{
name = top;
pos = (325,751);
}
);
background = {
hints = (
{
horizontal = 1;
place = (-15,30);
type = Stem;
},
{
horizontal = 1;
place = (721,30);
type = Stem;
},
{
place = (86,655);
type = Stem;
}
);
shapes = (
{
closed = 1;
nodes = (
(638,-15,ls),
(648,-15,o),
(653,-10,o),
(653,0,cs),
(653,10,o),
(648,15,o),
(638,15,cs),
(45,15,l),
(608,727,l),
(612,731,o),
(613,737,o),
(609,742,cs),
(606,748,o),
(602,751,o),
(596,751,cs),
(84,751,ls),
(72,751,o),
(64,736,o),
(72,727,cs),
(316,406,l),
(2,9,l),
(0,6,o),
(-1,3,o),
(-1,0,cs),
(-1,-2,o),
(-1,-4,o),
(0,-6,cs),
(3,-12,o),
(8,-15,o),
(14,-15,c)
);
},
{
closed = 1;
nodes = (
(335,430,l),
(114,721,l),
(565,721,l)
);
}
);
};
layerId = m004;
shapes = (
{
closed = 1;
nodes = (
(593,0,ls),
(630,0,o),
(661,31,o),
(661,68,cs),
(661,106,o),
(630,137,o),
(593,137,cs),
(231,137,l),
(619,623,ls),
(665,680,o),
(630,751,o),
(558,751,cs),
(102,751,ls),
(29,751,o),
(-5,680,o),
(40,623,cs),
(249,361,l),
(50,128,l),
(4,71,o),
(39,0,o),
(111,0,cs)
);
},
{
closed = 1;
nodes = (
(221,614,l),
(438,614,l),
(330,479,l)
);
}
);
width = 681;
},
{
anchors = (
{
name = _bottom;
pos = (413,0);
},
{
name = _top;
pos = (413,751);
},
{
name = top;
pos = (413,751);
}
);
associatedMasterId = m004;
background = {
hints = (
{
horizontal = 1;
place = (-15,30);
type = Stem;
},
{
horizontal = 1;
place = (721,30);
type = Stem;
},
{
place = (86,655);
type = Stem;
}
);
shapes = (
{
closed = 1;
nodes = (
(726,-15,ls),
(736,-15,o),
(741,-10,o),
(741,0,cs),
(741,10,o),
(736,15,o),
(726,15,cs),
(133,15,l),
(696,727,l),
(700,731,o),
(701,737,o),
(697,742,cs),
(694,748,o),
(690,751,o),
(684,751,cs),
(172,751,ls),
(160,751,o),
(152,736,o),
(160,727,cs),
(404,406,l),
(90,9,l),
(87,6,o),
(86,3,o),
(86,0,cs),
(86,-2,o),
(87,-4,o),
(88,-6,cs),
(91,-12,o),
(96,-15,o),
(102,-15,c)
);
},
{
closed = 1;
nodes = (
(423,430,l),
(202,721,l),
(653,721,l)
);
}
);
};
layerId = "0AD44743-3E4C-4C1C-A7DC-3BBC6682B634";
name = "18 août 23 à 09:49";
shapes = (
{
closed = 0;
nodes = (
(741,0,l),
(96,0,l),
(696,751,l),
(139,751,l),
(417,402,l)
);
}
);
width = 826;
},
{
anchors = (
{
name = _bottom;
pos = (413,0);
},
{
name = _top;
pos = (413,751);
},
{
name = top;
pos = (413,751);
}
);
associatedMasterId = "12AF635E-66FE-4C90-B49C-8787585F2B73";
background = {
hints = (
{
horizontal = 1;
place = (-15,30);
type = Stem;
},
{
horizontal = 1;
place = (721,30);
type = Stem;
},
{
place = (86,655);
type = Stem;
}
);
shapes = (
{
closed = 1;
nodes = (
(726,-15,ls),
(736,-15,o),
(741,-10,o),
(741,0,cs),
(741,10,o),
(736,15,o),
(726,15,cs),
(133,15,l),
(696,727,l),
(700,731,o),
(701,737,o),
(697,742,cs),
(694,748,o),
(690,751,o),
(684,751,cs),
(172,751,ls),
(160,751,o),
(152,736,o),
(160,727,cs),
(404,406,l),
(90,9,l),
(87,6,o),
(86,3,o),
(86,0,cs),
(86,-2,o),
(87,-4,o),
(88,-6,cs),
(91,-12,o),
(96,-15,o),
(102,-15,c)
);
},
{
closed = 1;
nodes = (
(423,430,l),
(202,721,l),
(653,721,l)
);
}
);
};
layerId = "4B25D27F-8227-43A9-AA73-EA996074976B";
name = "18 août 23 à 09:49";
shapes = (
{
closed = 0;
nodes = (
(741,0,l),
(96,0,l),
(696,751,l),
(139,751,l),
(417,402,l)
);
}
);
width = 826;
},
{
anchors = (
{
name = bottom;
pos = (413,0);
},
{
name = center;
pos = (413,375);
},
{
name = top;
pos = (413,751);
}
);
associatedMasterId = m004;
background = {
hints = (
{
horizontal = 1;
place = (-15,30);
type = Stem;
},
{
horizontal = 1;
place = (721,30);
type = Stem;
},
{
place = (86,655);
type = Stem;
}
);
shapes = (
{
closed = 1;
nodes = (
(726,-15,ls),
(736,-15,o),
(741,-10,o),
(741,0,cs),
(741,10,o),
(736,15,o),
(726,15,cs),
(133,15,l),
(696,727,l),
(700,731,o),
(701,737,o),
(697,742,cs),
(694,748,o),
(690,751,o),
(684,751,cs),
(172,751,ls),
(160,751,o),
(152,736,o),
(160,727,cs),
(404,406,l),
(90,9,l),
(87,6,o),
(86,3,o),
(86,0,cs),
(86,-2,o),
(87,-4,o),
(88,-6,cs),
(91,-12,o),
(96,-15,o),
(102,-15,c)
);
},
{
closed = 1;
nodes = (
(423,430,l),
(202,721,l),
(653,721,l)
);
}
);
};
layerId = "E97EE1D8-7CF8-42B6-9F43-CE3D6ABB9A8F";
name = "18 août 23 à 16:44";
shapes = (
{
closed = 1;
nodes = (
(681,0,ls),
(718,0,o),
(749,31,o),
(749,68,cs),
(749,106,o),
(718,137,o),
(681,137,cs),
(319,137,l),
(707,623,ls),
(752,680,o),
(718,751,o),
(646,751,cs),
(189,751,ls),
(117,751,o),
(83,680,o),
(128,623,cs),
(337,361,ls),
(349,346,o),
(368,336,o),
(390,336,cs),
(427,336,o),
(458,367,o),
(458,404,cs),
(458,420,o),
(452,436,o),
(443,447,cs),
(309,614,l),
(526,614,l),
(138,128,ls),
(92,71,o),
(126,0,o),
(199,0,cs)
);
}
);
width = 826;
},
{
anchors = (
{
name = bottom;
pos = (413,0);
},
{
name = center;
pos = (413,375);
},
{
name = top;
pos = (413,751);
}
);
associatedMasterId = "12AF635E-66FE-4C90-B49C-8787585F2B73";
background = {
hints = (
{
horizontal = 1;
place = (-15,30);
type = Stem;
},
{
horizontal = 1;
place = (721,30);
type = Stem;
},
{
place = (86,655);
type = Stem;
}
);
shapes = (
{
closed = 1;
nodes = (
(726,-15,ls),
(736,-15,o),
(741,-10,o),
(741,0,cs),
(741,10,o),
(736,15,o),
(726,15,cs),
(133,15,l),
(696,727,l),
(700,731,o),
(701,737,o),
(697,742,cs),
(694,748,o),
(690,751,o),
(684,751,cs),
(172,751,ls),
(160,751,o),
(152,736,o),
(160,727,cs),
(404,406,l),
(90,9,l),
(87,6,o),
(86,3,o),
(86,0,cs),
(86,-2,o),
(87,-4,o),
(88,-6,cs),
(91,-12,o),
(96,-15,o),
(102,-15,c)
);
},
{
closed = 1;
nodes = (
(423,430,l),
(202,721,l),
(653,721,l)
);
}
);
};
layerId = "A248A742-1299-401E-82A5-B3276C2F25CD";
name = "18 août 23 à 16:44";
shapes = (
{
closed = 1;
nodes = (
(691,0,ls),
(700,0,o),
(706,6,o),
(706,15,cs),
(706,23,o),
(700,29,o),
(691,29,cs),
(147,29,l),
(694,718,ls),
(706,732,o),
(697,751,o),
(678,751,cs),
(157,751,ls),
(138,751,o),
(128,733,o),
(141,718,cs),
(400,394,ls),
(403,390,o),
(407,388,o),
(412,388,cs),
(419,388,o),
(426,395,o),
(426,403,cs),
(426,406,o),
(425,410,o),
(423,412,cs),
(175,722,l),
(660,722,l),
(112,33,ls),
(101,19,o),
(110,0,o),
(128,0,cs)
);
}
);
width = 826;
}
);
note = Z;
unicode = 90;
},
{
glyphname = a;
kernLeft = A;
kernRight = A;
lastChange = "2023-09-15 13:26:36 +0000";
layers = (
{
anchors = (
{
name = bottom;
pos = (416,0);
},
{
name = ogonek;
pos = (781,7);
},
{
name = top;
pos = (416,751);
}
);
background = {
shapes = (
{
closed = 1;
nodes = (
(16,7,ls),
(14,4,o),
(13,1,o),
(13,-1,cs),
(13,-6,o),
(16,-10,o),
(21,-13,cs),
(30,-18,o),
(37,-16,o),
(42,-7,cs),
(201,294,l),
(404,-8,ls),
(407,-13,o),
(412,-15,o),
(417,-15,cs),
(421,-15,o),
(426,-13,o),
(430,-8,cs),
(631,295,l),
(791,-7,ls),
(793,-13,o),
(797,-16,o),
(802,-16,cs),
(805,-16,o),
(808,-15,o),
(811,-13,cs),
(816,-10,o),
(819,-6,o),
(819,-1,cs),
(819,1,o),
(818,4,o),
(816,7,cs),
(429,743,ls),
(426,749,o),
(420,751,o),
(415,751,cs),
(410,751,o),
(405,749,o),
(401,743,c),
(188,335,l),
(186,333,o),
(184,330,o),
(184,327,c)
);
},
{
closed = 1;
nodes = (
(417,27,l),
(215,324,l),
(416,704,l),
(616,325,l)
);
}
);
};
layerId = "12AF635E-66FE-4C90-B49C-8787585F2B73";
shapes = (
{
ref = A;
}
);
width = 830;
},
{
anchors = (
{
name = _bottom;
pos = (416,0);
},
{
name = _top;
pos = (416,751);
},
{
name = top;
pos = (416,751);
}
);
associatedMasterId = "12AF635E-66FE-4C90-B49C-8787585F2B73";
background = {
shapes = (
{
closed = 1;
nodes = (
(15,7,ls),
(14,4,o),
(13,1,o),
(13,-1,cs),
(13,-6,o),
(16,-10,o),
(21,-13,cs),
(30,-18,o),
(36,-16,o),
(41,-7,cs),
(200,294,l),
(404,-8,ls),
(407,-13,o),
(412,-15,o),
(416,-15,cs),
(421,-15,o),
(426,-13,o),
(429,-8,cs),
(631,295,l),
(790,-7,ls),
(793,-13,o),
(797,-16,o),
(802,-16,cs),
(804,-16,o),
(807,-15,o),
(810,-13,cs),
(815,-10,o),
(818,-6,o),
(818,-1,cs),
(818,1,o),
(817,4,o),
(816,7,cs),
(428,743,ls),
(425,749,o),
(420,751,o),
(415,751,cs),
(410,751,o),
(404,749,o),
(401,743,c),
(187,335,l),
(185,333,o),
(184,330,o),
(183,327,c)
);
},
{
closed = 1;
nodes = (
(416,27,l),
(215,324,l),
(415,704,l),
(615,325,l)
);
}
);
};
layerId = "E8607AC4-E5C6-46CD-A64C-EE98AF0D5250";
name = "17 août 23 à 14:23";
shapes = (
{
closed = 0;
nodes = (
(28,0,l),
(414,751,l),
(800,0,l)
);
},
{
closed = 0;
nodes = (
(633,325,l),
(414,0,l),
(195,325,l)
);
}
);
width = 831;
},
{
anchors = (
{
name = _bottom;
pos = (146,0);
},
{
name = _top;
pos = (146,751);
},
{
name = top;
pos = (146,751);
}
);
associatedMasterId = "12AF635E-66FE-4C90-B49C-8787585F2B73";
layerId = "FF8F5861-4D4E-4A19-9FC8-D757777B75C1";
width = 293;
},
{
anchors = (
{
name = bottom;
pos = (415,0);
},
{
name = ogonek;
pos = (723,62);
},
{
name = top;
pos = (415,751);
}
);
background = {
shapes = (
{
closed = 1;
nodes = (
(15,7,ls),
(13,4,o),
(12,1,o),
(12,-1,cs),
(12,-6,o),
(15,-10,o),
(21,-13,cs),
(29,-18,o),
(36,-16,o),
(41,-7,cs),
(200,294,l),
(403,-8,ls),
(406,-13,o),
(411,-15,o),
(416,-15,cs),
(420,-15,o),
(425,-13,o),
(429,-8,cs),
(630,295,l),
(790,-7,ls),
(792,-13,o),
(796,-16,o),
(801,-16,cs),
(804,-16,o),
(807,-15,o),
(810,-13,cs),
(815,-10,o),
(818,-6,o),
(818,-1,cs),
(818,1,o),
(817,4,o),
(815,7,cs),
(428,743,ls),
(425,749,o),
(419,751,o),
(414,751,cs),
(409,751,o),
(404,749,o),
(400,743,c),
(187,335,l),
(185,333,o),
(183,330,o),
(183,327,c)
);
},
{
closed = 1;
nodes = (
(416,27,l),
(214,324,l),
(415,704,l),
(615,325,l)
);
}
);
};
layerId = m004;
shapes = (
{
ref = A;
}
);
width = 827;
},
{
anchors = (
{
name = _bottom;
pos = (416,0);
},
{
name = _top;
pos = (416,751);
},
{
name = top;
pos = (416,751);
}
);
associatedMasterId = m004;
background = {
shapes = (
{
closed = 1;
nodes = (
(15,7,ls),
(14,4,o),
(13,1,o),
(13,-1,cs),
(13,-6,o),
(16,-10,o),
(21,-13,cs),
(30,-18,o),
(36,-16,o),
(41,-7,cs),
(200,294,l),
(404,-8,ls),
(407,-13,o),
(412,-15,o),
(416,-15,cs),
(421,-15,o),
(426,-13,o),
(429,-8,cs),
(631,295,l),
(790,-7,ls),
(793,-13,o),
(797,-16,o),
(802,-16,cs),
(804,-16,o),
(807,-15,o),
(810,-13,cs),
(815,-10,o),
(818,-6,o),
(818,-1,cs),
(818,1,o),
(817,4,o),
(816,7,cs),
(428,743,ls),
(425,749,o),
(420,751,o),
(415,751,cs),
(410,751,o),
(404,749,o),
(401,743,c),
(187,335,l),
(185,333,o),
(184,330,o),
(183,327,c)
);
},
{
closed = 1;
nodes = (
(416,27,l),
(215,324,l),
(415,704,l),
(615,325,l)
);
}
);
};
layerId = "B25C972D-7510-49A5-8386-48E3DF46A208";
name = "17 août 23 à 14:23";
shapes = (
{
closed = 0;
nodes = (
(28,0,l),
(414,751,l),
(800,0,l)
);
},
{
closed = 0;
nodes = (
(633,325,l),
(414,0,l),
(195,325,l)
);
}
);
width = 831;
}
);
note = A;
unicode = 97;
},
{
glyphname = b;
kernLeft = H;
kernRight = B;
lastChange = "2023-09-15 13:26:36 +0000";
layers = (
{
anchors = (
{
name = _bottom;
pos = (351,0);
},
{
name = _top;
pos = (351,751);
},
{
name = top;
pos = (351,751);
}
);
associatedMasterId = m004;
background = {
hints = (
{
horizontal = 1;
place = (-15,30);
type = Stem;
},
{
horizontal = 1;
place = (257,30);
type = Stem;
},
{
horizontal = 1;
place = (564,30);
type = Stem;
},
{
horizontal = 1;
place = (721,30);
type = Stem;
},
{
place = (85,30);
type = Stem;
},
{
place = (608,30);
type = Stem;
}
);
shapes = (
{
closed = 1;
nodes = (
(85,0,ls),
(85,-10,o),
(90,-15,o),
(100,-15,cs),
(334,-15,ls),
(418,-15,o),
(490,15,o),
(549,74,cs),
(608,133,o),
(638,205,o),
(638,289,cs),
(638,378,o),
(600,459,o),
(537,516,c),
(534,581,o),
(508,637,o),
(460,682,cs),
(413,728,o),
(356,751,o),
(290,751,cs),
(100,751,ls),
(90,751,o),
(85,746,o),
(85,736,cs)
);
},
{
closed = 1;
nodes = (
(115,594,l),
(115,721,l),
(290,721,ls),
(343,721,o),
(390,704,o),
(430,670,cs),
(470,636,o),
(495,593,o),
(504,542,c),
(453,577,o),
(396,594,o),
(334,594,cs)
);
},
{
closed = 1;
nodes = (
(115,287,l),
(115,564,l),
(334,564,ls),
(398,564,o),
(456,543,o),
(507,502,c),
(506,443,o),
(485,392,o),
(442,350,cs),
(400,308,o),
(349,287,o),
(290,287,cs)
);
},
{
closed = 1;
nodes = (
(115,15,l),
(115,257,l),
(290,257,ls),
(353,257,o),
(407,278,o),
(455,320,cs),
(502,362,o),
(529,414,o),
(535,475,c),
(583,423,o),
(608,361,o),
(608,289,cs),
(608,213,o),
(581,149,o),
(527,95,cs),
(474,42,o),
(409,15,o),
(334,15,cs)
);
}
);
};
layerId = "E32FE344-3A96-44CA-B9C3-14A61411E5CC";
name = "18 août 23 à 00:15";
shapes = (
{
closed = 0;
nodes = (
(100,560,l),
(345,560,ls),
(500,560,o),
(625,435,o),
(625,280,cs),
(625,125,o),
(500,0,o),
(345,0,cs),
(100,0,l),
(100,751,l),
(291,751,ls),
(427,751,o),
(537,641,o),
(537,504,cs),
(537,368,o),
(427,257,o),
(291,257,cs),
(100,257,l)
);
}
);
width = 703;
},
{
anchors = (
{
name = bottom;
pos = (322,0);
},
{
name = center;
pos = (322,375);
},
{
name = top;
pos = (322,751);
}
);
associatedMasterId = "12AF635E-66FE-4C90-B49C-8787585F2B73";
background = {
hints = (
{
horizontal = 1;
place = (-15,30);
type = Stem;
},
{
horizontal = 1;
place = (257,30);
type = Stem;
},
{
horizontal = 1;
place = (564,30);
type = Stem;
},
{
horizontal = 1;
place = (721,30);
type = Stem;
},
{
place = (85,30);
type = Stem;
},
{
place = (608,30);
type = Stem;
}
);
shapes = (
{
closed = 1;
nodes = (
(55,0,ls),
(55,-10,o),
(60,-15,o),
(70,-15,cs),
(304,-15,ls),
(388,-15,o),
(460,15,o),
(519,74,cs),
(579,133,o),
(608,205,o),
(608,289,cs),
(608,378,o),
(570,459,o),
(507,516,c),
(504,581,o),
(479,637,o),
(431,682,cs),
(383,728,o),
(326,751,o),
(260,751,cs),
(70,751,ls),
(60,751,o),
(55,746,o),
(55,736,cs)
);
},
{
closed = 1;
nodes = (
(85,594,l),
(85,721,l),
(260,721,ls),
(313,721,o),
(360,704,o),
(400,670,cs),
(440,636,o),
(465,593,o),
(474,542,c),
(423,577,o),
(366,594,o),
(304,594,cs)
);
},
{
closed = 1;
nodes = (
(85,287,l),
(85,564,l),
(304,564,ls),
(369,564,o),
(426,543,o),
(477,502,c),
(477,443,o),
(455,392,o),
(413,350,cs),
(370,308,o),
(319,287,o),
(260,287,cs)
);
},
{
closed = 1;
nodes = (
(85,15,l),
(85,257,l),
(260,257,ls),
(323,257,o),
(377,278,o),
(425,320,cs),
(472,362,o),
(499,414,o),
(505,475,c),
(554,423,o),
(578,361,o),
(578,289,cs),
(578,213,o),
(551,149,o),
(498,95,cs),
(444,42,o),
(379,15,o),
(304,15,cs)
);
}
);
};
layerId = "FBACD670-023F-4DA2-BCEE-AEAD051D879F";
name = "21 août 23 à 06:08";
shapes = (
{
closed = 1;
nodes = (
(310,0,ls),
(474,0,o),
(607,133,o),
(607,297,cs),
(607,391,o),
(563,475,o),
(496,530,c),
(496,493,l),
(547,445,o),
(578,376,o),
(578,297,cs),
(578,145,o),
(462,29,o),
(310,29,cs),
(99,29,l),
(99,722,l),
(261,722,ls),
(385,722,o),
(478,628,o),
(478,504,cs),
(478,380,o),
(385,287,o),
(261,287,cs),
(93,287,ls),
(84,287,o),
(78,280,o),
(78,272,cs),
(78,264,o),
(84,257,o),
(93,257,cs),
(261,257,ls),
(397,257,o),
(507,368,o),
(507,504,cs),
(507,641,o),
(397,751,o),
(261,751,cs),
(85,751,ls),
(77,751,o),
(70,744,o),
(70,735,cs),
(70,16,ls),
(70,7,o),
(77,0,o),
(85,0,cs)
);
}
);
width = 656;
},
{
anchors = (
{
name = bottom;
pos = (322,0);
},
{
name = center;
pos = (322,375);
},
{
name = top;
pos = (322,751);
}
);
background = {
hints = (
{
horizontal = 1;
place = (-15,30);
type = Stem;
},
{
horizontal = 1;
place = (257,30);
type = Stem;
},
{
horizontal = 1;
place = (564,30);
type = Stem;
},
{
horizontal = 1;
place = (721,30);
type = Stem;
},
{
place = (85,30);
type = Stem;
},
{
place = (608,30);
type = Stem;
}
);
shapes = (
{
closed = 1;
nodes = (
(55,0,ls),
(55,-10,o),
(60,-15,o),
(70,-15,cs),
(304,-15,ls),
(388,-15,o),
(460,15,o),
(519,74,cs),
(579,133,o),
(608,205,o),
(608,289,cs),
(608,378,o),
(570,459,o),
(507,516,c),
(504,581,o),
(479,637,o),
(431,682,cs),
(383,728,o),
(326,751,o),
(260,751,cs),
(70,751,ls),
(60,751,o),
(55,746,o),
(55,736,cs)
);
},
{
closed = 1;
nodes = (
(85,594,l),
(85,721,l),
(260,721,ls),
(313,721,o),
(360,704,o),
(400,670,cs),
(440,636,o),
(465,593,o),
(474,542,c),
(423,577,o),
(366,594,o),
(304,594,cs)
);
},
{
closed = 1;
nodes = (
(85,287,l),
(85,564,l),
(304,564,ls),
(369,564,o),
(426,543,o),
(477,502,c),
(477,443,o),
(455,392,o),
(413,350,cs),
(370,308,o),
(319,287,o),
(260,287,cs)
);
},
{
closed = 1;
nodes = (
(85,15,l),
(85,257,l),
(260,257,ls),
(323,257,o),
(377,278,o),
(425,320,cs),
(472,362,o),
(499,414,o),
(505,475,c),
(554,423,o),
(578,361,o),
(578,289,cs),
(578,213,o),
(551,149,o),
(498,95,cs),
(444,42,o),
(379,15,o),
(304,15,cs)
);
}
);
};
layerId = "12AF635E-66FE-4C90-B49C-8787585F2B73";
name = Light;
shapes = (
{
ref = B;
}
);
width = 656;
},
{
anchors = (
{
name = bottom;
pos = (354,0);
},
{
name = center;
pos = (354,375);
},
{
name = top;
pos = (354,751);
}
);
associatedMasterId = m004;
background = {
hints = (
{
horizontal = 1;
place = (-15,30);
type = Stem;
},
{
horizontal = 1;
place = (257,30);
type = Stem;
},
{
horizontal = 1;
place = (564,30);
type = Stem;
},
{
horizontal = 1;
place = (721,30);
type = Stem;
},
{
place = (85,30);
type = Stem;
},
{
place = (608,30);
type = Stem;
}
);
shapes = (
{
closed = 1;
nodes = (
(88,0,ls),
(88,-10,o),
(93,-15,o),
(103,-15,cs),
(337,-15,ls),
(421,-15,o),
(493,15,o),
(552,74,cs),
(611,133,o),
(641,205,o),
(641,289,cs),
(641,378,o),
(603,459,o),
(540,516,c),
(537,581,o),
(511,637,o),
(463,682,cs),
(416,728,o),
(359,751,o),
(293,751,cs),
(103,751,ls),
(93,751,o),
(88,746,o),
(88,736,cs)
);
},
{
closed = 1;
nodes = (
(118,594,l),
(118,721,l),
(293,721,ls),
(346,721,o),
(393,704,o),
(433,670,cs),
(473,636,o),
(498,593,o),
(507,542,c),
(456,577,o),
(399,594,o),
(337,594,cs)
);
},
{
closed = 1;
nodes = (
(118,287,l),
(118,564,l),
(337,564,ls),
(401,564,o),
(459,543,o),
(510,502,c),
(509,443,o),
(488,392,o),
(445,350,cs),
(403,308,o),
(352,287,o),
(293,287,cs)
);
},
{
closed = 1;
nodes = (
(118,15,l),
(118,257,l),
(293,257,ls),
(355,257,o),
(410,278,o),
(458,320,cs),
(505,362,o),
(532,414,o),
(538,475,c),
(586,423,o),
(611,361,o),
(611,289,cs),
(611,213,o),
(584,149,o),
(530,95,cs),
(477,42,o),
(412,15,o),
(337,15,cs)
);
}
);
};
layerId = "A11A8383-2124-4268-9705-1A0B847FD868";
name = "21 août 23 à 06:08";
shapes = (
{
closed = 1;
nodes = (
(368,0,ls),
(522,0,o),
(648,125,o),
(648,280,cs),
(648,402,o),
(570,506,o),
(460,544,c),
(458,393,l),
(489,369,o),
(511,332,o),
(511,280,cs),
(511,182,o),
(432,137,o),
(368,137,cs),
(205,137,l),
(205,614,l),
(293,614,ls),
(357,614,o),
(403,584,o),
(403,504,cs),
(403,424,o),
(357,394,o),
(293,394,cs),
(164,394,ls),
(126,394,o),
(96,363,o),
(96,326,cs),
(96,288,o),
(126,257,o),
(164,257,cs),
(293,257,ls),
(430,257,o),
(540,368,o),
(540,504,cs),
(540,641,o),
(430,751,o),
(293,751,cs),
(128,751,ls),
(93,751,o),
(68,726,o),
(68,691,cs),
(68,60,ls),
(68,25,o),
(93,0,o),
(128,0,cs)
);
}
);
width = 697;
},
{
anchors = (
{
name = bottom;
pos = (354,0);
},
{
name = center;
pos = (354,375);
},
{
name = top;
pos = (354,751);
}
);
background = {
hints = (
{
horizontal = 1;
place = (-15,30);
type = Stem;
},
{
horizontal = 1;
place = (257,30);
type = Stem;
},
{
horizontal = 1;
place = (564,30);
type = Stem;
},
{
horizontal = 1;
place = (721,30);
type = Stem;
},
{
place = (85,30);
type = Stem;
},
{
place = (608,30);
type = Stem;
}
);
shapes = (
{
closed = 1;
nodes = (
(88,0,ls),
(88,-10,o),
(93,-15,o),
(103,-15,cs),
(337,-15,ls),
(421,-15,o),
(493,15,o),
(552,74,cs),
(611,133,o),
(641,205,o),
(641,289,cs),
(641,378,o),
(603,459,o),
(540,516,c),
(537,581,o),
(511,637,o),
(463,682,cs),
(416,728,o),
(359,751,o),
(293,751,cs),
(103,751,ls),
(93,751,o),
(88,746,o),
(88,736,cs)
);
},
{
closed = 1;
nodes = (
(118,594,l),
(118,721,l),
(293,721,ls),
(346,721,o),
(393,704,o),
(433,670,cs),
(473,636,o),
(498,593,o),
(507,542,c),
(456,577,o),
(399,594,o),
(337,594,cs)
);
},
{
closed = 1;
nodes = (
(118,287,l),
(118,564,l),
(337,564,ls),
(401,564,o),
(459,543,o),
(510,502,c),
(509,443,o),
(488,392,o),
(445,350,cs),
(403,308,o),
(352,287,o),
(293,287,cs)
);
},
{
closed = 1;
nodes = (
(118,15,l),
(118,257,l),
(293,257,ls),
(355,257,o),
(410,278,o),
(458,320,cs),
(505,362,o),
(532,414,o),
(538,475,c),
(586,423,o),
(611,361,o),
(611,289,cs),
(611,213,o),
(584,149,o),
(530,95,cs),
(477,42,o),
(412,15,o),
(337,15,cs)
);
}
);
};
layerId = m004;
name = Bold;
shapes = (
{
ref = B;
}
);
width = 697;
}
);
note = B;
unicode = 98;
},
